<svg id="Corporate" xmlns="http://www.w3.org/2000/svg" xmlns:xlink="http://www.w3.org/1999/xlink" width="570.025" height="354.079" viewBox="0 0 570.025 354.079">
  <defs>
    <linearGradient id="linear-gradient" x1="-0.024" y1="1.286" x2="0.998" y2="0.066" gradientUnits="objectBoundingBox">
      <stop offset="0" stop-color="#dae3fe"/>
      <stop offset="1" stop-color="#e9effd"/>
    </linearGradient>
    <linearGradient id="linear-gradient-2" x1="0" y1="0.5" x2="1" y2="0.5" xlink:href="#linear-gradient"/>
    <linearGradient id="linear-gradient-3" x1="0" y1="0.5" x2="1" y2="0.5" xlink:href="#linear-gradient"/>
    <linearGradient id="linear-gradient-5" x1="0.418" y1="1.891" x2="-0.281" y2="9.474" gradientUnits="objectBoundingBox">
      <stop offset="0" stop-color="#09005d"/>
      <stop offset="1" stop-color="#1a0f91"/>
    </linearGradient>
    <linearGradient id="linear-gradient-6" y1="0.5" x2="1" y2="0.5" gradientUnits="objectBoundingBox">
      <stop offset="0" stop-color="#4042e2"/>
      <stop offset="1" stop-color="#4f52ff"/>
    </linearGradient>
    <linearGradient id="linear-gradient-7" x1="0" y1="0.5" y2="0.5" xlink:href="#linear-gradient-6"/>
    <linearGradient id="linear-gradient-10" x1="0.475" y1="3.837" x2="0.841" y2="-40.376" xlink:href="#linear-gradient-6"/>
    <linearGradient id="linear-gradient-11" x1="-4.03" y1="0.944" x2="19.839" y2="-1.396" xlink:href="#linear-gradient-6"/>
    <linearGradient id="linear-gradient-12" x1="-5.598" y1="1.087" x2="18.271" y2="-1.21" xlink:href="#linear-gradient-6"/>
    <linearGradient id="linear-gradient-13" x1="-7.221" y1="1.243" x2="16.648" y2="-1.054" xlink:href="#linear-gradient-6"/>
    <linearGradient id="linear-gradient-14" x1="-8.558" y1="1.379" x2="15.312" y2="-0.937" xlink:href="#linear-gradient-6"/>
    <linearGradient id="linear-gradient-15" x1="-1.38" y1="5.898" x2="3.939" y2="-9.373" xlink:href="#linear-gradient-6"/>
    <linearGradient id="linear-gradient-16" x1="-37.938" y1="9.678" x2="-32.818" y2="-5.594" xlink:href="#linear-gradient-6"/>
    <linearGradient id="linear-gradient-17" x1="-34.556" y1="10.577" x2="-28.663" y2="-4.695" xlink:href="#linear-gradient-6"/>
    <linearGradient id="linear-gradient-18" x1="-11.095" y1="6.8" x2="-5.033" y2="-8.471" xlink:href="#linear-gradient-6"/>
    <linearGradient id="linear-gradient-19" x1="-23.996" y1="11.61" x2="-18.103" y2="-3.661" xlink:href="#linear-gradient-6"/>
    <linearGradient id="linear-gradient-20" x1="-10.685" y1="5.767" x2="-4.623" y2="-9.505" xlink:href="#linear-gradient-6"/>
    <linearGradient id="linear-gradient-21" x1="0.297" y1="12.151" x2="0.682" y2="-9.694" xlink:href="#linear-gradient-6"/>
    <linearGradient id="linear-gradient-22" x1="0.34" y1="15.806" x2="0.662" y2="-15.07" xlink:href="#linear-gradient-6"/>
    <linearGradient id="linear-gradient-23" x1="-1.966" y1="0.53" x2="-1.078" y2="0.53" xlink:href="#linear-gradient-5"/>
    <linearGradient id="linear-gradient-24" x1="-6.626" y1="0.49" x2="-6.005" y2="0.49" xlink:href="#linear-gradient-5"/>
    <linearGradient id="linear-gradient-25" x1="1028.773" y1="1.62" x2="1030.934" y2="0.363" gradientUnits="objectBoundingBox">
      <stop offset="0" stop-color="#cb236d"/>
      <stop offset="1" stop-color="#4c246d"/>
    </linearGradient>
    <linearGradient id="linear-gradient-26" x1="117.214" y1="0.049" x2="117.47" y2="-21.604" xlink:href="#linear-gradient-25"/>
    <linearGradient id="linear-gradient-27" x1="66.5" y1="6.209" x2="66.696" y2="1.856" gradientUnits="objectBoundingBox">
      <stop offset="0" stop-color="#fdf53f"/>
      <stop offset="1" stop-color="#d93c65"/>
    </linearGradient>
    <linearGradient id="linear-gradient-28" x1="0.001" y1="0.5" x2="1" y2="0.5" gradientUnits="objectBoundingBox">
      <stop offset="0" stop-color="#ff928e"/>
      <stop offset="1" stop-color="#feb3b1"/>
    </linearGradient>
    <linearGradient id="linear-gradient-29" x1="0.277" y1="0.652" x2="0.998" y2="-0.149" gradientUnits="objectBoundingBox">
      <stop offset="0" stop-color="#2b3582"/>
      <stop offset="0.23" stop-color="#252a70"/>
      <stop offset="0.729" stop-color="#19164f"/>
      <stop offset="1" stop-color="#150e42"/>
    </linearGradient>
    <linearGradient id="linear-gradient-30" x1="0" y1="0.5" x2="1" y2="0.5" xlink:href="#linear-gradient-28"/>
    <linearGradient id="linear-gradient-31" x1="0.483" y1="0.936" x2="0.522" y2="0.091" xlink:href="#linear-gradient-5"/>
    <linearGradient id="linear-gradient-32" x1="0.454" y1="-1.005" x2="0.472" y2="-0.321" gradientUnits="objectBoundingBox">
      <stop offset="0" stop-color="#e1473d"/>
      <stop offset="1" stop-color="#e9605a"/>
    </linearGradient>
    <linearGradient id="linear-gradient-33" x1="0" y1="0.5" x2="1" y2="0.5" xlink:href="#linear-gradient-28"/>
    <linearGradient id="linear-gradient-34" x1="0.853" y1="0.175" x2="-0.154" y2="0.862" gradientUnits="objectBoundingBox">
      <stop offset="0" stop-color="#fe7062"/>
      <stop offset="1" stop-color="#ff928e"/>
    </linearGradient>
    <linearGradient id="linear-gradient-35" x1="0" y1="0.5" x2="1" y2="0.5" xlink:href="#linear-gradient-28"/>
    <linearGradient id="linear-gradient-36" x1="1.641" y1="-0.027" x2="-0.144" y2="0.826" xlink:href="#linear-gradient-34"/>
    <linearGradient id="linear-gradient-37" x1="-0.324" y1="0.534" x2="2.842" y2="0.405" xlink:href="#linear-gradient-32"/>
    <linearGradient id="linear-gradient-38" x1="0.654" y1="-1.788" x2="0.589" y2="-0.677" xlink:href="#linear-gradient-28"/>
    <linearGradient id="linear-gradient-39" x1="-2.253" y1="0.45" x2="1.205" y2="0.507" xlink:href="#linear-gradient-28"/>
    <linearGradient id="linear-gradient-40" x1="3.279" y1="-12.212" x2="4.327" y2="-12.212" xlink:href="#linear-gradient-5"/>
    <linearGradient id="linear-gradient-41" x1="12.241" y1="-55.838" x2="15.493" y2="-58.226" xlink:href="#linear-gradient-28"/>
    <linearGradient id="linear-gradient-42" x1="74.619" y1="51.476" x2="73.88" y2="53.914" xlink:href="#linear-gradient-5"/>
    <linearGradient id="linear-gradient-43" x1="0.82" y1="1.051" x2="0.244" y2="0.098" xlink:href="#linear-gradient-5"/>
    <linearGradient id="linear-gradient-44" x1="0" y1="0.5" y2="0.5" xlink:href="#linear-gradient-6"/>
    <linearGradient id="linear-gradient-45" x1="0.447" y1="0.525" x2="-0.558" y2="1.053" xlink:href="#linear-gradient-6"/>
    <linearGradient id="linear-gradient-46" x1="1.424" y1="0.297" x2="-0.194" y2="0.652" xlink:href="#linear-gradient-6"/>
    <linearGradient id="linear-gradient-47" x1="0.868" y1="-9.185" x2="0.673" y2="-4.133" xlink:href="#linear-gradient-6"/>
    <linearGradient id="linear-gradient-48" x1="0.82" y1="-2.484" x2="-0.484" y2="10.085" xlink:href="#linear-gradient-6"/>
    <linearGradient id="linear-gradient-49" x1="0" y1="0.5" x2="1" y2="0.5" xlink:href="#linear-gradient-28"/>
    <linearGradient id="linear-gradient-50" x1="0.569" y1="-1.832" x2="0.518" y2="-0.126" xlink:href="#linear-gradient-5"/>
    <linearGradient id="linear-gradient-51" x1="0.104" y1="-0.501" x2="0.277" y2="-0.014" xlink:href="#linear-gradient-28"/>
    <linearGradient id="linear-gradient-52" x1="0.311" y1="2.213" x2="0.471" y2="0.817" xlink:href="#linear-gradient-5"/>
    <linearGradient id="linear-gradient-53" x1="0.566" y1="-6.826" x2="0.526" y2="-2.323" xlink:href="#linear-gradient-5"/>
    <linearGradient id="linear-gradient-54" x1="0.364" y1="0.364" x2="0.985" y2="1.814" xlink:href="#linear-gradient-34"/>
    <linearGradient id="linear-gradient-55" x1="-0.032" y1="-0.555" x2="0.871" y2="1.494" xlink:href="#linear-gradient-28"/>
    <linearGradient id="linear-gradient-56" x1="26.129" y1="37.064" x2="26.295" y2="35.628" xlink:href="#linear-gradient-28"/>
    <linearGradient id="linear-gradient-57" x1="18.997" y1="31.383" x2="17.48" y2="33.77" xlink:href="#linear-gradient-5"/>
    <linearGradient id="linear-gradient-58" x1="109.589" y1="119.445" x2="110.292" y2="114.809" xlink:href="#linear-gradient-28"/>
    <linearGradient id="linear-gradient-59" x1="0.868" y1="-1.854" x2="0.555" y2="0.3" xlink:href="#linear-gradient-28"/>
    <linearGradient id="linear-gradient-60" x1="11.23" y1="29.479" x2="10.34" y2="31.62" xlink:href="#linear-gradient-5"/>
    <linearGradient id="linear-gradient-61" x1="0.568" y1="14.007" x2="-0.172" y2="16.443" xlink:href="#linear-gradient-5"/>
    <linearGradient id="linear-gradient-62" x1="0.733" y1="0.134" x2="0.333" y2="0.8" xlink:href="#linear-gradient-5"/>
    <linearGradient id="linear-gradient-63" x1="0" y1="0.5" y2="0.5" xlink:href="#linear-gradient-6"/>
    <linearGradient id="linear-gradient-64" x1="0" y1="0.5" y2="0.5" xlink:href="#linear-gradient-6"/>
    <linearGradient id="linear-gradient-68" x1="0.459" y1="1.876" x2="0.4" y2="4.592" xlink:href="#linear-gradient-6"/>
    <linearGradient id="linear-gradient-69" x1="0.5" y1="0.261" x2="0.5" y2="1.391" xlink:href="#linear-gradient-34"/>
    <linearGradient id="linear-gradient-70" x1="-124.869" y1="-2" x2="-123.824" y2="-2" xlink:href="#linear-gradient-5"/>
    <linearGradient id="linear-gradient-71" x1="3.788" y1="-6.361" x2="0.301" y2="1.144" xlink:href="#linear-gradient-28"/>
    <linearGradient id="linear-gradient-72" x1="-0.064" y1="1.13" x2="0.996" y2="0.133" xlink:href="#linear-gradient-6"/>
    <linearGradient id="linear-gradient-73" x1="0.128" y1="-0.458" x2="1.17" y2="-0.458" xlink:href="#linear-gradient-5"/>
    <linearGradient id="linear-gradient-74" x1="2.579" y1="-4.059" x2="-0.86" y2="3.366" xlink:href="#linear-gradient-28"/>
    <linearGradient id="linear-gradient-75" x1="0.039" y1="0.21" x2="1.171" y2="1.124" xlink:href="#linear-gradient-6"/>
    <linearGradient id="linear-gradient-76" x1="0.511" y1="1.753" x2="0.489" y2="-0.794" xlink:href="#linear-gradient-28"/>
    <linearGradient id="linear-gradient-77" x1="0.458" y1="0.559" x2="2.075" y2="-1.565" xlink:href="#linear-gradient-28"/>
    <linearGradient id="linear-gradient-78" x1="-0.168" y1="1.153" x2="0.922" y2="0.094" xlink:href="#linear-gradient-28"/>
    <linearGradient id="linear-gradient-79" x1="0.812" y1="0.711" x2="-1.442" y2="-1.321" xlink:href="#linear-gradient-28"/>
    <linearGradient id="linear-gradient-80" x1="1.474" y1="1.117" x2="-0.045" y2="0.104" xlink:href="#linear-gradient-28"/>
    <linearGradient id="linear-gradient-81" x1="0.438" y1="-0.906" x2="0.526" y2="0.936" xlink:href="#linear-gradient-28"/>
    <linearGradient id="linear-gradient-82" x1="0.134" y1="-4.967" x2="0.632" y2="2.348" xlink:href="#linear-gradient-28"/>
    <linearGradient id="linear-gradient-83" x1="0.154" y1="-5.056" x2="0.615" y2="2.557" xlink:href="#linear-gradient-28"/>
    <linearGradient id="linear-gradient-84" x1="0.523" y1="1.027" x2="0.481" y2="-0.017" xlink:href="#linear-gradient-5"/>
    <linearGradient id="linear-gradient-90" x1="0.509" y1="2.145" x2="0.496" y2="-0.606" xlink:href="#linear-gradient-5"/>
    <linearGradient id="linear-gradient-91" x1="0.519" y1="2.383" x2="0.477" y2="-0.749" xlink:href="#linear-gradient-5"/>
    <linearGradient id="linear-gradient-92" x1="0.382" y1="-0.274" x2="1.098" y2="3.943" xlink:href="#linear-gradient-5"/>
    <linearGradient id="linear-gradient-93" x1="0.514" y1="2.023" x2="0.472" y2="-1.11" xlink:href="#linear-gradient-5"/>
    <linearGradient id="linear-gradient-94" x1="0.34" y1="-0.442" x2="1.055" y2="3.435" xlink:href="#linear-gradient-5"/>
    <linearGradient id="linear-gradient-95" x1="0.564" y1="-1.077" x2="0.482" y2="1.13" xlink:href="#linear-gradient-5"/>
    <linearGradient id="linear-gradient-96" x1="0.598" y1="-1.831" x2="0.549" y2="-0.65" xlink:href="#linear-gradient-5"/>
    <linearGradient id="linear-gradient-97" x1="0.401" y1="1.153" x2="0.726" y2="-1.721" xlink:href="#linear-gradient-6"/>
    <linearGradient id="linear-gradient-98" x1="0.804" y1="-2.432" x2="0.649" y2="-1.048" xlink:href="#linear-gradient-6"/>
  </defs>
  <path id="Path_266" data-name="Path 266" d="M701.142,265.937c-15.876-20.039-47.946-29.643-50.26-60.707-1.5-20.185,7.152-31.58-8.37-48.126-37.523-40-92.494-42.253-138.393-22.586s-81.544,56.364-133.59,56.756c-28.343.213-55.27-11.936-83.393-13.107A71.352,71.352,0,0,0,263,181.15c-27.908,8.589-51.551,36.94-59.5,67.557-6.44,24.819,4.449,48.492-6.357,73.012-11.519,26.136-35.766,45.07-40.674,74.84-5.89,35.731,24.585,65.093,55.781,64.558,19.856-.341,56.456-5.271,72.712-18.3,19.794-15.867,39.9-17.814,63.842-18.393,45.554-1.1,91.546,6.941,136.811,12.066,38.787,4.391,77.164,11.81,116.226,11.109,28.686-.515,53.015-1.3,67.022-33.123C685.6,376.432,734.444,307.968,701.142,265.937Z" transform="translate(-142.483 -118.822)" fill="url(#linear-gradient)"/>
  <path id="Path_267" data-name="Path 267" d="M640.694,321.7s23.011-37.235,11.537-57.526S611.388,218.2,641.9,163.255c17.863-32.168,25.2-46.507,28.222-52.867a4.142,4.142,0,0,1,6.462-1.356c14.655,12.749,60.686,56.856,50.517,99.949C715.046,260.068,640.694,321.7,640.694,321.7Z" transform="translate(-496.39 -108.016)" fill="#91b3fa"/>
  <path id="Path_268" data-name="Path 268" d="M740.978,200.4c.605,1.9,1.147,3.778,1.659,5.682.259.95.5,1.9.729,2.86s.483,1.908.692,2.869c.435,1.918.882,3.835,1.264,5.764l.6,2.891.534,2.9.518,2.906.453,2.917.453,2.918c.15.973.262,1.95.395,2.926l.375,2.929q.2,1.464.335,2.934l.595,5.878c.287,3.928.622,7.856.734,11.8l.121,2.954.06,1.477.018,1.478.057,5.913.006,1.479-.039,1.478-.079,2.957-.079,2.957-.04,1.479-.086,1.477c-.265,3.94-.4,7.868-.879,11.83-.086.991-.24,1.972-.371,2.957s-.262,1.97-.414,2.951l-.5,2.936-.254,1.468-.3,1.459-.6,2.917-.684,2.9c-.431,1.938-1.009,3.837-1.516,5.754a165.421,165.421,0,0,1-8.206,22.284A181.207,181.207,0,0,1,725.406,360.6q-3.125,5.033-6.56,9.863c-2.292,3.227-4.669,6.347-7.3,9.378a1.244,1.244,0,0,1-1.925-1.574l.033-.042a173.055,173.055,0,0,0,12.9-19.336,198.451,198.451,0,0,0,10.5-20.752,175.043,175.043,0,0,0,7.821-21.845,146.54,146.54,0,0,0,4.517-22.695,287.559,287.559,0,0,0,.861-46.575l-.43-5.824c-.119-1.945-.368-3.876-.539-5.817-.1-.969-.174-1.941-.288-2.908l-.346-2.9-.346-2.9-.41-2.893a226.883,226.883,0,0,0-4.268-22.973l-.006-.025a.706.706,0,0,1,1.358-.381Z" transform="translate(-556.964 -176.813)" fill="#bdd0fb"/>
  <path id="Path_269" data-name="Path 269" d="M375.191,627.361c3.118,2.4-23.858-50.554-20.649-124.454,1.512-34.824,10.041-77.105-5.863-97.3-13.236-16.81-69.4-19.323-87.871-19.693a2.725,2.725,0,0,0-2.193,4.419c7.081,8.909,21.908,29.543,23.2,47.56,1.7,23.748,20.16,42.388,38.5,50.147s28.216,13.678,31.311,46.161S366.332,620.535,375.191,627.361Z" transform="translate(-219.061 -316.066)" fill="#bdd0fb"/>
  <path id="Path_270" data-name="Path 270" d="M359.49,444.341a88.682,88.682,0,0,1,31.484,15.182,69.372,69.372,0,0,1,12.645,12.324,59.919,59.919,0,0,1,8.812,15.367l.785,2.082c.257.7.449,1.413.676,2.119.209.708.446,1.422.632,2.125l.561,2.111q1.132,4.218,2.208,8.452,2.15,8.466,4.034,17c2.518,11.374,4.69,22.822,6.162,34.4a.485.485,0,0,1-.959.149l0-.015q-1.544-8.552-3.423-17.069-1.838-8.512-3.877-16.978l-2.063-8.459-2.159-8.436q-1.077-4.218-2.226-8.418l-.566-2.1c-.188-.7-.413-1.367-.618-2.052s-.394-1.37-.638-2.038l-.744-2a59.509,59.509,0,0,0-8.371-14.846,65.855,65.855,0,0,0-5.664-6.433l-.754-.764-.784-.735c-.525-.488-1.037-.989-1.572-1.466-1.084-.939-2.156-1.892-3.291-2.773a88.743,88.743,0,0,0-14.487-9.352A92.18,92.18,0,0,0,359.3,445.1l-.024-.007a.389.389,0,1,1,.209-.75Z" transform="translate(-294.655 -359.8)" fill="url(#linear-gradient-2)"/>
  <path id="Path_271" data-name="Path 271" d="M290.26,849.134c2.141.988-12.937-22.059-15.11-42.953s-8.8-56.4-28-76.832-39.091-21.332-62.989-.562c-19.914,17.309-32.439,26.175-39.958,28.1a2.876,2.876,0,0,0-1.7,4.29c5.351,8.718,20.227,28.605,43.289,25.925,29.418-3.419,64.17-24.506,75.922-9.078s10.828,24.458,11.566,32.026S276.089,842.6,290.26,849.134Z" transform="translate(-132.25 -561.407)" fill="#bdd0fb"/>
  <path id="Path_272" data-name="Path 272" d="M348.274,823.066A59.657,59.657,0,0,1,353.2,818.5c1.714-1.439,3.486-2.817,5.338-4.087a55.651,55.651,0,0,1,11.915-6.389,38.376,38.376,0,0,1,6.6-1.854,28.531,28.531,0,0,1,6.922-.394c.58.063,1.164.086,1.741.184s1.163.181,1.721.309l3.3.835,3.246,1.067,3.161,1.317a38.9,38.9,0,0,1,11.184,7.823,48.368,48.368,0,0,1,8.044,10.912l.822,1.476c.281.489.494,1.01.744,1.513.475,1.018.982,2.022,1.43,3.051l1.265,3.115c.444,1.03.751,2.108,1.122,3.163a117.592,117.592,0,0,1,3.53,12.9.433.433,0,0,1-.836.22l0-.014c-1.262-4.241-2.487-8.49-4.135-12.577-.758-2.069-1.687-4.06-2.56-6.073-.465-.992-.987-1.956-1.477-2.934-.257-.482-.478-.985-.765-1.451l-.837-1.407a49.222,49.222,0,0,0-7.942-10.26,37.888,37.888,0,0,0-10.607-7.241l-2.987-1.227-3.08-.995-3.151-.779c-.523-.119-1.034-.189-1.551-.287s-1.044-.114-1.565-.176a26.1,26.1,0,0,0-6.33.322,36.224,36.224,0,0,0-6.227,1.615,60.343,60.343,0,0,0-11.7,5.749c-1.854,1.166-3.688,2.38-5.461,3.683s-3.509,2.674-5.161,4.105l-.01.009a.45.45,0,0,1-.621-.649Z" transform="translate(-286.537 -630.357)" fill="url(#linear-gradient-3)"/>
  <path id="Path_273" data-name="Path 273" d="M1857.169,1080.455c19.778,3.8,78.185,6.183,99.714-90.748a2.742,2.742,0,0,0-4.705-2.445c-8.858,9.794-24.615,26.445-38,31.569-41.478,15.874-56.493,41.411-61.448,53.371a6.041,6.041,0,0,0,4.442,8.254Z" transform="translate(-1412.615 -765.593)" fill="#bdd0fb"/>
  <path id="Path_274" data-name="Path 274" d="M1860.734,1161.18a1.155,1.155,0,0,1-.322-2.263c28.824-8.382,49.99-24.5,62.672-36.543,13.761-13.07,20.783-24.3,20.853-24.415a1.154,1.154,0,1,1,1.963,1.214c-.07.114-7.213,11.553-21.169,24.82-12.875,12.24-34.372,28.619-63.673,37.14A1.166,1.166,0,0,1,1860.734,1161.18Z" transform="translate(-1418.092 -848.744)" fill="url(#linear-gradient-3)"/>
  <path id="Path_275" data-name="Path 275" d="M1901.047,702c2.25,18.1,13.5,129.7-45.849,165.305a2.816,2.816,0,0,1-4.254-2.212c-.963-13.3-1.564-55.57,22.848-105.456,17.613-35.993,24.069-52.219,26.1-57.769a.6.6,0,0,1,1.151.132Z" transform="translate(-1411.371 -552.318)" fill="#91b3fa"/>
  <path id="Path_276" data-name="Path 276" d="M1848.525,980.6a1.154,1.154,0,0,1-1.013-1.706c29.827-54.835,42.454-120.1,42.513-123.361a1.154,1.154,0,0,1,2.245-.505c.724,2.314-12.921,70.166-42.73,124.969A1.153,1.153,0,0,1,1848.525,980.6Zm41.542-124.885v0Z" transform="translate(-1408.953 -666.672)" fill="#bdd0fb"/>
  <rect id="Rectangle_321" data-name="Rectangle 321" width="360.908" height="223.019" transform="translate(105.612 103.347)" fill="#91b3fa"/>
  <path id="Path_277" data-name="Path 277" d="M791.007,613.278H433.51l2.629-197.163,354.868,3.438Z" transform="translate(-324.554 -311.533)" fill="#bdd0fb"/>
  <path id="Path_278" data-name="Path 278" d="M1023.777,1227.928H895.1l12.267-13.848h105.387Z" transform="translate(-670.133 -908.942)" fill="url(#linear-gradient-5)"/>
  <path id="Path_279" data-name="Path 279" d="M2178.14,840.944l1.61,13.88s14.846.055,18.234-.724,5.177-3.383,2.258-4.228a2.689,2.689,0,0,0,.681-5.079s3.354-2.4-.822-5.083a2.951,2.951,0,0,0,1.454-2.81c-.29-1.808-1.387-2.608-4.514-2.245s-6.792,1.406-6.7-.459,2.124-6.344.006-9.275-3.605-.432-3.508.407.319,4.6-1.94,7.181-2.642,6.553-3.94,7.413A7.12,7.12,0,0,1,2178.14,840.944Z" transform="translate(-1656.587 -643.7)" fill="#bdd0fb"/>
  <path id="Path_280" data-name="Path 280" d="M2100.13,735.924l1.016,8.756s9.365.035,11.5-.457,3.266-2.134,1.425-2.667a1.7,1.7,0,0,0,.43-3.2s2.116-1.513-.518-3.207a1.861,1.861,0,0,0,.917-1.772c-.183-1.141-.875-1.645-2.847-1.417s-4.285.887-4.227-.29,1.34-4,0-5.852-2.275-.272-2.213.257a6.285,6.285,0,0,1-1.225,4.53c-1.425,1.628-1.666,4.134-2.486,4.677A4.489,4.489,0,0,1,2100.13,735.924Z" transform="translate(-1598.183 -569.886)" fill="#bdd0fb"/>
  <path id="Path_281" data-name="Path 281" d="M2220.5,1124.43s22.465-51.9,5.457-106.572a.424.424,0,0,0-.79.087C2221.068,1051.013,2219.847,1086.825,2220.5,1124.43Z" transform="translate(-1688.177 -789.009)" fill="#91b3fa"/>
  <path id="Path_282" data-name="Path 282" d="M2220.49,1164.97a.289.289,0,0,1-.278-.367c3.97-14.1,5.481-38.112,6.05-55.77.617-19.142.288-35.148.285-35.307a.289.289,0,0,1,.282-.295h.006a.289.289,0,0,1,.289.282c0,.16.332,16.181-.286,35.338-.569,17.69-2.085,41.75-6.071,55.908A.288.288,0,0,1,2220.49,1164.97Z" transform="translate(-1688.076 -830.639)" fill="#bdd0fb"/>
  <path id="Path_283" data-name="Path 283" d="M2161.423,1026.54s13.878-63.676-12.35-128.113a.4.4,0,0,0-.778.155C2149.709,938.49,2154.474,981.5,2161.423,1026.54Z" transform="translate(-1634.243 -699.577)" fill="#91b3fa"/>
  <path id="Path_284" data-name="Path 284" d="M2172.661,1074.986h-.028a.288.288,0,0,1-.26-.314c3.117-32.879-8.757-108.862-8.876-109.626a.289.289,0,0,1,.57-.09c.12.765,12,76.82,8.881,109.77A.288.288,0,0,1,2172.661,1074.986Z" transform="translate(-1645.621 -749.395)" fill="#bdd0fb"/>
  <path id="Path_285" data-name="Path 285" d="M2110.937,1162.767s6.649-55.549-26.38-105.538c-.216-.326-.818-.126-.751.25C2089.622,1090.732,2099.087,1126.067,2110.937,1162.767Z" transform="translate(-1585.958 -818.536)" fill="#91b3fa"/>
  <path id="Path_286" data-name="Path 286" d="M2127.323,1201.637a.289.289,0,0,1-.289-.283c-.294-14.647-5.96-38.483-10.661-55.9-5.1-18.88-10.188-34.491-10.238-34.646a.288.288,0,0,1,.548-.179c.051.156,5.147,15.78,10.247,34.675,4.709,17.448,10.386,41.333,10.681,56.039a.289.289,0,0,1-.283.294Z" transform="translate(-1602.668 -858.489)" fill="#bdd0fb"/>
  <path id="Path_287" data-name="Path 287" d="M2157.083,1354.23H2126.55a3.813,3.813,0,0,0-3.571,4.532,87.706,87.706,0,0,0,9.354,25.238,4.871,4.871,0,0,0,4.327,2.543h9.963a4.9,4.9,0,0,0,4.407-2.474c4.79-8.717,7.132-17.434,9.085-25.9A3.219,3.219,0,0,0,2157.083,1354.23Z" transform="translate(-1615.242 -1041.014)" fill="#7d97f4"/>
  <path id="Path_288" data-name="Path 288" d="M740.862,628.555a21.516,21.516,0,0,1-21.516,21.516A22.338,22.338,0,0,1,697.3,628.135c0-11.883,10.165-21.095,22.048-21.095a21.516,21.516,0,0,1,21.516,21.516Z" transform="translate(-547.931 -481.618)" fill="url(#linear-gradient-6)"/>
  <path id="Path_289" data-name="Path 289" d="M703.159,663.09a.28.28,0,0,1-.074-.009.289.289,0,0,1-.2-.353,19.582,19.582,0,0,1,.885-2.581.288.288,0,0,1,.531.224,19.022,19.022,0,0,0-.859,2.506A.289.289,0,0,1,703.159,663.09Z" transform="translate(-552.103 -521.245)" fill="#bdd0fb"/>
  <path id="Path_290" data-name="Path 290" d="M716.241,618.946a.288.288,0,0,1-.23-.462,21.707,21.707,0,0,1,17.288-8.5,20.635,20.635,0,0,1,8.367,1.753.289.289,0,1,1-.233.529,20.054,20.054,0,0,0-8.134-1.7,21.127,21.127,0,0,0-16.828,8.268.288.288,0,0,1-.231.115Z" transform="translate(-561.897 -483.824)" fill="#bdd0fb"/>
  <path id="Path_291" data-name="Path 291" d="M746.654,637.169a18.624,18.624,0,0,1-18.624,18.624A19.336,19.336,0,0,1,708.945,636.8c0-10.286,8.8-18.26,19.085-18.26a18.624,18.624,0,0,1,18.624,18.624Z" transform="translate(-556.65 -490.231)" fill="#bdd0fb"/>
  <path id="Path_292" data-name="Path 292" d="M761.087,637.168a18.624,18.624,0,0,0-18.624-18.624,19.53,19.53,0,0,0-14.239,6.116L742.57,636.6l2.949,18.944A18.628,18.628,0,0,0,761.087,637.168Z" transform="translate(-571.083 -490.231)" fill="#7d97f4"/>
  <path id="Path_293" data-name="Path 293" d="M745.415,637.427a16.985,16.985,0,0,1-17.157,16.808c-9.476,0-17.582-7.854-17.582-17.137s8.106-16.479,17.582-16.479A16.985,16.985,0,0,1,745.415,637.427Z" transform="translate(-557.946 -491.784)" fill="#91b3fa"/>
  <path id="Path_294" data-name="Path 294" d="M719.346,684.283A1.434,1.434,0,1,1,718,682.768,1.434,1.434,0,0,1,719.346,684.283Z" transform="translate(-562.292 -538.312)" fill="#fff" opacity="0.78"/>
  <path id="Path_295" data-name="Path 295" d="M842.6,691.457a1.434,1.434,0,1,1-1.348-1.515A1.434,1.434,0,0,1,842.6,691.457Z" transform="translate(-654.568 -543.682)" fill="#fff" opacity="0.78"/>
  <path id="Path_296" data-name="Path 296" d="M768.707,747.1a1.434,1.434,0,1,1-1.668,1.153,1.434,1.434,0,0,1,1.668-1.153Z" transform="translate(-600.125 -586.46)" fill="#fff" opacity="0.78"/>
  <path id="Path_297" data-name="Path 297" d="M790.891,625.649a1.434,1.434,0,1,1-1.668,1.153A1.434,1.434,0,0,1,790.891,625.649Z" transform="translate(-616.734 -495.532)" fill="#fff" opacity="0.78"/>
  <path id="Path_298" data-name="Path 298" d="M811.984,748.734c.146.368.109.712-.081.769s-.463-.195-.609-.562-.109-.712.081-.769S811.838,748.366,811.984,748.734Z" transform="translate(-633.208 -587.273)" fill="#fff" opacity="0.78"/>
  <path id="Path_299" data-name="Path 299" d="M762.4,633.536c.146.368.109.712-.081.769s-.463-.195-.609-.562-.109-.712.081-.769S762.253,633.168,762.4,633.536Z" transform="translate(-596.086 -501.028)" fill="#fff" opacity="0.78"/>
  <path id="Path_300" data-name="Path 300" d="M837.629,727.817c.315.239.463.552.33.7s-.5.074-.812-.164-.463-.552-.33-.7S837.314,727.579,837.629,727.817Z" transform="translate(-652.347 -571.86)" fill="#fff" opacity="0.78"/>
  <path id="Path_301" data-name="Path 301" d="M735.438,655.11c.315.239.463.552.33.7s-.5.074-.812-.164-.463-.552-.33-.7S735.123,654.872,735.438,655.11Z" transform="translate(-575.84 -517.427)" fill="#fff" opacity="0.78"/>
  <path id="Path_302" data-name="Path 302" d="M841.861,662.952c.357-.17.7-.157.773.03s-.163.475-.52.646-.7.157-.773-.03S841.5,663.122,841.861,662.952Z" transform="translate(-655.761 -523.388)" fill="#fff" opacity="0.78"/>
  <path id="Path_303" data-name="Path 303" d="M730.243,720.141c.357-.17.7-.157.773.03s-.163.475-.52.645-.7.157-.772-.03S729.885,720.31,730.243,720.141Z" transform="translate(-572.196 -566.204)" fill="#fff" opacity="0.78"/>
  <path id="Path_304" data-name="Path 304" d="M819.265,637.7c.217-.331.519-.5.676-.376s.107.491-.11.822-.52.5-.676.376S819.048,638.033,819.265,637.7Z" transform="translate(-639.093 -504.263)" fill="#fff" opacity="0.78"/>
  <path id="Path_305" data-name="Path 305" d="M753.565,744.534c.217-.331.52-.5.676-.376s.107.491-.11.822-.519.5-.676.376S753.348,744.864,753.565,744.534Z" transform="translate(-589.906 -584.244)" fill="#fff" opacity="0.78"/>
  <path id="Path_306" data-name="Path 306" d="M746.131,626.937,740.038,615.6a.33.33,0,0,1,.29-.486h1.483a.33.33,0,0,0,.241-.555l-7.583-8.1a.33.33,0,0,0-.561.3l2.616,10.652a.33.33,0,0,0,.562.146l1.2-1.293a.33.33,0,0,1,.522.051l6.751,10.95a.33.33,0,0,0,.447.112h0A.33.33,0,0,0,746.131,626.937Z" transform="translate(-575.333 -481.104)" fill="url(#linear-gradient-7)"/>
  <path id="Path_307" data-name="Path 307" d="M738.231,619.119a.288.288,0,0,1-.284-.24c-.044-.212-1.074-4.343-2.026-8.149a.424.424,0,0,1,.73-.383l1.561,1.776a.288.288,0,0,1-.433.381l-1.146-1.3c1.239,4.951,1.872,7.5,1.884,7.59a.288.288,0,0,1-.247.325.224.224,0,0,1-.039,0Z" transform="translate(-576.837 -483.986)" fill="#bdd0fb"/>
  <path id="Path_308" data-name="Path 308" d="M783.966,680.068l11.256-.366a.33.33,0,0,1,.3.481l-.682,1.317a.33.33,0,0,0,.382.469l10.681-3.007a.33.33,0,0,0-.012-.638l-10.661-2.577a.33.33,0,0,0-.388.432l.6,1.66a.33.33,0,0,1-.286.44l-11.214,1.129a.33.33,0,0,0-.3.346h0a.33.33,0,0,0,.334.313Z" transform="translate(-612.566 -533.051)" fill="url(#linear-gradient-6)"/>
  <path id="Path_309" data-name="Path 309" d="M839.6,681.386a.289.289,0,0,1-.069-.569l1.684-.418c-7.49-1.777-7.568-1.8-7.606-1.818a.289.289,0,1,1,.184-.547c.119.034,1.641.4,8.168,1.95a.424.424,0,0,1,0,.824l-2.295.57A.3.3,0,0,1,839.6,681.386Zm2.228-.841Z" transform="translate(-649.835 -534.758)" fill="#bdd0fb"/>
  <path id="Path_310" data-name="Path 310" d="M781.465,685.939a1.531,1.531,0,1,1-1.531-1.531,1.531,1.531,0,0,1,1.531,1.531Z" transform="translate(-608.651 -539.541)" fill="url(#linear-gradient-6)"/>
  <path id="Path_311" data-name="Path 311" d="M865.763,742.952a.288.288,0,0,1-.236-.454c.27-.386.534-.787.783-1.191a.288.288,0,0,1,.491.3c-.255.414-.525.823-.8,1.219A.288.288,0,0,1,865.763,742.952Z" transform="translate(-673.839 -582.037)" fill="#7d97f4"/>
  <path id="Path_312" data-name="Path 312" d="M707.979,735.852h-.014a26.1,26.1,0,0,1-2.882-.3.289.289,0,0,1-.239-.331.292.292,0,0,1,.33-.239,25.454,25.454,0,0,0,2.818.29.288.288,0,0,1-.013.577Zm2.864-.026a.288.288,0,0,1-.018-.576,25.262,25.262,0,0,0,2.811-.341.293.293,0,0,1,.335.233.289.289,0,0,1-.233.335,25.885,25.885,0,0,1-2.876.349h-.019Zm-8.514-.873a.3.3,0,0,1-.077-.01,26.116,26.116,0,0,1-2.745-.925.288.288,0,1,1,.215-.535,25.52,25.52,0,0,0,2.684.9.289.289,0,0,1-.076.567Zm14.145-.134a.289.289,0,0,1-.082-.565,25.089,25.089,0,0,0,2.665-.959.288.288,0,1,1,.226.531,25.688,25.688,0,0,1-2.726.982.3.3,0,0,1-.083.012Zm-19.455-1.993a.292.292,0,0,1-.136-.034,25.791,25.791,0,0,1-2.47-1.512.289.289,0,0,1,.329-.474,25.231,25.231,0,0,0,2.415,1.479.289.289,0,0,1-.137.543Zm24.72-.244a.289.289,0,0,1-.142-.54,25.447,25.447,0,0,0,2.385-1.53.289.289,0,0,1,.338.468,26.247,26.247,0,0,1-2.439,1.565.286.286,0,0,1-.142.037Zm-29.422-3.012a.289.289,0,0,1-.19-.071,25.928,25.928,0,0,1-2.07-2.026.288.288,0,0,1,.426-.389,25.339,25.339,0,0,0,2.024,1.98.289.289,0,0,1-.19.506Zm34.059-.339a.288.288,0,0,1-.194-.5,25.611,25.611,0,0,0,1.99-2.016.289.289,0,1,1,.433.382,26.275,26.275,0,0,1-2.035,2.061.287.287,0,0,1-.194.075Zm-37.919-3.882a.288.288,0,0,1-.233-.118,26.141,26.141,0,0,1-1.575-2.431.289.289,0,0,1,.5-.286,25.584,25.584,0,0,0,1.54,2.378.288.288,0,0,1-.233.459Zm-2.837-4.968a.289.289,0,0,1-.265-.175,25.833,25.833,0,0,1-.994-2.721.288.288,0,0,1,.552-.167,25.318,25.318,0,0,0,.972,2.66.289.289,0,0,1-.151.379.281.281,0,0,1-.114.023Z" transform="translate(-538.236 -564.026)" fill="#7d97f4"/>
  <path id="Path_313" data-name="Path 313" d="M681.289,702.276a.288.288,0,0,1-.283-.237c-.087-.477-.161-.962-.221-1.441a.288.288,0,0,1,.25-.322.284.284,0,0,1,.322.251c.059.468.131.943.216,1.409a.289.289,0,0,1-.232.336A.327.327,0,0,1,681.289,702.276Z" transform="translate(-535.566 -551.419)" fill="#7d97f4"/>
  <path id="Path_314" data-name="Path 314" d="M700.334,624.039a.289.289,0,0,1-.231-.46c.29-.391.594-.777.9-1.146a.288.288,0,0,1,.443.37c-.3.361-.6.738-.883,1.12a.287.287,0,0,1-.232.117Z" transform="translate(-549.988 -493.065)" fill="#7d97f4"/>
  <path id="Path_315" data-name="Path 315" d="M754.148,605.608a.288.288,0,0,1-.279-.219,25.219,25.219,0,0,0-.826-2.66.289.289,0,0,1,.541-.2,25.831,25.831,0,0,1,.844,2.722.289.289,0,0,1-.21.35.3.3,0,0,1-.07.008Zm-1.962-5.274a.288.288,0,0,1-.258-.158,25.559,25.559,0,0,0-1.39-2.416.288.288,0,1,1,.484-.314,26.043,26.043,0,0,1,1.421,2.47.289.289,0,0,1-.257.419Zm-3.069-4.718a.288.288,0,0,1-.224-.106,25.7,25.7,0,0,0-1.879-2.058.288.288,0,0,1,.4-.411,26.191,26.191,0,0,1,1.922,2.1.289.289,0,0,1-.223.471Zm-37.582-2.233a.288.288,0,0,1-.2-.5,26.3,26.3,0,0,1,2.025-1.754l.136-.1a.288.288,0,1,1,.351.457l-.132.1a25.639,25.639,0,0,0-1.981,1.715.286.286,0,0,1-.2.08Zm33.564-1.708a.29.29,0,0,1-.178-.061,25.231,25.231,0,0,0-2.283-1.6.288.288,0,1,1,.3-.49,25.843,25.843,0,0,1,2.335,1.632.288.288,0,0,1-.178.516ZM716,589.949a.288.288,0,0,1-.15-.535,25.977,25.977,0,0,1,2.512-1.347.288.288,0,1,1,.244.523,25.5,25.5,0,0,0-2.456,1.316A.285.285,0,0,1,716,589.949Zm24.32-1.236a.286.286,0,0,1-.124-.028,25.449,25.449,0,0,0-2.578-1.055.289.289,0,0,1,.189-.545,26.1,26.1,0,0,1,2.637,1.08.288.288,0,0,1-.124.549Zm-19.22-1.144a.288.288,0,0,1-.092-.562,25.7,25.7,0,0,1,2.747-.761.288.288,0,1,1,.123.563,25.273,25.273,0,0,0-2.685.744.293.293,0,0,1-.092.015Zm13.9-.7a.288.288,0,0,1-.065-.007,25.528,25.528,0,0,0-2.746-.469.289.289,0,1,1,.066-.574,26.136,26.136,0,0,1,2.809.481.288.288,0,0,1-.064.57Zm-8.406-.5a.288.288,0,0,1-.03-.575,22.981,22.981,0,0,1,2.715-.142h.133a.288.288,0,1,1,0,.577h-.145a25.311,25.311,0,0,0-2.639.139l-.03,0Z" transform="translate(-558.374 -465.604)" fill="#7d97f4"/>
  <path id="Path_316" data-name="Path 316" d="M883.362,675.87a.288.288,0,0,1-.287-.266c-.037-.472-.087-.949-.151-1.418a.288.288,0,0,1,.248-.324.281.281,0,0,1,.324.247c.065.48.116.968.154,1.449a.288.288,0,0,1-.265.31Z" transform="translate(-686.901 -531.643)" fill="#7d97f4"/>
  <path id="Path_317" data-name="Path 317" d="M866.487,1393.032l-5.2-8.24a1.46,1.46,0,0,0-1.16-.719H494.04a1.455,1.455,0,0,0-1.3,1.009l-2.841,8.254a1.418,1.418,0,0,0,.18,1.268,1.385,1.385,0,0,0,1.12.588l374.128-.051a1.371,1.371,0,0,0,1.159-2.109Z" transform="translate(-392.602 -1063.357)" fill="url(#linear-gradient-10)"/>
  <rect id="Rectangle_322" data-name="Rectangle 322" width="5.77" height="210.036" transform="translate(105.559 110.682)" fill="url(#linear-gradient-11)"/>
  <rect id="Rectangle_323" data-name="Rectangle 323" width="5.77" height="214.075" transform="translate(222.694 106.643)" fill="url(#linear-gradient-12)"/>
  <rect id="Rectangle_324" data-name="Rectangle 324" width="5.77" height="214.075" transform="translate(351.37 106.643)" fill="url(#linear-gradient-13)"/>
  <rect id="Rectangle_325" data-name="Rectangle 325" width="5.77" height="212.344" transform="translate(460.426 108.374)" fill="url(#linear-gradient-14)"/>
  <path id="Path_318" data-name="Path 318" d="M316.968,431.2l25.894,32.191v-7.213L326.489,431.2Z" transform="translate(-237.303 -322.825)" fill="url(#linear-gradient-15)"/>
  <path id="Path_319" data-name="Path 319" d="M1881.793,431.2l-26.9,32.191v-7.213l17.383-24.978Z" transform="translate(-1388.693 -322.825)" fill="url(#linear-gradient-16)"/>
  <path id="Path_320" data-name="Path 320" d="M1442.054,431.2,1418.68,463.39v-7.213L1433.8,431.2Z" transform="translate(-1062.118 -322.825)" fill="url(#linear-gradient-17)"/>
  <path id="Path_321" data-name="Path 321" d="M1307.62,431.2l22.721,32.191v-7.213L1315.874,431.2Z" transform="translate(-978.971 -322.825)" fill="url(#linear-gradient-18)"/>
  <path id="Path_322" data-name="Path 322" d="M932.38,431.2,909.008,463.39v-7.213L924.126,431.2Z" transform="translate(-680.543 -322.825)" fill="url(#linear-gradient-19)"/>
  <path id="Path_323" data-name="Path 323" d="M797.946,431.2l22.721,32.191v-7.213L806.2,431.2Z" transform="translate(-597.395 -322.825)" fill="url(#linear-gradient-20)"/>
  <path id="Path_324" data-name="Path 324" d="M887.311,396.868h-347.2a5.738,5.738,0,0,0-5.636,5.442v17.062H892.227V402.31C892.227,399.4,890.227,396.868,887.311,396.868Z" transform="translate(-426.031 -324.27)" fill="url(#linear-gradient-21)"/>
  <path id="Path_325" data-name="Path 325" d="M815.72,486.406H389.713a1.726,1.726,0,0,0-1.266.646,1.314,1.314,0,0,0-.23,1.269l4.71,13.036a1.572,1.572,0,0,0,1.507.97l420.9-2.481c.668,0,.811-.474.811-1.06V487.638C816.143,487.049,816.391,486.406,815.72,486.406Z" transform="translate(-316.478 -391.304)" fill="url(#linear-gradient-22)"/>
  <path id="Path_326" data-name="Path 326" d="M1671.709,485.841H1576.5a.866.866,0,0,1,0-1.731h95.208a.866.866,0,0,1,0,1.731Z" transform="translate(-1205.513 -389.585)" fill="#bdd0fb"/>
  <path id="Path_327" data-name="Path 327" d="M1022.9,485.841h-158.1a.866.866,0,0,1,0-1.731h158.1a.866.866,0,0,1,0,1.731Z" transform="translate(-672.68 -389.585)" fill="#bdd0fb"/>
  <path id="Path_328" data-name="Path 328" d="M583.251,485.841H531.9a.866.866,0,1,1,0-1.731h51.355a.866.866,0,1,1,0,1.731Z" transform="translate(-423.452 -389.585)" fill="#bdd0fb"/>
  <path id="Path_329" data-name="Path 329" d="M115.165,984.941a.4.4,0,0,1-.343-.193c-.282-.463-.552-.94-.8-1.421a.4.4,0,1,1,.712-.373c.244.465.506.928.778,1.376a.4.4,0,0,1-.343.611Z" transform="translate(-111.214 -762.891)" fill="#91b3fa"/>
  <path id="Path_330" data-name="Path 330" d="M104.179,869.615a.4.4,0,0,1-.388-.3c-.157-.58-.3-1.177-.412-1.773-.1-.517-.187-1.043-.256-1.563a.4.4,0,0,1,.8-.105c.067.5.15,1.014.248,1.515.113.578.247,1.156.4,1.717a.4.4,0,0,1-.388.507ZM103.4,860.9l-.035,0a.4.4,0,0,1-.365-.435,25.252,25.252,0,0,1,.526-3.364.4.4,0,0,1,.784.177,24.486,24.486,0,0,0-.509,3.256.4.4,0,0,1-.4.367Zm2.29-8.448a.4.4,0,0,1-.363-.574,25.6,25.6,0,0,1,1.655-2.972.4.4,0,1,1,.675.437,24.8,24.8,0,0,0-1.6,2.879.4.4,0,0,1-.363.23Zm5.061-7.14a.4.4,0,0,1-.282-.688,25.374,25.374,0,0,1,2.576-2.221.4.4,0,1,1,.483.642,24.619,24.619,0,0,0-2.494,2.151.4.4,0,0,1-.282.116Zm7.212-4.953a.4.4,0,0,1-.166-.768,25.389,25.389,0,0,1,3.188-1.189.4.4,0,1,1,.23.77,24.527,24.527,0,0,0-3.086,1.151A.4.4,0,0,1,117.964,840.355Zm8.482-2.155a.4.4,0,0,1-.029-.8,25.429,25.429,0,0,1,3.4-.024.4.4,0,0,1-.049.8,24.652,24.652,0,0,0-3.295.023h-.03Z" transform="translate(-103 -654.027)" fill="#91b3fa"/>
  <path id="Path_331" data-name="Path 331" d="M231.344,842.505a.409.409,0,0,1-.136-.024c-.491-.177-1-.341-1.5-.488a.4.4,0,1,1,.223-.772c.523.151,1.045.321,1.552.5a.4.4,0,0,1-.136.78Z" transform="translate(-197.642 -656.93)" fill="#91b3fa"/>
  <path id="Path_332" data-name="Path 332" d="M291.858,894.565a.4.4,0,0,1-.371-.246c-.2-.485-.425-.968-.658-1.437a.4.4,0,1,1,.719-.358c.241.484.47.984.68,1.484a.4.4,0,0,1-.37.557Z" transform="translate(-243.589 -695.183)" fill="#91b3fa"/>
  <path id="Path_333" data-name="Path 333" d="M194.047,948.815a25.286,25.286,0,0,1-2.785-.154.4.4,0,0,1,.084-.8,24.5,24.5,0,0,0,3.238.144.41.41,0,0,1,.41.393.4.4,0,0,1-.393.411Q194.323,948.815,194.047,948.815Zm5.848-.693a.4.4,0,0,1-.093-.793,24.656,24.656,0,0,0,3.1-.959.4.4,0,1,1,.288.75,25.494,25.494,0,0,1-3.2.99.393.393,0,0,1-.094.012Zm7.9-3.416a.4.4,0,0,1-.221-.737,24.563,24.563,0,0,0,2.581-1.957.4.4,0,1,1,.527.606,25.348,25.348,0,0,1-2.665,2.022.4.4,0,0,1-.221.065Zm6.26-5.905a.4.4,0,0,1-.321-.642,24.768,24.768,0,0,0,1.766-2.718.4.4,0,1,1,.7.392,25.507,25.507,0,0,1-1.823,2.806.4.4,0,0,1-.322.162Zm3.894-7.679a.4.4,0,0,1-.385-.519,24.461,24.461,0,0,0,.738-3.157.4.4,0,0,1,.793.131,25.319,25.319,0,0,1-.763,3.26.4.4,0,0,1-.384.285ZM219,922.574a.4.4,0,0,1-.4-.381,24.887,24.887,0,0,0-.383-3.219.4.4,0,1,1,.79-.147,25.631,25.631,0,0,1,.4,3.324.4.4,0,0,1-.38.422H219Z" transform="translate(-168.809 -714.797)" fill="#91b3fa"/>
  <path id="Path_334" data-name="Path 334" d="M165.964,1029.78a.4.4,0,0,1-.129-.021c-.514-.175-1.028-.368-1.528-.575a.4.4,0,1,1,.307-.742c.484.2.981.387,1.479.557a.4.4,0,0,1-.129.782Z" transform="translate(-148.713 -797.084)" fill="#91b3fa"/>
  <path id="Path_335" data-name="Path 335" d="M136.432,896.8a.3.3,0,0,0,.348,0l2.979-2.1a15.883,15.883,0,0,0,5.006,1.183l1.724,3.209a.3.3,0,0,0,.312.154l4.316-.7a.3.3,0,0,0,.247-.245l.62-3.589a15.876,15.876,0,0,0,4.375-2.706l3.49,1.051a.3.3,0,0,0,.329-.112l2.556-3.547a.3.3,0,0,0,0-.348l-2.1-2.979a15.88,15.88,0,0,0,1.183-5.006l3.209-1.724a.3.3,0,0,0,.154-.312l-.7-4.316a.3.3,0,0,0-.245-.247l-3.589-.62a15.875,15.875,0,0,0-2.706-4.375l1.051-3.49a.3.3,0,0,0-.112-.329l-3.547-2.556a.3.3,0,0,0-.348,0l-2.979,2.1A15.877,15.877,0,0,0,147,864.014l-1.724-3.209a.3.3,0,0,0-.312-.154l-4.316.7a.3.3,0,0,0-.247.245l-.62,3.589a15.873,15.873,0,0,0-4.375,2.706l-3.49-1.051a.3.3,0,0,0-.329.112l-2.556,3.547a.3.3,0,0,0,0,.348l2.1,2.979a15.878,15.878,0,0,0-1.183,5.006l-3.209,1.724a.3.3,0,0,0-.154.311l.7,4.316a.3.3,0,0,0,.245.247l3.59.62a15.881,15.881,0,0,0,2.706,4.375l-1.051,3.49a.3.3,0,0,0,.112.329Z" transform="translate(-120.653 -671.485)" fill="#91b3fa"/>
  <path id="Path_336" data-name="Path 336" d="M190.033,928.578a4.484,4.484,0,1,1,1.774-.368A4.484,4.484,0,0,1,190.033,928.578Zm-.011-7.764a3.28,3.28,0,1,0,1.306,6.29h0a3.28,3.28,0,0,0-1.306-6.29Z" transform="translate(-164.797 -715.629)" fill="#bdd0fb"/>
  <path id="Path_337" data-name="Path 337" d="M170.361,915.165q-.285,0-.569-.015l.062-1.2a10,10,0,0,0,2.115-.117h0a9.953,9.953,0,0,0,8.356-9.8,10.1,10.1,0,0,0-.131-1.614,9.947,9.947,0,1,0-17.428,8l-.921.778a11.137,11.137,0,1,1,8.515,3.967Z" transform="translate(-145.098 -695.625)" fill="#bdd0fb"/>
  <path id="Path_338" data-name="Path 338" d="M231.687,826.114a.4.4,0,0,1-.344-.193c-.281-.462-.556-.933-.817-1.4a.4.4,0,0,1,.7-.391c.256.459.525.921.8,1.374a.4.4,0,0,1-.343.611Z" transform="translate(-198.436 -643.991)" fill="#91b3fa"/>
  <path id="Path_339" data-name="Path 339" d="M212.883,634.859a.4.4,0,0,1-.373-.253c-.406-1.015-.778-2.061-1.1-3.109a.4.4,0,1,1,.767-.239c.321,1.028.685,2.053,1.084,3.049a.4.4,0,0,1-.373.551Zm-2.353-8.236a.4.4,0,0,1-.4-.331c-.193-1.081-.346-2.18-.454-3.268a.4.4,0,1,1,.8-.08c.107,1.068.256,2.146.446,3.206a.4.4,0,0,1-.325.466.407.407,0,0,1-.071.006Zm-.639-8.541h-.011a.4.4,0,0,1-.39-.413c.031-1.095.105-2.2.222-3.291a.4.4,0,0,1,.8.085c-.114,1.068-.188,2.154-.218,3.228a.4.4,0,0,1-.4.391Zm1.123-8.492a.406.406,0,0,1-.094-.011.4.4,0,0,1-.3-.484c.255-1.065.555-2.133.893-3.176a.4.4,0,0,1,.764.248c-.332,1.023-.626,2.072-.876,3.116a.4.4,0,0,1-.39.308Zm2.838-8.082a.4.4,0,0,1-.363-.573c.467-.991.979-1.975,1.522-2.927a.4.4,0,0,1,.7.4c-.532.934-1.035,1.9-1.492,2.872a.4.4,0,0,1-.364.231Zm4.422-7.334a.4.4,0,0,1-.321-.643c.658-.876,1.359-1.737,2.083-2.558a.4.4,0,1,1,.6.531c-.71.805-1.4,1.65-2.043,2.509A.4.4,0,0,1,218.274,594.174Zm5.817-6.283a.4.4,0,0,1-.266-.7c.822-.723,1.683-1.423,2.56-2.08a.4.4,0,1,1,.482.643c-.86.644-1.7,1.331-2.511,2.04a.4.4,0,0,1-.265.1Zm6.973-4.963a.4.4,0,0,1-.2-.751c.953-.539,1.939-1.048,2.932-1.511a.4.4,0,0,1,.34.728c-.974.454-1.941.953-2.876,1.482a.4.4,0,0,1-.2.052Zm7.846-3.428a.4.4,0,0,1-.122-.785c1.042-.333,2.112-.629,3.179-.88a.4.4,0,0,1,.184.782c-1.047.246-2.1.537-3.118.863a.405.405,0,0,1-.122.019Zm20.182-1.335a.4.4,0,0,1-.072-.006c-1.058-.191-2.136-.343-3.2-.45a.4.4,0,1,1,.08-.8c1.089.11,2.189.264,3.267.459a.4.4,0,0,1-.071.8Zm-11.8-.428a.4.4,0,0,1-.042-.8c1.09-.116,2.2-.19,3.292-.221a.4.4,0,0,1,.413.39.4.4,0,0,1-.39.413c-1.074.03-2.16.1-3.229.217l-.043,0Z" transform="translate(-182.725 -458.915)" fill="#91b3fa"/>
  <path id="Path_340" data-name="Path 340" d="M427.772,585.716a.4.4,0,0,1-.136-.024c-.491-.177-1-.349-1.506-.51a.4.4,0,0,1,.243-.766c.519.165,1.036.34,1.536.52a.4.4,0,0,1-.136.78Z" transform="translate(-344.706 -464.666)" fill="#91b3fa"/>
  <path id="Path_341" data-name="Path 341" d="M525.574,670.954a.4.4,0,0,1-.367-.237c-.216-.48-.446-.964-.682-1.438a.4.4,0,1,1,.719-.358c.24.483.474.976.695,1.466a.4.4,0,0,1-.366.567Z" transform="translate(-418.551 -527.78)" fill="#91b3fa"/>
  <path id="Path_342" data-name="Path 342" d="M348,748.827q-.509,0-1.016-.012a.4.4,0,0,1-.392-.411.41.41,0,0,1,.411-.392c1.054.025,2.125.01,3.184-.046a.4.4,0,0,1,.043.8C349.494,748.807,348.744,748.827,348,748.827Zm-6.209-.467a.4.4,0,0,1-.061,0c-1.065-.161-2.138-.367-3.189-.61a.4.4,0,1,1,.182-.783c1.031.239,2.083.44,3.128.6a.4.4,0,0,1-.06.8Zm13.605-.192a.4.4,0,0,1-.071-.8q.325-.058.649-.121c.826-.161,1.654-.349,2.463-.558a.4.4,0,0,1,.2.778c-.824.213-1.668.4-2.509.569q-.331.064-.661.124a.4.4,0,0,1-.072.007Zm8.106-2.3a.4.4,0,0,1-.148-.776c.984-.39,1.963-.824,2.911-1.288a.4.4,0,1,1,.353.722c-.966.473-1.965.915-2.968,1.313A.4.4,0,0,1,363.507,745.863Zm7.476-3.887a.4.4,0,0,1-.221-.738c.883-.58,1.755-1.2,2.59-1.849a.4.4,0,1,1,.492.636c-.852.659-1.74,1.294-2.641,1.885A.4.4,0,0,1,370.983,741.976Zm6.535-5.313a.4.4,0,0,1-.284-.686c.748-.745,1.478-1.53,2.167-2.332a.4.4,0,0,1,.609.524c-.7.817-1.447,1.617-2.209,2.377a.4.4,0,0,1-.284.117Zm5.34-6.517a.4.4,0,0,1-.334-.624c.584-.879,1.142-1.794,1.658-2.718a.4.4,0,0,1,.7.392c-.527.942-1.1,1.874-1.691,2.771A.4.4,0,0,1,382.858,730.146Zm3.934-7.453a.4.4,0,0,1-.372-.553c.4-.98.761-1.987,1.081-3a.4.4,0,1,1,.766.244c-.327,1.027-.7,2.055-1.1,3.053a.4.4,0,0,1-.372.251Zm2.36-8.092a.409.409,0,0,1-.073-.007.4.4,0,0,1-.322-.468c.192-1.04.345-2.1.455-3.152a.4.4,0,0,1,.8.084c-.113,1.072-.269,2.153-.464,3.214a.4.4,0,0,1-.395.329Zm.676-8.4a.4.4,0,0,1-.4-.393c-.022-1.054-.086-2.124-.19-3.179a.4.4,0,0,1,.8-.079c.106,1.075.171,2.166.194,3.241a.4.4,0,0,1-.393.41Zm-1.025-8.366a.4.4,0,0,1-.392-.314c-.233-1.033-.508-2.068-.818-3.078a.4.4,0,0,1,.768-.236c.316,1.029.6,2.084.833,3.137a.4.4,0,0,1-.392.49Z" transform="translate(-279.112 -546.662)" fill="#91b3fa"/>
  <path id="Path_343" data-name="Path 343" d="M314.19,898a.4.4,0,0,1-.139-.025c-.5-.186-1.012-.385-1.51-.591a.4.4,0,1,1,.307-.742c.489.2.987.4,1.481.58a.4.4,0,0,1-.139.779Z" transform="translate(-259.69 -698.408)" fill="#91b3fa"/>
  <path id="Path_344" data-name="Path 344" d="M264.955,675.16a.5.5,0,0,0,.582,0l4.988-3.518a26.584,26.584,0,0,0,8.383,1.982L281.794,679a.5.5,0,0,0,.522.258l7.226-1.173a.5.5,0,0,0,.414-.41l1.039-6.01a26.581,26.581,0,0,0,7.326-4.531l5.844,1.759a.5.5,0,0,0,.551-.187l4.28-5.939a.5.5,0,0,0,0-.582l-3.518-4.987a26.587,26.587,0,0,0,1.981-8.383l5.373-2.887a.5.5,0,0,0,.258-.522l-1.173-7.226a.5.5,0,0,0-.41-.414l-6.01-1.039a26.585,26.585,0,0,0-4.531-7.325l1.759-5.844a.5.5,0,0,0-.187-.551l-5.939-4.28a.5.5,0,0,0-.582,0l-4.988,3.518a26.582,26.582,0,0,0-8.383-1.982l-2.887-5.373a.5.5,0,0,0-.522-.258l-7.226,1.173a.5.5,0,0,0-.414.41l-1.039,6.01a26.583,26.583,0,0,0-7.325,4.531l-5.844-1.759a.5.5,0,0,0-.551.187l-4.28,5.939a.5.5,0,0,0,0,.582l3.518,4.988a26.582,26.582,0,0,0-1.981,8.383l-5.373,2.886a.5.5,0,0,0-.258.522l1.173,7.226a.5.5,0,0,0,.41.414l6.01,1.039a26.589,26.589,0,0,0,4.531,7.325l-1.759,5.844a.5.5,0,0,0,.187.551Z" transform="translate(-211.9 -487.295)" fill="#91b3fa"/>
  <path id="Path_345" data-name="Path 345" d="M355.913,729.17a7.1,7.1,0,1,1,2.81-.583h0A7.064,7.064,0,0,1,355.913,729.17Zm2.57-1.137ZM355.9,716.166a5.9,5.9,0,1,0,2.342,11.314h0a5.9,5.9,0,0,0-2.342-11.314Z" transform="translate(-287.023 -562.418)" fill="#bdd0fb"/>
  <path id="Path_346" data-name="Path 346" d="M322.924,706.528h0q-.466,0-.931-.024l.062-1.2a17.18,17.18,0,0,0,3.628-.2h0a17.059,17.059,0,1,0-19.8-16.877,17.281,17.281,0,0,0,.224,2.769,17.04,17.04,0,0,0,3.791,8.26l-.921.777a18.245,18.245,0,0,1-4.059-8.844,18.526,18.526,0,0,1-.24-2.965,18.258,18.258,0,1,1,18.247,18.308Z" transform="translate(-253.989 -528.742)" fill="#bdd0fb"/>
  <path id="Path_347" data-name="Path 347" d="M332.042,1083.393l-40.349,5.029-5.41-43.409a4.145,4.145,0,0,1,3.6-4.626l32.123-4a4.145,4.145,0,0,1,4.626,3.6Z" transform="translate(-240.193 -803.029)" fill="url(#linear-gradient-23)"/>
  <path id="Path_348" data-name="Path 348" d="M290.027,1052.244l-.143.018a4.145,4.145,0,0,0-3.6,4.626l5.187,41.616,8.369-1.043-5.187-41.617A4.144,4.144,0,0,0,290.027,1052.244Z" transform="translate(-240.194 -814.903)" fill="url(#linear-gradient-24)"/>
  <rect id="Rectangle_326" data-name="Rectangle 326" width="3.769" height="40.759" transform="translate(90.011 307.611)" fill="url(#linear-gradient-25)"/>
  <path id="Path_349" data-name="Path 349" d="M402.959,1489.922h33.01v-1.885a.568.568,0,0,0-.568-.568H403.571a.612.612,0,0,0-.612.612Z" transform="translate(-327.569 -1140.766)" fill="url(#linear-gradient-26)"/>
  <path id="Path_350" data-name="Path 350" d="M279.429,1185.3h35.494a4.307,4.307,0,0,1,4.307,4.308v3.895a4.308,4.308,0,0,1-4.308,4.308H279.429a4.308,4.308,0,0,1-4.307-4.308v-3.895A4.307,4.307,0,0,1,279.429,1185.3Z" transform="translate(-205.974 -887.395)" fill="url(#linear-gradient-27)"/>
  <path id="Path_351" data-name="Path 351" d="M540.162,1439.5l-1.76,5.087a1.768,1.768,0,0,0,.687,2.076,4.619,4.619,0,0,0,1.456.564,2.06,2.06,0,0,0,2.278-1.034l2.1-3.964Z" transform="translate(-428.892 -1104.853)" fill="url(#linear-gradient-28)"/>
  <path id="Path_352" data-name="Path 352" d="M463.567,1257.31s22.105,3.831,31.588,12.591-8.7,36.7-8.7,36.7-2.98-.019-6.59-3.113c0,0,10.783-21.015,1.49-27.143a59.858,59.858,0,0,0-22.488-8.441l4.49-9.919Z" transform="translate(-369.423 -968.454)" fill="url(#linear-gradient-29)"/>
  <path id="Path_353" data-name="Path 353" d="M519.244,1467.272c.026.652,1.359,2.889,2.138,4.144a2.031,2.031,0,0,0,1.721.963,5.22,5.22,0,0,0,1.422-.171,1.318,1.318,0,0,0,.885-1.64l-1.522-5.2Z" transform="translate(-414.628 -1124.22)" fill="url(#linear-gradient-30)"/>
  <path id="Path_354" data-name="Path 354" d="M386.417,1230.91s-4.909,13.127,0,17.119,16.621,8.486,19.237,16.438,7.056,23.4,13,28.876c0,0,4.174-.4,5.737-2.068,0,0-3.384-23.068-5.616-28.987-1.933-5.126-4.78-12.525-10.237-16.66-1.562-1.184-1.29-3.059-.566-4.88l1.319-3.317Z" transform="translate(-313.551 -948.689)" fill="url(#linear-gradient-31)"/>
  <path id="Path_355" data-name="Path 355" d="M542.98,1150.718c-8.231.5-5.666-12.654-5.518-13.177l-12.493,8.824s.661,7.032,11.048,10.721a12.909,12.909,0,0,0,7.153.518A11.366,11.366,0,0,1,542.98,1150.718Z" transform="translate(-418.914 -878.786)" fill="url(#linear-gradient-32)"/>
  <path id="Path_356" data-name="Path 356" d="M611.227,1171.405c-3.067-2.134-6.542,0-6.542,0-4.1,2.682-7.136,3.823-9.374,3.958a11.367,11.367,0,0,0,.19,6.887c4.595-.988,7.882-4.313,9.31-6.019a1.483,1.483,0,0,1,2.054-.225c.639.5,1.259,1.195,1.147,1.922-.222,1.433,1.442,1.889,1.567,1.369a21.441,21.441,0,0,0-.569-3.6s3.327,3.345,4.625,4.63,2.932,0,2.932,0S614.295,1173.539,611.227,1171.405Z" transform="translate(-471.245 -903.43)" fill="url(#linear-gradient-33)"/>
  <path id="Path_357" data-name="Path 357" d="M404.012,1055.063s11.975-4.795,34.262,13.6c0,0,1.862,3.854-.169,7.283s-21.38,20.141-24.04,29.408c0,0-11.528,3.746-23.449-5.137C390.615,1100.223,391.667,1074.431,404.012,1055.063Z" transform="translate(-318.327 -816.617)" fill="url(#linear-gradient-34)"/>
  <path id="Path_358" data-name="Path 358" d="M518.934,1039.72l-5.9,7.146a2.347,2.347,0,0,0-.309,2.523c.818,1.669,2.76,4.1,7.066,3.763a3.618,3.618,0,0,0,2.975-2.029l4.122-8.521Z" transform="translate(-409.575 -805.551)" fill="url(#linear-gradient-35)"/>
  <path id="Path_359" data-name="Path 359" d="M363.391,1087.348c-1.39-5.662,12.691-18.284,12.691-18.284l-3.419-12.323s-30.406,20.242-22.658,36.519a11.853,11.853,0,0,0,4.3,5.061C356.75,1091.731,360.651,1088.707,363.391,1087.348Z" transform="translate(-286.977 -818.294)" fill="url(#linear-gradient-36)"/>
  <path id="Path_360" data-name="Path 360" d="M405.72,1118.794a.333.333,0,0,1-.323-.253c-1.422-5.789,12.211-18.09,12.792-18.611a.333.333,0,0,1,.444.5c-.14.125-13.918,12.553-12.59,17.957a.333.333,0,0,1-.324.412Z" transform="translate(-329.317 -850.565)" fill="url(#linear-gradient-37)"/>
  <path id="Path_361" data-name="Path 361" d="M401.284,1175.789s-16.7,6.482-20.77,1.606a2.738,2.738,0,0,1-.558-1.119c-2.739,1.36-6.641,4.382-9.089,10.973,8.781,5.611,23.789-3.121,27.848-5.7a3.03,3.03,0,0,1,2.243-.411,20.711,20.711,0,0,0,5.727.577c2.134-.329,5.2,7.2,8.656,4.876C415.34,1186.6,412.378,1173.514,401.284,1175.789Z" transform="translate(-303.542 -907.222)" fill="url(#linear-gradient-38)"/>
  <path id="Path_362" data-name="Path 362" d="M556.03,992.723c.059.23-1.382,15.852-1.382,15.852l-8.9-1.012-.834-15.01S555.037,988.876,556.03,992.723Z" transform="translate(-433.844 -769.052)" fill="url(#linear-gradient-39)"/>
  <path id="Path_363" data-name="Path 363" d="M530.086,979.3l-.18,7.936a1.1,1.1,0,0,0,.034.3c.155.6.84,2.641,2.882,1.813,1.853-.751,3.554-1.41,4.806-1.172a1.107,1.107,0,0,1,.9,1.191,47.938,47.938,0,0,1-1.218,7.339,1.106,1.106,0,0,1-1.263.8,35.723,35.723,0,0,1-8-2.293,1.109,1.109,0,0,1-.646-.933c-.133-1.984-.561-8.012-.94-9.673-.356-1.559-2.4-2.293-3.277-2.54a1.089,1.089,0,0,1-.669-.539c-.5-.934-1.283-3.137,1.465-4.376a1.11,1.11,0,0,0,.542-1.5,2.879,2.879,0,0,1,1.17-4.132,4.062,4.062,0,0,1,4.945.632,1.11,1.11,0,0,0,1.423.012.877.877,0,0,1,1-.075,1.092,1.092,0,0,0,1.486-.635,3.311,3.311,0,0,1,3.615-2.325c3.966.239,4.88,4.5,4.131,7.145s-5.034,2.136-7.271,1.092c-1.7-.794-3.657.449-4.5,1.09A1.1,1.1,0,0,0,530.086,979.3Z" transform="translate(-416.7 -752.692)" fill="url(#linear-gradient-40)"/>
  <path id="Path_364" data-name="Path 364" d="M527.353,1024.605s1.108-4.657-.656-5.574-4.137-.08-3.245,3.107C524.562,1026.1,527.353,1024.605,527.353,1024.605Z" transform="translate(-417.633 -789.801)" fill="url(#linear-gradient-41)"/>
  <path id="Path_365" data-name="Path 365" d="M521.485,1217.991l.081,0,35.029-.038a1.568,1.568,0,1,0,0-3.135l-35.029.038a1.568,1.568,0,0,0-.077,3.134Z" transform="translate(-415.191 -936.642)" fill="url(#linear-gradient-42)"/>
  <path id="Path_366" data-name="Path 366" d="M648.852,1100.9H619.68a5.56,5.56,0,0,0-5.029,3.188l-13.486,28.6h36.253a3.379,3.379,0,0,0,3.143-2.137l10.458-26.462a2.33,2.33,0,0,0-2.167-3.186Z" transform="translate(-475.959 -851.355)" fill="url(#linear-gradient-43)"/>
  <path id="Path_367" data-name="Path 367" d="M708.29,1150.536c-.632,1.964-.165,3.871,1.043,4.26s2.7-.888,3.332-2.852.165-3.872-1.043-4.26S708.922,1148.571,708.29,1150.536Z" transform="translate(-555.949 -886.328)" fill="#91b3fa"/>
  <path id="Path_368" data-name="Path 368" d="M337.24,1176.524h19.534v-3.91H337.24C337.658,1172.615,337.658,1176.524,337.24,1176.524Z" transform="translate(-278.368 -905.044)" fill="#7d97f4"/>
  <path id="Path_369" data-name="Path 369" d="M355,1172.915v-1.789a1.032,1.032,0,0,0-.862-1.142h-18.59a.678.678,0,0,1-.678-.678.206.206,0,0,1,.206-.206h20.317a1.649,1.649,0,0,1,1.206,1.636v2.5a1.569,1.569,0,0,1-1.157,1.543H335.182a.313.313,0,0,1-.313-.313.571.571,0,0,1,.571-.571h18.82A.885.885,0,0,0,355,1172.915Z" transform="translate(-276.593 -902.413)" fill="url(#linear-gradient-44)"/>
  <path id="Path_370" data-name="Path 370" d="M356.528,1174.662H338.212a.577.577,0,1,1,0-1.154h18.316a.577.577,0,1,1,0,1.154Z" transform="translate(-278.663 -905.714)" fill="#bdd0fb"/>
  <path id="Path_371" data-name="Path 371" d="M356.528,1176.972H338.212a.577.577,0,1,1,0-1.154h18.316a.577.577,0,0,1,0,1.154Z" transform="translate(-278.663 -907.444)" fill="#bdd0fb"/>
  <path id="Path_372" data-name="Path 372" d="M356.528,1179.282H338.212a.577.577,0,1,1,0-1.154h18.316a.577.577,0,0,1,0,1.154Z" transform="translate(-278.663 -909.173)" fill="#bdd0fb"/>
  <path id="Path_373" data-name="Path 373" d="M356.528,1181.592H338.212a.577.577,0,1,1,0-1.154h18.316a.577.577,0,0,1,0,1.154Z" transform="translate(-278.663 -910.902)" fill="#bdd0fb"/>
  <path id="Path_374" data-name="Path 374" d="M356.528,1183.9H338.212a.577.577,0,1,1,0-1.154h18.316a.577.577,0,0,1,0,1.154Z" transform="translate(-278.663 -912.632)" fill="#bdd0fb"/>
  <path id="Path_375" data-name="Path 375" d="M216.579,1083.46h33.834a.717.717,0,0,1,.717.717v7.08a.717.717,0,0,1-.717.717H216.579a.717.717,0,0,1-.717-.717v-7.08A.717.717,0,0,1,216.579,1083.46Z" transform="translate(-161.609 -811.151)" fill="#7d97f4"/>
  <path id="Path_376" data-name="Path 376" d="M337.447,1201.353h-3.029a.847.847,0,0,1-.846-.845v-5.442a.846.846,0,0,1,.846-.845h3.029a.846.846,0,0,1,.846.845v5.442a.847.847,0,0,1-.846.845Zm-3.029-6.556a.269.269,0,0,0-.269.269v5.442a.269.269,0,0,0,.269.268h3.029a.269.269,0,0,0,.269-.268v-5.442a.269.269,0,0,0-.269-.269Z" transform="translate(-275.622 -921.22)" fill="#bdd0fb"/>
  <path id="Path_377" data-name="Path 377" d="M353.872,1201.354h-.649a.743.743,0,0,1-.742-.742v-5.65a.742.742,0,0,1,.742-.742h.649a.742.742,0,0,1,.741.742v5.65A.743.743,0,0,1,353.872,1201.354Zm-.649-6.556a.165.165,0,0,0-.165.164v5.65a.165.165,0,0,0,.165.164h.649a.165.165,0,0,0,.165-.164v-5.65a.165.165,0,0,0-.165-.164Z" transform="translate(-289.778 -921.221)" fill="#bdd0fb"/>
  <path id="Path_378" data-name="Path 378" d="M242.9,1250.92V1314.9c0,1.109,1.167,1.8,2.276,1.8H386.039a1.593,1.593,0,0,0,1.7-1.8V1250.92Z" transform="translate(-207.741 -963.669)" fill="url(#linear-gradient-45)"/>
  <path id="Path_379" data-name="Path 379" d="M442.641,1250.92V1314.9a1.9,1.9,0,0,0,2.074,1.8h92.558V1250.92Z" transform="translate(-357.278 -963.669)" fill="url(#linear-gradient-46)"/>
  <path id="Path_380" data-name="Path 380" d="M240.051,1227.968a1.634,1.634,0,0,1,.307-1.285,1.422,1.422,0,0,1,1.123-.565H388.747a1.653,1.653,0,0,1,1.412.825,1.9,1.9,0,0,1,.11,1.715l-1.6,3.688a2.23,2.23,0,0,1-2.029,1.385H242.492a1.725,1.725,0,0,1-1.661-1.463Z" transform="translate(-205.586 -945.101)" fill="url(#linear-gradient-47)"/>
  <path id="Path_381" data-name="Path 381" d="M219.848,1225a2.09,2.09,0,0,0-1.547.668,1.89,1.89,0,0,0-.485,1.552l.539,3.376c.14.964,1.005,1.355,2.026,1.355h49.386l.075-7.139Z" transform="translate(-188.945 -944.12)" fill="url(#linear-gradient-48)"/>
  <rect id="Rectangle_327" data-name="Rectangle 327" width="2.906" height="31.426" transform="translate(470.824 315.45)" fill="#7d97f4"/>
  <path id="Path_382" data-name="Path 382" d="M1956.9,1484.929h-25.45v-1.071a.82.82,0,0,1,.82-.82h23.812a.82.82,0,0,1,.82.82Z" transform="translate(-1471.898 -1137.449)" fill="#7d97f4"/>
  <path id="Path_383" data-name="Path 383" d="M1820.542,1227.09h25.75a3.125,3.125,0,0,1,3.125,3.125v2.826a3.125,3.125,0,0,1-3.125,3.125h-25.75a3.125,3.125,0,0,1-3.125-3.125v-2.826A3.125,3.125,0,0,1,1820.542,1227.09Z" transform="translate(-1360.638 -918.682)" fill="#7d97f4"/>
  <path id="Path_384" data-name="Path 384" d="M1866.161,1279.75a25.292,25.292,0,0,0-9.173,3.915,2.42,2.42,0,0,0-1.068,2.313,102.6,102.6,0,0,0,10.853,34.066,3.666,3.666,0,0,1,.352,2.515l-1.369,6.373-2.54,2.381h6.541l4.355-11.786-1.862-.589a3.523,3.523,0,0,1-2.461-3.3L1869.57,1303a14.385,14.385,0,0,0-3.454-9.519l10.446-.508Z" transform="translate(-1415.338 -985.254)" fill="url(#linear-gradient-49)"/>
  <path id="Path_385" data-name="Path 385" d="M1874.744,1449.1c-.6.779,6.411,1.808,9.952.1,0,0,4.907-8.538,4.907-12.934,0,0-.389-.9-3.271-.693,0,0-1.648,10.109-3.387,11.242s-4.868.115-4.868.115A10.212,10.212,0,0,0,1874.744,1449.1Z" transform="translate(-1429.418 -1101.896)" fill="url(#linear-gradient-50)"/>
  <path id="Path_386" data-name="Path 386" d="M1802.973,1298.492c-.056-.1-11.247-1.346-11.247-1.346a25.866,25.866,0,0,1-.779,8.087c-1.145,4.684-17.576,24.978-17.576,24.978l1.723,5.462a27.713,27.713,0,0,1-15.723.946l10.677-6.407s9.993-34.053,16.113-40.128l11.218-3.881Z" transform="translate(-1343.07 -990.085)" fill="url(#linear-gradient-51)"/>
  <path id="Path_387" data-name="Path 387" d="M1908.21,1256.27s6.448,9.59,6.977,13.965-1.766,6.152-8.531,6.445-24.826.288-24.826.288l-15.415-13.174s11.234-4.009,14.154-5.142S1908.21,1256.27,1908.21,1256.27Z" transform="translate(-1423.209 -967.675)" fill="url(#linear-gradient-52)"/>
  <path id="Path_388" data-name="Path 388" d="M1765.481,1475.72s1.855,1.8.6,3.8c0,0-14.693,2.6-18.683,1.423,0,0,.828-1.891,5.321-4.043l-.332.255a.537.537,0,0,0,.354.962C1755.7,1477.944,1761.831,1477.4,1765.481,1475.72Z" transform="translate(-1334.106 -1131.97)" fill="url(#linear-gradient-53)"/>
  <path id="Path_389" data-name="Path 389" d="M1923.64,1147.667a147.165,147.165,0,0,1-11.2-11.885,10.047,10.047,0,0,1-1.7-9.042c1.688-5.685,4.686-11.573,4.96-12.49.419-1.4,8.838-1.346,8.838-1.346s16.567,10.752,23.076,28.965l-7.31,2.276a85.4,85.4,0,0,0-8.6-11.871s7.4,9.77,7.656,13.769Z" transform="translate(-1456.076 -860.342)" fill="url(#linear-gradient-54)"/>
  <path id="Path_390" data-name="Path 390" d="M1927.67,1075.667c.088.292,2.285,7.577,2.457,7.728s4.819.4,7.006-1.094l-4.387-10.445Z" transform="translate(-1469.068 -829.611)" fill="url(#linear-gradient-55)"/>
  <path id="Path_391" data-name="Path 391" d="M1889.131,1055.169s-1.256,4.119,1.416,9.863,5.995,5.894,7.9,4.185a11.843,11.843,0,0,0,4-10.1C1902.168,1053.676,1890.913,1049.936,1889.131,1055.169Z" transform="translate(-1439.995 -815.237)" fill="url(#linear-gradient-56)"/>
  <path id="Path_392" data-name="Path 392" d="M1885.5,1040.961s-4.52-7.672-9.361-2.028l-.183,2.127s-5.318-.885-4.152-5.745a9.523,9.523,0,0,1,12.817-6.319c5.853,2.4,8.128,5.756,8.312,10.039s-3.166,3.189-3.166,3.189-.966-3.055-2.525-3.441-1.26,1.976-1.26,1.976Z" transform="translate(-1427.115 -796.973)" fill="url(#linear-gradient-57)"/>
  <path id="Path_393" data-name="Path 393" d="M1928.887,1065.484s-2.347-3.93.268-4.377,2.012,3.817,1.658,5.388Z" transform="translate(-1469.255 -821.538)" fill="url(#linear-gradient-58)"/>
  <path id="Path_394" data-name="Path 394" d="M1902.47,1234.477l5.517-5.317,7.632,3.224s7.6,1.177,11.944,0l4.348-1.177,9.825-3.059,1.543,4.361a2.625,2.625,0,0,1-.959,3.017,17.337,17.337,0,0,1-2.481,1.546c-1.294.566-31.895-.392-31.895-.392Z" transform="translate(-1450.202 -946.621)" fill="url(#linear-gradient-59)"/>
  <path id="Path_395" data-name="Path 395" d="M1919.4,1009.647a1.7,1.7,0,0,1-1.527-2.6c2.271-3.782,7.063-8.439,16.015-4.6,10.084,4.322,15.43,6.118,17.484,5.1a1.709,1.709,0,0,1,2.469,1.939,7.249,7.249,0,0,1-2.795,3.6C1938.035,1023.146,1927.389,1009.014,1919.4,1009.647Z" transform="translate(-1461.544 -776.572)" fill="url(#linear-gradient-60)"/>
  <path id="Path_396" data-name="Path 396" d="M1885.736,1254.668l-.073,0-32-.035a1.432,1.432,0,0,1,0-2.865l32,.035a1.432,1.432,0,0,1,.07,2.863Z" transform="translate(-1412.59 -964.306)" fill="url(#linear-gradient-61)"/>
  <path id="Path_397" data-name="Path 397" d="M1737.12,1147.7h26.65a5.079,5.079,0,0,1,4.594,2.913l12.32,26.125h-33.119a3.087,3.087,0,0,1-2.871-1.952l-9.554-24.175a2.128,2.128,0,0,1,1.979-2.91Z" transform="translate(-1324.816 -886.392)" fill="url(#linear-gradient-62)"/>
  <path id="Path_398" data-name="Path 398" d="M1805.486,1193.049c.577,1.794.151,3.537-.953,3.892s-2.467-.811-3.044-2.605-.151-3.537.953-3.892S1804.911,1191.254,1805.486,1193.049Z" transform="translate(-1374.408 -918.345)" fill="#7d97f4"/>
  <path id="Path_399" data-name="Path 399" d="M1757.326,1263.562a1.183,1.183,0,0,0-.278-1.023,1.357,1.357,0,0,0-1.019-.45H1622.493a1.549,1.549,0,0,0-1.281.657,1.348,1.348,0,0,0-.1,1.365l1.447,2.936a2.039,2.039,0,0,0,1.84,1.1h130.715a1.512,1.512,0,0,0,1.506-1.165Z" transform="translate(-1239.455 -972.031)" fill="url(#linear-gradient-63)"/>
  <path id="Path_400" data-name="Path 400" d="M1653.307,1332.877a1.147,1.147,0,0,1-.463-.1,1.21,1.21,0,0,1-.613-1.575l24.578-58.458a1.162,1.162,0,0,1,1.54-.628,1.209,1.209,0,0,1,.613,1.575l-24.578,58.458A1.171,1.171,0,0,1,1653.307,1332.877Z" transform="translate(-1262.784 -979.468)" fill="url(#linear-gradient-64)"/>
  <path id="Path_401" data-name="Path 401" d="M1690.252,1332.878a1.172,1.172,0,0,1-1.077-.726L1664.6,1273.7a1.209,1.209,0,0,1,.614-1.575,1.162,1.162,0,0,1,1.54.627l24.578,58.458a1.21,1.21,0,0,1-.613,1.575A1.144,1.144,0,0,1,1690.252,1332.878Z" transform="translate(-1272.042 -979.469)" fill="url(#linear-gradient-64)"/>
  <path id="Path_402" data-name="Path 402" d="M2038.387,1332.877a1.149,1.149,0,0,1-.463-.1,1.21,1.21,0,0,1-.613-1.575l24.578-58.458a1.163,1.163,0,0,1,1.54-.628,1.21,1.21,0,0,1,.614,1.575l-24.578,58.458A1.172,1.172,0,0,1,2038.387,1332.877Z" transform="translate(-1551.08 -979.468)" fill="url(#linear-gradient-64)"/>
  <path id="Path_403" data-name="Path 403" d="M2075.332,1332.878a1.171,1.171,0,0,1-1.077-.726l-24.578-58.458a1.21,1.21,0,0,1,.613-1.575,1.163,1.163,0,0,1,1.54.627l24.577,58.458a1.21,1.21,0,0,1-.614,1.575A1.142,1.142,0,0,1,2075.332,1332.878Z" transform="translate(-1560.339 -979.469)" fill="url(#linear-gradient-64)"/>
  <path id="Path_404" data-name="Path 404" d="M999.422,1153.4l22.951,5.642,23.759,1.355,29.763-7-38.235,19.34Z" transform="translate(-748.233 -863.513)" fill="url(#linear-gradient-68)"/>
  <path id="Path_405" data-name="Path 405" d="M1152.1,1105.082a20.887,20.887,0,0,1,6.348-2.953c.853-.232,5.457,1.106,8.3,1.041,3.907-.09,7.883-1.868,11.1-1.065a23.234,23.234,0,0,1,7.328,2.914c4.525,3.218,7.181,9.219,8.8,15.163a20.72,20.72,0,0,1-6.923,4.545l-4,26.175c-9.424,4.728-18.915,4.119-28.458-.66l-4.141-25.906s-6.192-2.883-6.646-3.932S1146.632,1108.837,1152.1,1105.082Z" transform="translate(-882.188 -852.101)" fill="url(#linear-gradient-69)"/>
  <path id="Path_406" data-name="Path 406" d="M1136.352,1337.217c4.31-.852,14.2-.019,14.2-.019l.376,1.1.532,5.444s-9.476,1.411-14.125,1.264a4.388,4.388,0,0,1-1.3-.235c-.139-.132-.274-.268-.4-.415A5.109,5.109,0,0,1,1136.352,1337.217Z" transform="translate(-875.239 -1027.99)" fill="url(#linear-gradient-70)"/>
  <path id="Path_407" data-name="Path 407" d="M1194.884,1337.42l-1.679.02a3.21,3.21,0,0,0-2.387,1.146,3.958,3.958,0,0,0-.932,2.693,3.151,3.151,0,0,0,.856,2.1,2.557,2.557,0,0,0,1.944.806l2.571-.1Z" transform="translate(-916.712 -1028.429)" fill="url(#linear-gradient-71)"/>
  <path id="Path_408" data-name="Path 408" d="M1263.073,1260.169c-1.944-4.475-6.7-5.2-10.747-3.109-.07.093-25.7,13.23-48.31,18.988a24.569,24.569,0,0,1,1.052,6.452q.02.725-.023,1.431c17.335-.891,36.149-6.672,52.316-11.752A8.938,8.938,0,0,0,1263.073,1260.169Z" transform="translate(-927.293 -967.427)" fill="url(#linear-gradient-72)"/>
  <path id="Path_409" data-name="Path 409" d="M1297.093,1338.661c-4.287-.984-14.2-.455-14.2-.455l-.4,1.091-.667,5.425s9.437,1.7,14.089,1.7a4.375,4.375,0,0,0,1.305-.2c.142-.127.28-.259.411-.4A5.11,5.11,0,0,0,1297.093,1338.661Z" transform="translate(-985.547 -1028.911)" fill="url(#linear-gradient-73)"/>
  <path id="Path_410" data-name="Path 410" d="M1273.155,1337.41l1.678.072a3.229,3.229,0,0,1,2.357,1.219,3.975,3.975,0,0,1,.865,2.72,3.131,3.131,0,0,1-.908,2.07,2.54,2.54,0,0,1-1.963.746l-2.567-.183Z" transform="translate(-978.652 -1028.422)" fill="url(#linear-gradient-74)"/>
  <path id="Path_411" data-name="Path 411" d="M1111.265,1281.017a14.9,14.9,0,0,1,1.459-6.985c.03-.1.065-.193.1-.291-1.291-.4-2.958-.942-5.149-1.685a247.1,247.1,0,0,1-39.986-17.426c-4.54-2.481-9.7-.818-11.156,4.554-1.3,4.8,1.552,8.891,5.876,10.33,12.938,4.305,35.895,11.174,48.886,12.047C1111.282,1281.382,1111.272,1281.2,1111.265,1281.017Z" transform="translate(-816.638 -965.605)" fill="url(#linear-gradient-75)"/>
  <path id="Path_412" data-name="Path 412" d="M1202.15,1080.683a9.9,9.9,0,0,0,10.108,7.326c8.537-.155,9.3-7.351,9.3-7.351l-5.577-1.193-.466-6.214-8.388.621-.155,5.9Z" transform="translate(-925.896 -830.655)" fill="url(#linear-gradient-76)"/>
  <path id="Path_413" data-name="Path 413" d="M1047.861,1239.324a6.486,6.486,0,0,1-2.6-.223c-.948-.409-4.68-.756-5.469-1.87,0,0-.912,1.438.41,1.976s3.343,1.482,1.9,2.746-2.08.207-1.992-1.27-.3-1.377-1.021-1.573c0,0-1.616,2.426.4,3.871,0,0-5.525-.975-5.194,1.231l5.183.021s-5.335,1.153-4.1,3.181l4.642-1.573s-2.854,1-2.245,2.4c0,0,8.85-4.566,10.481-4.927S1047.861,1239.324,1047.861,1239.324Z" transform="translate(-800.219 -953.421)" fill="url(#linear-gradient-77)"/>
  <path id="Path_414" data-name="Path 414" d="M1103.1,1173.834s-6.42,14.191-14.79,17.848l.391,3.985s12.42-.455,21.288-17.8C1109.993,1177.873,1107.615,1172.408,1103.1,1173.834Z" transform="translate(-840.671 -905.78)" fill="url(#linear-gradient-78)"/>
  <path id="Path_415" data-name="Path 415" d="M1396.513,1239.324a6.485,6.485,0,0,0,2.6-.223c.948-.409,4.68-.756,5.469-1.87,0,0,.912,1.438-.41,1.976s-3.342,1.482-1.9,2.746,2.08.207,1.992-1.27.3-1.377,1.021-1.573c0,0,1.616,2.426-.4,3.871,0,0,5.525-.975,5.194,1.231l-5.183.021s5.335,1.153,4.1,3.181l-4.642-1.573s2.855,1,2.245,2.4c0,0-8.85-4.566-10.481-4.927S1396.513,1239.324,1396.513,1239.324Z" transform="translate(-1070.641 -953.421)" fill="url(#linear-gradient-79)"/>
  <path id="Path_416" data-name="Path 416" d="M1320.2,1173.834s6.42,14.191,14.79,17.848l-.39,3.985s-12.42-.455-21.288-17.8C1313.311,1177.873,1315.686,1172.408,1320.2,1173.834Z" transform="translate(-1009.119 -905.78)" fill="url(#linear-gradient-80)"/>
  <path id="Path_417" data-name="Path 417" d="M1213.422,1019s-3.685,15.125,5.684,17.506c6.608,1.679,8.98-10.986,7.38-14.126-2.475-4.856-3.594-4.1-3.594-4.1Z" transform="translate(-933.8 -789.471)" fill="url(#linear-gradient-81)"/>
  <path id="Path_418" data-name="Path 418" d="M1266.47,1044.931s.45-2.956,1.892-2.453.229,4.271-1.731,4.581Z" transform="translate(-974.05 -807.573)" fill="url(#linear-gradient-82)"/>
  <path id="Path_419" data-name="Path 419" d="M1207.406,1047.1l-.236-2.009s-.589-2.761-1.865-2.374S1204.7,1047.588,1207.406,1047.1Z" transform="translate(-927.792 -807.77)" fill="url(#linear-gradient-83)"/>
  <path id="Path_420" data-name="Path 420" d="M1206.557,1007.688a.359.359,0,0,0,.693-.11c.115-2.3.6-5.8,2.549-4.259a6.186,6.186,0,0,0,7.168.321,1.73,1.73,0,0,1,2.519.739,12.287,12.287,0,0,1,.674,3.256.452.452,0,0,0,.861.143l.3-.667a.116.116,0,0,0,.01-.048v-.9a.115.115,0,0,1,.1-.114c.312-.05,1.226-.3.638-1.46a.119.119,0,0,1,.042-.154c.228-.141.737-.618.19-1.868a.111.111,0,0,1,.035-.137,3.3,3.3,0,0,0,1.209-4.307c-1.188-2.369-2.859-1.508-3.283-1.238a.109.109,0,0,1-.157-.039,1.745,1.745,0,0,0-2.3-.9,1.751,1.751,0,0,1-1.565-.169,1.668,1.668,0,0,0-2.047-.074,1.7,1.7,0,0,1-2.057-.024c-.819-.666-2.132-1.126-3.961.038-2.946,1.876-2.421,4.38-2.239,4.988a.112.112,0,0,1-.1.144,1.189,1.189,0,0,0-1.09,1.29,8.853,8.853,0,0,0,1.225,3.506.1.1,0,0,1,.01.025l.564,2A.028.028,0,0,1,1206.557,1007.688Z" transform="translate(-927.846 -772.076)" fill="url(#linear-gradient-84)"/>
  <path id="Path_421" data-name="Path 421" d="M1617.734,733.258a2.019,2.019,0,0,1-1.428-3.447l44.609-44.609a2.02,2.02,0,0,1,2.856,2.856l-44.61,44.609A2.014,2.014,0,0,1,1617.734,733.258Z" transform="translate(-1235.518 -539.693)" fill="url(#linear-gradient-3)"/>
  <path id="Path_422" data-name="Path 422" d="M1622.324,806.724a2.019,2.019,0,0,1-1.428-3.447l44.609-44.609a2.019,2.019,0,1,1,2.856,2.856l-44.61,44.609A2.014,2.014,0,0,1,1622.324,806.724Z" transform="translate(-1238.954 -594.694)" fill="url(#linear-gradient-3)"/>
  <g id="Group_537" data-name="Group 537" transform="translate(265.945 140.878)" opacity="0.7">
    <path id="Path_423" data-name="Path 423" d="M1163.154,717.187a2.02,2.02,0,0,1-1.428-3.447l44.609-44.609a2.02,2.02,0,1,1,2.856,2.856l-44.61,44.609A2.014,2.014,0,0,1,1163.154,717.187Z" transform="translate(-1161.134 -668.539)" fill="url(#linear-gradient-3)"/>
  </g>
  <path id="Path_424" data-name="Path 424" d="M676.438,884.782a2.02,2.02,0,0,1-1.428-3.448l44.609-44.608a2.02,2.02,0,0,1,2.856,2.856l-44.609,44.609A2.015,2.015,0,0,1,676.438,884.782Z" transform="translate(-530.802 -653.134)" fill="url(#linear-gradient-3)"/>
  <path id="Path_425" data-name="Path 425" d="M681.03,958.25A2.02,2.02,0,0,1,679.6,954.8l44.609-44.609a2.02,2.02,0,0,1,2.856,2.856l-44.609,44.61a2.014,2.014,0,0,1-1.428.591Z" transform="translate(-534.239 -708.136)" fill="url(#linear-gradient-3)"/>
  <path id="Path_426" data-name="Path 426" d="M230.659,1448.13l.418,13a4.229,4.229,0,0,0,4.211,4.083l31.122.183a3.051,3.051,0,0,0,3.042-2.6,57.081,57.081,0,0,0,.409-14.667Z" transform="translate(-198.574 -1111.314)" fill="url(#linear-gradient-90)"/>
  <path id="Path_427" data-name="Path 427" d="M267.352,1463.988h0l-1.731-.01a.288.288,0,0,1-.287-.29.308.308,0,0,1,.29-.287l1.731.01a.289.289,0,1,1,0,.577Zm-5.77-.034h0l-1.731-.01a.289.289,0,0,1,0-.577h0l1.731.01a.289.289,0,0,1,0,.577Zm-5.77-.034h0l-1.731-.01a.288.288,0,1,1,0-.577h0l1.731.01a.289.289,0,1,1,0,.577Zm-5.77-.034h0l-1.732-.01a.289.289,0,1,1,0-.577h0l1.731.01a.289.289,0,0,1,0,.577Zm-5.77-.034h0l-1.732-.011a.289.289,0,0,1,0-.577l1.731.011a.289.289,0,0,1,0,.577Zm-5.77-.034h0l-.5,0a4.361,4.361,0,0,1-1.3-.206.289.289,0,0,1,.176-.55,3.765,3.765,0,0,0,1.128.179l.5,0a.289.289,0,1,1,0,.577Zm31.936-1.924a.284.284,0,0,1-.08-.011.288.288,0,0,1-.2-.357,2.618,2.618,0,0,0,.073-.337c.06-.4.122-.849.183-1.33a.289.289,0,1,1,.572.073c-.062.484-.124.933-.185,1.34a3.091,3.091,0,0,1-.089.412.288.288,0,0,1-.277.21Zm-36.312-1.078a.288.288,0,0,1-.279-.216,4.307,4.307,0,0,1-.137-.949l-.027-.834a.289.289,0,0,1,.279-.3.286.286,0,0,1,.3.28l.027.834a3.736,3.736,0,0,0,.119.822.288.288,0,0,1-.206.352.27.27,0,0,1-.073.008Zm36.963-4.652h-.019a.289.289,0,0,1-.269-.307c.036-.558.065-1.133.085-1.72a.3.3,0,0,1,.3-.279.289.289,0,0,1,.278.3c-.02.593-.049,1.174-.086,1.738a.289.289,0,0,1-.288.269Zm-37.248-1.1a.288.288,0,0,1-.288-.28l-.056-1.73a.288.288,0,0,1,.279-.3.3.3,0,0,1,.3.28l.056,1.73a.288.288,0,0,1-.279.3Zm37.31-4.663a.288.288,0,0,1-.288-.274c-.028-.57-.068-1.143-.121-1.714a.289.289,0,0,1,.261-.314.3.3,0,0,1,.314.26c.053.565.094,1.151.123,1.74a.288.288,0,0,1-.274.3h-.015Zm-37.5-1.1a.288.288,0,0,1-.288-.28l-.056-1.73a.288.288,0,0,1,.279-.3.293.293,0,0,1,.3.279l.055,1.73a.288.288,0,0,1-.279.3Zm34.327-1.73h-1.731a.289.289,0,0,1,0-.577h1.731a.289.289,0,1,1,0,.577Zm-5.77,0h-1.731a.289.289,0,0,1,0-.577h1.731a.289.289,0,1,1,0,.577Zm-5.77,0H254.71a.289.289,0,1,1,0-.577h1.731a.289.289,0,1,1,0,.577Zm-5.77,0H248.94a.289.289,0,1,1,0-.577h1.731a.289.289,0,0,1,0,.577Zm-5.77,0H243.17a.289.289,0,0,1,0-.577H244.9a.289.289,0,0,1,0,.577Zm-5.77,0H237.4a.289.289,0,1,1,0-.577h1.731a.289.289,0,1,1,0,.577Z" transform="translate(-200.559 -1110.456)" fill="#7d97f4"/>
  <path id="Path_428" data-name="Path 428" d="M266.949,1405.772l.094-1a.771.771,0,0,1,.584-.45c.97-.154,3.374-.426,4.532.44l.173,1.165Z" transform="translate(-225.743 -1078.391)" fill="url(#linear-gradient-91)"/>
  <path id="Path_429" data-name="Path 429" d="M275.624,1395.66a1.39,1.39,0,0,1-.671,0,.606.606,0,0,1-.462-.587v-3.139h1.6v3.136A.608.608,0,0,1,275.624,1395.66Z" transform="translate(-231.389 -1069.241)" fill="url(#linear-gradient-92)"/>
  <path id="Path_430" data-name="Path 430" d="M328.5,1405.772l.094-1a.77.77,0,0,1,.585-.45c.97-.154,3.374-.426,4.532.44l.173,1.165Z" transform="translate(-271.826 -1078.391)" fill="url(#linear-gradient-93)"/>
  <path id="Path_431" data-name="Path 431" d="M337.177,1394.675a1.391,1.391,0,0,1-.671,0,.606.606,0,0,1-.462-.587v-3.469h1.6v3.467A.608.608,0,0,1,337.177,1394.675Z" transform="translate(-277.472 -1068.256)" fill="url(#linear-gradient-94)"/>
  <path id="Path_432" data-name="Path 432" d="M271.378,1379.72l17.177-.569a.828.828,0,0,0,.791-.68,7,7,0,0,0,.053-2.177,1.981,1.981,0,0,0-1.921-1.677c-3.2-.076-11.362-.074-15.858,1.7a1.571,1.571,0,0,0-.949,1.09,3.808,3.808,0,0,0-.041,1.744A.74.74,0,0,0,271.378,1379.72Z" transform="translate(-228.439 -1056.26)" fill="url(#linear-gradient-95)"/>
  <path id="Path_433" data-name="Path 433" d="M229.76,1408.769c5.549-.071,29.556-.323,36.529.518a1.42,1.42,0,0,1,1.22,1.1,46.892,46.892,0,0,1,1.143,10.48,1.243,1.243,0,0,1-1.018,1.185l-15.918,3.011h-5.654l-16.961-3.371a1.327,1.327,0,0,1-1.069-1.231,55.13,55.13,0,0,1,.3-10.481A1.467,1.467,0,0,1,229.76,1408.769Z" transform="translate(-196.524 -1081.778)" fill="url(#linear-gradient-96)"/>
  <path id="Path_434" data-name="Path 434" d="M249.5,1427.2a.276.276,0,0,1-.057-.006l-1.7-.337a.289.289,0,0,1,.113-.566l1.7.338a.289.289,0,0,1-.056.572Zm2.987,0h-1.731a.289.289,0,0,1,0-.577h1.731a.289.289,0,0,1,0,.577Zm4.01-.3a.288.288,0,0,1-.053-.572l1.7-.322a.288.288,0,0,1,.107.567l-1.7.322a.329.329,0,0,1-.054.005Zm-12.657-.82a.277.277,0,0,1-.057-.006l-1.7-.337a.289.289,0,0,1,.113-.566l1.7.338a.289.289,0,0,1-.056.572Zm18.327-.252a.288.288,0,0,1-.053-.572l1.7-.322a.289.289,0,0,1,.107.567l-1.7.322a.285.285,0,0,1-.054,0Zm-23.986-.873a.294.294,0,0,1-.057-.006l-1.7-.338a.288.288,0,1,1,.113-.566l1.7.338a.288.288,0,0,1-.056.571Zm29.656-.2a.289.289,0,0,1-.053-.572l1.7-.322a.288.288,0,1,1,.107.567l-1.7.322a.266.266,0,0,1-.054.007Zm-35.144-1.074a.288.288,0,0,1-.288-.274c-.023-.468-.047-1.062-.066-1.736a.289.289,0,0,1,.28-.3.282.282,0,0,1,.3.281c.019.669.043,1.259.066,1.724a.289.289,0,0,1-.274.3Zm37.812-2.417a.289.289,0,0,1-.288-.269c-.04-.586-.093-1.159-.153-1.713a.289.289,0,1,1,.574-.063c.061.562.115,1.143.156,1.737a.289.289,0,0,1-.268.308h-.02Zm-37.885-3.352h-.009a.289.289,0,0,1-.28-.3c.017-.586.045-1.172.084-1.74a.289.289,0,0,1,.576.04c-.039.561-.066,1.139-.083,1.718a.289.289,0,0,1-.288.281Zm37.129-2.368a.289.289,0,0,1-.283-.234c-.087-.457-.169-.852-.238-1.168l-.127-.015a.289.289,0,0,1,.064-.574l.5.059.088.237c.076.343.173.8.278,1.353a.288.288,0,0,1-.229.337.313.313,0,0,1-.054,0Zm-4.645-1.694h-.013q-.812-.037-1.727-.07a.288.288,0,0,1-.278-.3.294.294,0,0,1,.3-.278q.918.033,1.733.071a.288.288,0,0,1-.013.576Zm-5.768-.181h-.006q-.837-.017-1.729-.031a.289.289,0,0,1,0-.577h0q.894.015,1.732.031a.289.289,0,0,1-.006.577Zm-24.816-.032a.288.288,0,1,1,0-.577l1.732-.018a.278.278,0,0,1,.291.286.289.289,0,0,1-.286.291l-1.731.018Zm19.046-.048h0l-1.73-.012a.289.289,0,0,1,0-.577h0l1.732.012a.289.289,0,0,1,0,.577Zm-13.273,0a.288.288,0,1,1,0-.577l1.732-.01a.3.3,0,0,1,.29.287.289.289,0,0,1-.287.29l-1.732.01Zm5.772-.023a.288.288,0,1,1,0-.577h1.732a.288.288,0,1,1,0,.577h-1.73Z" transform="translate(-199.824 -1085.002)" fill="#7d97f4"/>
  <path id="Path_435" data-name="Path 435" d="M300.2,1461.52h-4.954a1.28,1.28,0,0,1-1.273-1.125l-.572-4.767a1.278,1.278,0,0,1,1.273-1.427h5.951a1.278,1.278,0,0,1,1.277,1.389l-.425,4.767A1.28,1.28,0,0,1,300.2,1461.52Z" transform="translate(-245.544 -1115.859)" fill="url(#linear-gradient-97)"/>
  <path id="Path_436" data-name="Path 436" d="M302.624,1463.238h-3.77a.974.974,0,0,1-.969-.856l-.436-3.628a.973.973,0,0,1,.969-1.086h4.529a.973.973,0,0,1,.972,1.057l-.323,3.628A.974.974,0,0,1,302.624,1463.238Z" transform="translate(-248.573 -1118.454)" fill="url(#linear-gradient-98)"/>
  <path id="Path_437" data-name="Path 437" d="M1566.081,252.569a1.352,1.352,0,0,1,.467.1c.248.107.535.34.865.483a10.311,10.311,0,0,1,1.188.611l.008,0c.2.1.358.217.261.441a.37.37,0,0,1-.522.184s-.608-.294-1.23-.558c-.155-.068-.3-.151-.447-.214s-.228-.111-.326-.159a1.729,1.729,0,0,0-.233-.114c-.069-.026-.107-.043-.107-.043l-.173-.066a.354.354,0,0,1-.251-.474.347.347,0,0,1,.5-.192Z" transform="translate(-1197.965 -216.203)" fill="#91b3fa"/>
  <path id="Path_438" data-name="Path 438" d="M1586.345,260.212l2.548.864a.415.415,0,0,1,.237.544.432.432,0,0,1-.532.283l-2.549-.86a.417.417,0,0,1-.239-.546.434.434,0,0,1,.535-.285Z" transform="translate(-1213.107 -221.947)" fill="#91b3fa"/>
  <path id="Path_439" data-name="Path 439" d="M1606.719,267.815l2.624.5a.339.339,0,0,1,.28.445.411.411,0,0,1-.507.287l-2.617-.661c-.218-.053-.349-.151-.284-.384s.3-.139.5-.19Z" transform="translate(-1228.394 -227.652)" fill="#91b3fa"/>
  <path id="Path_440" data-name="Path 440" d="M1627.637,273.272l2.682.161c.22.033.366.127.321.361a.393.393,0,0,1-.477.3l-2.673-.433c-.22-.033-.372-.021-.327-.255s.283-.064.472-.135Z" transform="translate(-1244.084 -231.738)" fill="#91b3fa"/>
  <path id="Path_441" data-name="Path 441" d="M1648.629,270.9l2.79.521c.221.01.419.4.4.638s-.2.513-.425.5l-2.706-.078c-.222-.01-.454-.575-.43-.81s.2-.79.374-.773Z" transform="translate(-1259.878 -229.962)" fill="#91b3fa"/>
  <path id="Path_442" data-name="Path 442" d="M1670.773,274.375l2.7-.29a.331.331,0,0,1,.388.341.425.425,0,0,1-.4.422l-2.732.178c-.221.016-.377-.064-.378-.3a.4.4,0,0,1,.425-.354Z" transform="translate(-1276.42 -232.343)" fill="#91b3fa"/>
  <path id="Path_443" data-name="Path 443" d="M1692.866,269.819l2.584-.386c.217-.044.355.185.383.411a.514.514,0,0,1-.372.53l-2.722.572c-.218.045-.3-.256-.332-.483s-.12-.426.458-.644Z" transform="translate(-1292.918 -228.86)" fill="#91b3fa"/>
  <path id="Path_444" data-name="Path 444" d="M1713.724,265.006l2.616-1.072c.209-.074.417-.035.474.181a.4.4,0,0,1-.281.487l-2.636.9c-.21.074-.41.1-.467-.115s.048.194.294-.383Z" transform="translate(-1308.662 -224.721)" fill="#91b3fa"/>
  <path id="Path_445" data-name="Path 445" d="M1734.366,257.03l2.641-1.148a.357.357,0,0,1,.507.175.4.4,0,0,1-.246.5l-2.6,1.013c-.206.082-.459.091-.524-.121s.081-.431.223-.417Z" transform="translate(-1324.169 -218.683)" fill="#91b3fa"/>
  <path id="Path_446" data-name="Path 446" d="M1755.1,248.152l2.563-1.317c.2-.093.431-.068.508.136a.4.4,0,0,1-.219.507l-2.545,1.174c-.2.094-.439.126-.517-.08s.053-.42.208-.42Z" transform="translate(-1339.696 -211.906)" fill="#91b3fa"/>
  <path id="Path_447" data-name="Path 447" d="M1774.977,236.6l2.492-1.353a.4.4,0,0,1,.539.187.453.453,0,0,1-.16.572l-2.438,1.445a.44.44,0,0,1-.562-.222c-.1-.194-.067-.629.128-.629Z" transform="translate(-1354.616 -203.236)" fill="#91b3fa"/>
  <path id="Path_448" data-name="Path 448" d="M1793.995,223.885a5.531,5.531,0,0,0,1.155-.69,8.236,8.236,0,0,1,1.058-.789l.031.009c.207-.559.427-.3.557-.131a.321.321,0,0,1-.053.483s-.545.448-1.1.938c-.561.444-1.12.868-1.12.868a.424.424,0,0,1-.581-.095c-.121-.174-.129-.593.047-.593Z" transform="translate(-1368.888 -193.409)" fill="#91b3fa"/>
  <path id="Path_449" data-name="Path 449" d="M1806.37,205.829s.666-.192.82-.417c.076-.112.455-.266.531-.4s.31-.3.4-.443c.154-.31.4-.621.485-.865a3.016,3.016,0,0,1,.2-.4l.031-.034a.4.4,0,0,1,.506-.234.384.384,0,0,1,.2.509s-.07.177-.178.442a10.46,10.46,0,0,1-.453.944l-.289.486c-.091.161-.183.284-.26.4l-.257.374a1.378,1.378,0,0,1-1.093.156c-.167-.121-.061-.278-.638-.51Z" transform="translate(-1378.255 -179.134)" fill="#91b3fa"/>
  <path id="Path_450" data-name="Path 450" d="M1815.176,184.636a1.66,1.66,0,0,0,.064-.546,3.54,3.54,0,0,0-.008-.48c-.013-.075,0-.178-.015-.257,0-.026-.008-.121,0-.1l-.031-.132c-.026-.081-.046-.177-.074-.247s-.056-.128-.083-.189c-.05-.122-.135-.242-.187-.342-.132-.192-.226-.318-.226-.318l-.011-.015a.414.414,0,0,1,.075-.555.356.356,0,0,1,.521.042s.113.147.271.379a4.484,4.484,0,0,1,.238.433l.118.272c.034.09.053.168.081.254l.038.126c.024.1.021.109.033.169.016.093.032.184.047.272a3.74,3.74,0,0,1,.064.472c.023.266.038.444.038.444a.631.631,0,0,1-.443.553.489.489,0,0,1-.509-.229Z" transform="translate(-1384.364 -162.924)" fill="#91b3fa"/>
  <path id="Path_451" data-name="Path 451" d="M1798.75,172.889a9.737,9.737,0,0,0-1.182-.64c-.615-.187-1.207-.422-1.207-.422l-.026-.036a.352.352,0,0,1-.189-.478c.068-.207.008-.463.507-.26l0,0s.642.189,1.314.395l1.214.535c.186.082.21.4.121.6s-.367.394-.551.307Z" transform="translate(-1370.575 -155.154)" fill="#91b3fa"/>
  <path id="Path_452" data-name="Path 452" d="M1777.723,170.171a.515.515,0,0,1-.383.245c-.124.014-.266.116-.406.15s-.29.108-.445.137a4.129,4.129,0,0,0-.445.158,1.538,1.538,0,0,0-.376.162c-.211.105-.351.182-.351.182l-.063.035a.341.341,0,0,1-.478-.176.413.413,0,0,1,.2-.513l.435-.221a2.081,2.081,0,0,1,.454-.179,4.869,4.869,0,0,1,.529-.154l.54-.1a3.8,3.8,0,0,1,.446-.044l.427-.031c.2-.015.328-.069.33.145s-.229.133-.409.2Z" transform="translate(-1354.582 -154.277)" fill="#91b3fa"/>
  <path id="Path_453" data-name="Path 453" d="M1766.945,181.948a.657.657,0,0,1-.038.39c-.021.065.007.114-.017.188s0,.131-.017.206c-.025.148-.04.3-.068.457-.01.168-.013.334-.022.491a3.7,3.7,0,0,0-.049.437,1.6,1.6,0,0,1-.034.428l0,.036a.36.36,0,0,1-.292.416.324.324,0,0,1-.353-.342s.005-.189-.008-.47a3.562,3.562,0,0,1,0-.484c.01-.179.025-.37.036-.56.029-.2.071-.4.1-.583a2.48,2.48,0,0,1,.125-.471c.084-.259.141-.432.141-.432.066-.2.172-.282.363-.224s.122.349.122.518Z" transform="translate(-1348.064 -162.964)" fill="#91b3fa"/>
  <path id="Path_454" data-name="Path 454" d="M1767.324,204.008a5.489,5.489,0,0,1,.985,1.434,8.6,8.6,0,0,0,.893,1.385l.094.007c.1.01.066.233-.115.333s-.366-.059-.451-.243c0,0-.283-.694-.58-1.342-.244-.653-.481-1.329-.481-1.329-.072-.192-.49-.383-.3-.47s-.042.043-.042.223Z" transform="translate(-1349.019 -179.692)" fill="#91b3fa"/>
  <path id="Path_455" data-name="Path 455" d="M1779.211,222.362a3.143,3.143,0,0,0,.5,1.267,3.119,3.119,0,0,1,.567,1.182v.019c.577.152.356.393.2.535s-.252.135-.378-.017c0,0-.381-.536-.825-1.072-.4-.551-.777-1.1-.777-1.1a.658.658,0,0,1,.142-.7.893.893,0,0,1,.569-.115Z" transform="translate(-1357.357 -193.617)" fill="#91b3fa"/>
  <path id="Path_456" data-name="Path 456" d="M1792.645,237.749l2.2,1.921a.505.505,0,0,1,.106.607c-.129.163-.318.234-.466.108l-2.038-1.733c-.148-.126-.3-.517-.17-.681s.307-.8.368-.223Z" transform="translate(-1367.667 -204.965)" fill="#91b3fa"/>
  <path id="Path_457" data-name="Path 457" d="M1810.181,254.179l2.25,1.25a.261.261,0,0,1,.087.409.348.348,0,0,1-.494.085l-2.275-1.467c-.163-.1-.187-.147-.079-.325s.35.049.51.049Z" transform="translate(-1380.677 -217.356)" fill="#91b3fa"/>
  <path id="Path_458" data-name="Path 458" d="M1828.434,263.841l.371.2.817.419,1.2.609a.361.361,0,0,1,.139.488.356.356,0,0,1-.473.177l-1.2-.608-.828-.423-.371-.2a.364.364,0,0,1-.132-.493.358.358,0,0,1,.478-.17Z" transform="translate(-1394.38 -224.65)" fill="#91b3fa"/>
  <path id="Path_459" data-name="Path 459" d="M1847.6,273.329l2.46,1.086a.37.37,0,0,1-.3.674l-2.461-1.083a.371.371,0,0,1,.3-.677Z" transform="translate(-1408.755 -231.764)" fill="#91b3fa"/>
  <path id="Path_460" data-name="Path 460" d="M1867.246,282.432l2.536.827a.3.3,0,0,1,.192.408.342.342,0,0,1-.444.2l-2.526-.935c-.176-.064-.27-.177-.2-.367s.259-.152.439-.134Z" transform="translate(-1423.484 -238.584)" fill="#91b3fa"/>
  <path id="Path_461" data-name="Path 461" d="M1887.506,288.647l2.591.739a.339.339,0,0,1,.215.437.359.359,0,0,1-.429.253l-2.592-.736a.341.341,0,0,1-.216-.438.36.36,0,0,1,.431-.255Z" transform="translate(-1438.661 -243.241)" fill="#91b3fa"/>
  <path id="Path_462" data-name="Path 462" d="M1908.307,293.786l2.634.554a.345.345,0,0,1,.238.429.371.371,0,0,1-.411.293l-2.654-.511a.359.359,0,0,1-.232-.446c.044-.193.263-.4.424-.319Z" transform="translate(-1454.243 -247.083)" fill="#91b3fa"/>
  <path id="Path_463" data-name="Path 463" d="M1929.37,298.089l2.646.536a.328.328,0,0,1,.241.41.356.356,0,0,1-.4.279l-2.647-.533a.33.33,0,0,1-.242-.411.359.359,0,0,1,.407-.281Z" transform="translate(-1470.027 -250.314)" fill="#91b3fa"/>
  <path id="Path_464" data-name="Path 464" d="M1950.4,302.573l2.618.645a.327.327,0,0,1,.223.416.351.351,0,0,1-.41.26l-2.619-.641a.329.329,0,0,1-.224-.418.353.353,0,0,1,.412-.262Z" transform="translate(-1485.762 -253.669)" fill="#91b3fa"/>
  <path id="Path_465" data-name="Path 465" d="M1971.189,307.928l2.585.757a.327.327,0,0,1,.2.422.345.345,0,0,1-.414.241l-2.586-.753a.328.328,0,0,1-.206-.424.347.347,0,0,1,.417-.243Z" transform="translate(-1501.323 -257.675)" fill="#91b3fa"/>
  <path id="Path_466" data-name="Path 466" d="M1991.714,314.181l2.546.871a.327.327,0,0,1,.185.428.339.339,0,0,1-.418.221l-2.547-.868a.327.327,0,0,1-.186-.429.341.341,0,0,1,.42-.222Z" transform="translate(-1516.683 -262.354)" fill="#91b3fa"/>
  <path id="Path_467" data-name="Path 467" d="M2011.919,321.353l2.5.989a.326.326,0,0,1,.165.432.333.333,0,0,1-.422.2l-2.5-.986a.327.327,0,0,1-.166-.434.335.335,0,0,1,.424-.2Z" transform="translate(-1531.804 -267.721)" fill="#91b3fa"/>
  <path id="Path_468" data-name="Path 468" d="M2031.757,329.478l2.449,1.109a.339.339,0,0,1-.28.616l-2.451-1.106a.341.341,0,0,1,.281-.619Z" transform="translate(-1546.652 -273.802)" fill="#91b3fa"/>
  <path id="Path_469" data-name="Path 469" d="M2051.15,338.542l2.391,1.231a.325.325,0,0,1,.123.44.32.32,0,0,1-.426.157l-2.392-1.228a.326.326,0,0,1-.125-.442.323.323,0,0,1,.429-.158Z" transform="translate(-1561.162 -280.581)" fill="#91b3fa"/>
  <path id="Path_470" data-name="Path 470" d="M2070.076,348.59l2.325,1.354a.324.324,0,0,1,.1.443.314.314,0,0,1-.427.134l-2.326-1.351a.326.326,0,0,1-.1-.445.317.317,0,0,1,.43-.135Z" transform="translate(-1575.325 -288.098)" fill="#91b3fa"/>
  <path id="Path_471" data-name="Path 471" d="M2088.453,359.62l2.25,1.478a.324.324,0,0,1,.079.444.308.308,0,0,1-.428.111l-2.252-1.475a.326.326,0,0,1-.08-.446.31.31,0,0,1,.43-.112Z" transform="translate(-1589.078 -296.35)" fill="#91b3fa"/>
  <path id="Path_472" data-name="Path 472" d="M2106.231,371.641l2.17,1.6a.324.324,0,0,1,.057.444.3.3,0,0,1-.427.087l-2.172-1.6a.326.326,0,0,1-.057-.447.3.3,0,0,1,.429-.088Z" transform="translate(-1602.382 -305.343)" fill="#91b3fa"/>
  <path id="Path_473" data-name="Path 473" d="M2123.35,384.669l2.078,1.729a.324.324,0,0,1,.033.444.3.3,0,0,1-.425.063l-2.079-1.727a.325.325,0,0,1-.034-.446.3.3,0,0,1,.427-.063Z" transform="translate(-1615.193 -315.089)" fill="#91b3fa"/>
  <path id="Path_474" data-name="Path 474" d="M2139.709,398.691l1.974,1.854a.323.323,0,0,1,.009.442.29.29,0,0,1-.421.037l-1.977-1.852a.325.325,0,0,1-.01-.444.293.293,0,0,1,.424-.038Z" transform="translate(-1627.435 -325.579)" fill="#91b3fa"/>
  <path id="Path_475" data-name="Path 475" d="M2155.222,413.708l.934.986c.231.243.472.5.641.686l.287.314a.323.323,0,0,1-.021.439.284.284,0,0,1-.416.006l-.287-.313c-.171-.19-.4-.428-.635-.677l-.935-.984a.324.324,0,0,1,.013-.441.287.287,0,0,1,.419-.013Z" transform="translate(-1639.045 -336.814)" fill="#91b3fa"/>
  <path id="Path_476" data-name="Path 476" d="M2169.79,429.747l1.728,2.108a.321.321,0,0,1-.041.434.279.279,0,0,1-.411-.017l-1.731-2.105a.323.323,0,0,1,.041-.436.281.281,0,0,1,.413.016Z" transform="translate(-1649.946 -348.811)" fill="#91b3fa"/>
  <path id="Path_477" data-name="Path 477" d="M2183.293,446.787l1.584,2.233a.321.321,0,0,1-.068.427.274.274,0,0,1-.4-.045l-1.586-2.231a.322.322,0,0,1,.068-.429.275.275,0,0,1,.4.045Z" transform="translate(-1660.051 -361.557)" fill="#91b3fa"/>
  <path id="Path_478" data-name="Path 478" d="M2195.606,464.825l1.42,2.357a.32.32,0,0,1-.1.418.27.27,0,0,1-.393-.075l-1.422-2.355a.32.32,0,0,1,.1-.42.271.271,0,0,1,.395.075Z" transform="translate(-1669.265 -375.049)" fill="#91b3fa"/>
  <path id="Path_479" data-name="Path 479" d="M2206.572,483.847l1.235,2.477a.317.317,0,0,1-.124.406.264.264,0,0,1-.379-.106l-1.238-2.475a.32.32,0,0,1,.125-.409.266.266,0,0,1,.382.106Z" transform="translate(-1677.471 -389.277)" fill="#91b3fa"/>
  <path id="Path_480" data-name="Path 480" d="M2216.031,503.813l1.028,2.589a.315.315,0,0,1-.153.392.26.26,0,0,1-.364-.137l-1.031-2.588a.317.317,0,0,1,.154-.394.262.262,0,0,1,.366.138Z" transform="translate(-1684.55 -404.21)" fill="#91b3fa"/>
  <path id="Path_481" data-name="Path 481" d="M2223.793,524.655l.8,2.69a.312.312,0,0,1-.184.373.257.257,0,0,1-.344-.17l-.8-2.689a.313.313,0,0,1,.184-.376.258.258,0,0,1,.211.008.261.261,0,0,1,.135.163Z" transform="translate(-1690.36 -419.797)" fill="#91b3fa"/>
  <path id="Path_482" data-name="Path 482" d="M2229.663,546.272l.455,2.289a.308.308,0,0,1-.212.352.254.254,0,0,1-.322-.2l-.458-2.288a.31.31,0,0,1,.214-.354.257.257,0,0,1,.324.2Z" transform="translate(-1694.754 -435.964)" fill="#91b3fa"/>
  <path id="Path_483" data-name="Path 483" d="M1398.9,101.167l3.526,9.851-8.188-1.847Z" transform="translate(-1043.82 -75.742)" fill="#7d97f4"/>
  <path id="Path_484" data-name="Path 484" d="M1331.49,175.884l34.954,13.813a2.648,2.648,0,0,0,3.471-1.583l12.547-35.617a1.061,1.061,0,0,0-1.475-1.3Z" transform="translate(-1022.729 -140.259)" fill="#91b3fa"/>
  <path id="Path_485" data-name="Path 485" d="M1274.808,101.176l-46.318,10.2,44.31-4.443,1.1,2.69Z" transform="translate(-919.729 -75.748)" fill="#7d97f4"/>
  <path id="Path_486" data-name="Path 486" d="M1399.95,127.473l6.753.691-5.537-4.094Z" transform="translate(-1048.095 -92.888)" fill="#7d97f4"/>
</svg>
