<svg xmlns="http://www.w3.org/2000/svg" width="513.694" height="358.673" viewBox="0 0 513.694 358.673">
  <g id="Group_820" data-name="Group 820" transform="translate(-1039.5 -267.059)">
    <g id="personal" transform="translate(1039.5 267.059)">
      <g id="Background_Complete" data-name="Background Complete" transform="translate(0)">
        <path id="Path_628" data-name="Path 628" d="M364.305,37.566s-.714,98.572-53.652,89.735c-51.607-8.614-32.763-99.636-32.763-99.636S319.258,57.9,364.305,37.566Z" transform="translate(-98.601 -27.664)" fill="#ff725e"/>
        <path id="Path_629" data-name="Path 629" d="M315.521,78.879a146.072,146.072,0,0,1-19.928-12.3,10.854,10.854,0,0,0,.262,11.133c2.084,3.306,5.895,5.928,9.79,5.619a15.278,15.278,0,0,0,9.876-4.449" transform="translate(-102.568 -35.519)" fill="#455a64"/>
        <path id="Path_630" data-name="Path 630" d="M361.695,72.544a146.079,146.079,0,0,1-21.266,9.81,10.854,10.854,0,0,0,9.423,5.934c3.906.09,8.2-1.637,10.093-5.054a15.278,15.278,0,0,0,1.75-10.689" transform="translate(-111.902 -36.723)" fill="#455a64"/>
        <path id="Path_631" data-name="Path 631" d="M305.7,113.7c-.538-.171-.865-.966-.846-2.331a12.781,12.781,0,0,1,1.618-5.4,18.64,18.64,0,0,1,5.7-6.423A18.056,18.056,0,0,1,316.9,97.1a17.055,17.055,0,0,1,5.834-.981,17.577,17.577,0,0,1,10.534,3.729,17.894,17.894,0,0,1,5.406,6.771,12.455,12.455,0,0,1,1.238,5.53c-.086,1.366-.479,2.132-1.027,2.258-1.174.268-2.557-2.012-5.126-4.564a20.872,20.872,0,0,0-4.786-3.653,13.542,13.542,0,0,0-6.31-1.758,12.234,12.234,0,0,0-3.322.438,15.075,15.075,0,0,0-3.127,1.182,23.087,23.087,0,0,0-5.041,3.448C308.418,111.905,306.849,114.055,305.7,113.7Z" transform="translate(-104.722 -41.481)" fill="#455a64"/>
        <path id="Path_632" data-name="Path 632" d="M595.556,77.682a146.079,146.079,0,0,1-21.719-8.762,10.854,10.854,0,0,0,2.138,10.929c2.612,2.906,6.811,4.848,10.6,3.885a15.278,15.278,0,0,0,8.983-6.053" transform="translate(-158.886 -35.992)" fill="#455a64"/>
        <path id="Path_633" data-name="Path 633" d="M640.228,62.794a146.07,146.07,0,0,1-19.3,13.259,10.854,10.854,0,0,0,10.29,4.258c3.865-.571,7.8-3,9.1-6.685a15.279,15.279,0,0,0-.08-10.831" transform="translate(-168.519 -34.755)" fill="#455a64"/>
        <path id="Path_634" data-name="Path 634" d="M592.2,112.9c-.559-.078-1.015-.806-1.227-2.155a12.781,12.781,0,0,1,.682-5.6,18.64,18.64,0,0,1,4.537-7.294,18.057,18.057,0,0,1,4.24-3.2,17.056,17.056,0,0,1,5.585-1.952,17.576,17.576,0,0,1,11.012,1.9,17.9,17.9,0,0,1,6.471,5.762,12.456,12.456,0,0,1,2.154,5.241c.146,1.361-.112,2.182-.631,2.4-1.112.462-2.86-1.551-5.823-3.634a20.87,20.87,0,0,0-5.334-2.793,13.542,13.542,0,0,0-6.516-.668,12.235,12.235,0,0,0-3.2.993,15.077,15.077,0,0,0-2.882,1.693,23.084,23.084,0,0,0-4.386,4.25C594.577,110.678,593.394,113.062,592.2,112.9Z" transform="translate(-162.461 -40.75)" fill="#455a64"/>
        <path id="Path_635" data-name="Path 635" d="M674.271,340.036s-18.09,94.173-67.172,76.37c-47.849-17.355-13.747-101.1-13.747-101.1S627.586,351.532,674.271,340.036Z" transform="translate(-160.577 -85.723)" fill="#ff725e"/>
        <path id="Path_636" data-name="Path 636" d="M597.985,364.659a142.1,142.1,0,0,1,18.58,13.186A10.559,10.559,0,0,0,617,367.021c-1.817-3.339-5.353-6.122-9.154-6.065a14.866,14.866,0,0,0-9.865,3.7" transform="translate(-163.889 -94.938)" fill="#455a64"/>
        <path id="Path_637" data-name="Path 637" d="M646.691,386.569a142.1,142.1,0,0,1,22.077-5.629A10.559,10.559,0,0,0,660.8,373.6c-3.721-.776-8.132.118-10.548,3.052a14.862,14.862,0,0,0-3.562,9.917" transform="translate(-173.721 -97.437)" fill="#455a64"/>
        <path id="Path_638" data-name="Path 638" d="M643.469,398.645c.5.265.66,1.134.362,2.522a13.561,13.561,0,0,1-2.729,5.2,19.569,19.569,0,0,1-7.076,5.471,18.859,18.859,0,0,1-5.288,1.595,17.762,17.762,0,0,1-6.142-.1,18.322,18.322,0,0,1-10.063-5.787,18.767,18.767,0,0,1-4.286-7.936,13.2,13.2,0,0,1-.278-5.9c.325-1.384.849-2.1,1.411-2.123,1.207-.052,2.144,2.573,4.286,5.74a21.706,21.706,0,0,0,4.243,4.757,14.274,14.274,0,0,0,6.267,3.081,12.934,12.934,0,0,0,3.573.178,15.873,15.873,0,0,0,3.494-.647,23.95,23.95,0,0,0,5.885-2.665C640.42,400.031,642.4,398.08,643.469,398.645Z" transform="translate(-165.862 -101.122)" fill="#455a64"/>
        <path id="Path_639" data-name="Path 639" d="M54.11,143.365a142.112,142.112,0,0,1,18.58,13.185,10.559,10.559,0,0,0,.439-10.824c-1.817-3.339-5.353-6.122-9.154-6.065a14.866,14.866,0,0,0-9.865,3.7" transform="translate(-54.109 -50.27)" fill="#455a64"/>
        <path id="Path_640" data-name="Path 640" d="M102.816,165.275a142.11,142.11,0,0,1,22.077-5.629,10.559,10.559,0,0,0-7.967-7.341c-3.721-.776-8.132.118-10.548,3.053a14.863,14.863,0,0,0-3.562,9.917" transform="translate(-63.94 -52.769)" fill="#455a64"/>
        <path id="Path_641" data-name="Path 641" d="M99.594,177.352c.5.265.66,1.134.362,2.522a13.559,13.559,0,0,1-2.729,5.2,19.567,19.567,0,0,1-7.076,5.471,18.856,18.856,0,0,1-5.288,1.595,17.757,17.757,0,0,1-6.142-.1,18.322,18.322,0,0,1-10.063-5.787,18.769,18.769,0,0,1-4.286-7.936,13.2,13.2,0,0,1-.278-5.9c.325-1.384.849-2.1,1.411-2.123,1.207-.052,2.144,2.573,4.286,5.74a21.7,21.7,0,0,0,4.243,4.757,14.274,14.274,0,0,0,6.267,3.081,12.922,12.922,0,0,0,3.573.178,15.866,15.866,0,0,0,3.494-.647,23.948,23.948,0,0,0,5.885-2.665C96.545,178.737,98.529,176.787,99.594,177.352Z" transform="translate(-56.082 -56.455)" fill="#455a64"/>
        <path id="Path_642" data-name="Path 642" d="M151.306,365s25.831,73.764-16.045,81.326c-40.823,7.372-51.1-65.6-51.1-65.6S123.122,392.227,151.306,365Z" transform="translate(-60.175 -95.755)" fill="#ff725e"/>
        <path id="Path_643" data-name="Path 643" d="M120.271,408.118a115.826,115.826,0,0,1-15.821,9.721,8.605,8.605,0,0,0,7.976,3.786c3.084-.3,6.3-2.059,7.471-4.927a12.114,12.114,0,0,0,.373-8.58" transform="translate(-64.27 -104.458)" fill="#455a64"/>
        <path id="Path_644" data-name="Path 644" d="M161.787,403.571a115.82,115.82,0,0,1-18.463-1.974,8.606,8.606,0,0,0,4,7.871c2.622,1.65,6.245,2.221,8.925.666a12.114,12.114,0,0,0,5.539-6.563" transform="translate(-72.113 -103.142)" fill="#455a64"/>
        <path id="Path_645" data-name="Path 645" d="M128.59,443.575c-.564.031-1.147-.5-1.618-1.615a10.54,10.54,0,0,1-.523-4.919,15.909,15.909,0,0,1,2.575-7.083,15.7,15.7,0,0,1,3.106-3.509,14.963,14.963,0,0,1,4.521-2.657,15.642,15.642,0,0,1,16.386,3.772,10.3,10.3,0,0,1,2.6,4.239c.3,1.175.153,1.952-.317,2.266-1,.658-2.916-.635-5.733-1.746a18.464,18.464,0,0,0-4.812-1.271,11.388,11.388,0,0,0-5.239.536,12.155,12.155,0,0,0-4.429,3.025,20.6,20.6,0,0,0-3.013,4.067C130.543,441.32,129.779,443.5,128.59,443.575Z" transform="translate(-68.693 -107.44)" fill="#455a64"/>
      </g>
      <g id="Character_3" data-name="Character 3" transform="translate(284.575 75.229)">
        <path id="Path_646" data-name="Path 646" d="M433.424,210.963c-1.373-5.419.435-11.057,1.392-16.565,1.4-8.033.966-16.254.658-24.4s-.479-16.408,1.41-24.339,6.082-15.613,12.884-20.107,16.443-5.117,22.931-.18l-3.159,20.911a387.207,387.207,0,0,1-1.231,88.509A113.984,113.984,0,0,1,441.627,236c-1.826-.132-3.948-.5-4.8-2.121-1.03-1.973.531-4.226,1.173-6.357.843-2.8.031-5.831-1.144-8.508S434.142,213.8,433.424,210.963Z" transform="translate(-415.148 -121.918)" fill="#263238"/>
        <path id="Path_647" data-name="Path 647" d="M467.042,131.454a22.381,22.381,0,0,1,9.232-5.691,7.529,7.529,0,0,1,4.387-.326,3.313,3.313,0,0,1,2.492,3.272l-8.526,12.36c-1.687,1.616-4.464,1.393-6.569.382a6.127,6.127,0,0,1-3.545-3.862C464,135.337,465.431,133.108,467.042,131.454Z" transform="translate(-421.502 -122.591)" fill="#455a64"/>
        <path id="Path_648" data-name="Path 648" d="M530.028,280.172Z" transform="translate(-434.747 -153.861)" fill="#ffbe9d"/>
        <path id="Path_649" data-name="Path 649" d="M532.329,168.592c-1.74-17.736-17.045-31.8-35.169-31.1-19.229.743-33.784,16.906-32.437,35.537l7.329,74.929a6.557,6.557,0,0,0,1.775,3.862c5.367,5.68,14.053,9.413,21.256,9.275A32.147,32.147,0,0,0,514,253.946,6.413,6.413,0,0,0,516.353,248l-2.328-16.664a.107.107,0,0,1,.1-.127,22.894,22.894,0,0,0,4.637-.867c4.226-1.767,14.746-7.847,15.9-24.882C535.039,199.816,533.854,184.14,532.329,168.592Z" transform="translate(-421.548 -125.057)" fill="#ffbe9d"/>
        <path id="Path_650" data-name="Path 650" d="M522.764,205.61c-.029-.164,1.783-.638,4.731-1.274.749-.144,1.451-.354,1.531-.872a3.751,3.751,0,0,0-.709-2.157l-2.762-5.46c-3.855-7.781-6.718-14.205-6.4-14.354s3.7,6.036,7.558,13.817l2.672,5.5a4.261,4.261,0,0,1,.663,2.881,1.882,1.882,0,0,1-1.143,1.2,5.223,5.223,0,0,1-1.268.288C524.653,205.6,522.792,205.774,522.764,205.61Z" transform="translate(-432.548 -133.943)" fill="#263238"/>
        <path id="Path_651" data-name="Path 651" d="M543.3,191.832c-.258.484-2.671-1.026-5.605-.541-2.94.433-4.755,2.6-5.155,2.221-.193-.167.008-1,.792-1.972a6.57,6.57,0,0,1,4.028-2.308,6.654,6.654,0,0,1,4.561.965C542.976,190.887,543.426,191.613,543.3,191.832Z" transform="translate(-435.239 -135.49)" fill="#263238"/>
        <path id="Path_652" data-name="Path 652" d="M506.395,193.979c-.352.446-2.695-1.376-5.9-1.288-3.21.036-5.49,1.947-5.858,1.514-.179-.191.162-.988,1.157-1.851a7.462,7.462,0,0,1,9.388-.182C506.2,193,506.568,193.779,506.395,193.979Z" transform="translate(-427.593 -135.781)" fill="#263238"/>
        <path id="Path_653" data-name="Path 653" d="M519.809,253.6s-11.349,1.925-26.436-5.264c0,0,5.893,14.451,27.186,10.594Z" transform="translate(-427.348 -147.436)" fill="#eb996e"/>
        <path id="Path_654" data-name="Path 654" d="M521.543,220.343a6.253,6.253,0,0,0-5.87,1.157,5.629,5.629,0,0,0-2.12,3.841,3.457,3.457,0,0,0,1.99,3.492c1.478.557,3.256-.256,4.37-1.532a12.91,12.91,0,0,0,2.24-4.539,3.732,3.732,0,0,0,.268-1.365,1.111,1.111,0,0,0-.7-1.041" transform="translate(-431.418 -141.727)" fill="#eb996e"/>
        <path id="Path_655" data-name="Path 655" d="M508.158,186.714c-.686.493-2.928-1.491-6.04-3.114-3.081-1.685-5.965-2.438-5.949-3.289.02-.4.843-.742,2.212-.739a11.384,11.384,0,0,1,5.113,1.4,11.509,11.509,0,0,1,4.022,3.481C508.29,185.592,508.473,186.473,508.158,186.714Z" transform="translate(-427.912 -133.555)" fill="#263238"/>
        <path id="Path_656" data-name="Path 656" d="M539.908,178.181c-.088.9-2.442,1.839-4.787,3.595-2.4,1.686-4.021,3.64-4.9,3.439-.4-.115-.5-.878-.026-2.033A10.2,10.2,0,0,1,538,177.515C539.24,177.424,539.928,177.758,539.908,178.181Z" transform="translate(-434.716 -133.137)" fill="#263238"/>
        <path id="Path_657" data-name="Path 657" d="M496.914,131.551c-1.946-2.365-4.987-3.1-8.249-3.083-13.312.09-26.588,10.218-32.138,22.318s-3.354,28.493,3.883,39.667l5.01.081c10.062-2.216,22.667-33.222,34.433-51.109C501.315,137.2,498.6,133.606,496.914,131.551Z" transform="translate(-419.281 -123.24)" fill="#263238"/>
        <path id="Path_658" data-name="Path 658" d="M533.9,136.077c-6.418-5.324-16.449-11.472-27.058-5.384-1.162,3.426,2.838,7,6.014,8.951,4.652,2.862,8.606,4.667,11.691,6.754,6.238,4.22,14.3,11.559,16.308,20.794.126.58.586.594,1.159.41.742-.237,1.89-4.32,1.984-9.523C544.2,146.985,540.317,141.4,533.9,136.077Z" transform="translate(-430.025 -123.179)" fill="#263238"/>
        <path id="Path_659" data-name="Path 659" d="M468.313,198.074c-.327-.117-13.091-2.966-11.854,9.788s13.786,8.881,13.773,8.513S468.313,198.074,468.313,198.074Z" transform="translate(-419.88 -137.219)" fill="#ffbe9d"/>
        <path id="Path_660" data-name="Path 660" d="M466.7,213.016c-.06-.035-.208.177-.566.385a2.232,2.232,0,0,1-1.657.2c-1.4-.364-2.738-2.393-3.022-4.685a7.379,7.379,0,0,1,.313-3.241,2.579,2.579,0,0,1,1.506-1.868,1.136,1.136,0,0,1,1.37.482c.205.34.149.6.219.618.039.028.253-.241.1-.757a1.424,1.424,0,0,0-.579-.75,1.684,1.684,0,0,0-1.26-.205,3.136,3.136,0,0,0-2.129,2.2,7.577,7.577,0,0,0-.426,3.629c.331,2.562,1.88,4.839,3.775,5.193a2.391,2.391,0,0,0,2-.534C466.709,213.326,466.749,213.034,466.7,213.016Z" transform="translate(-420.715 -138.314)" fill="#eb996e"/>
        <path id="Path_661" data-name="Path 661" d="M477.19,181.48a36.505,36.505,0,0,0,7.449-2.4,32.656,32.656,0,0,0,13.6-12.677,51.254,51.254,0,0,0,6.149-17.788c.4-2.4.63-4.356.778-5.711a11.763,11.763,0,0,1,.3-2.1,10.17,10.17,0,0,1,.013,2.127c-.054,1.367-.2,3.344-.531,5.772a48.363,48.363,0,0,1-6.023,18.111,31.87,31.87,0,0,1-14.047,12.778,23.109,23.109,0,0,1-5.562,1.7,13.67,13.67,0,0,1-1.569.189C477.382,181.506,477.192,181.508,477.19,181.48Z" transform="translate(-424.082 -125.729)" fill="#263238"/>
        <path id="Path_662" data-name="Path 662" d="M556.387,191.356a2.079,2.079,0,0,1-1.526-.022,2.815,2.815,0,0,1-1.3-1.226,2.9,2.9,0,0,1-.164-2.311,8.2,8.2,0,0,1,1.472-2.577,18.2,18.2,0,0,0,2.064-2.908,5,5,0,0,0,.555-1.924,4.354,4.354,0,0,0-.4-2.065,9.816,9.816,0,0,0-2.734-3.28,13.945,13.945,0,0,1-2.852-2.912,6.147,6.147,0,0,1-.847-3.567c.1-2.424.9-4.579.942-6.5a7.017,7.017,0,0,0-.992-4.355,3.7,3.7,0,0,0-.85-.888c-.235-.156-.361-.228-.373-.211a7.376,7.376,0,0,1,1.03,1.224,7.09,7.09,0,0,1,.767,4.206c-.087,1.844-.924,3.96-1.07,6.508a6.647,6.647,0,0,0,.9,3.895,14.144,14.144,0,0,0,2.957,3.053,9.4,9.4,0,0,1,2.592,3.07,3.906,3.906,0,0,1-.119,3.511,18.568,18.568,0,0,1-1.966,2.854,8.411,8.411,0,0,0-1.484,2.761,3.235,3.235,0,0,0,.281,2.589,2.986,2.986,0,0,0,1.5,1.275,1.774,1.774,0,0,0,1.24.028.792.792,0,0,0,.371-.22Z" transform="translate(-438.655 -128.919)" fill="#263238"/>
        <path id="Path_663" data-name="Path 663" d="M474.553,237.506a1.912,1.912,0,0,0,.335-.435,8.788,8.788,0,0,0,.762-1.378,12.458,12.458,0,0,0,1.1-5.67,12.886,12.886,0,0,0-.786-3.95,24.743,24.743,0,0,0-2.213-4.023c-.792-1.329-1.473-2.99-.751-4.509.669-1.529,2.238-2.6,3.185-4.331a3.018,3.018,0,0,0,.009-2.9,12.852,12.852,0,0,0-1.758-2.078,4.692,4.692,0,0,1-.9-4.473,12.836,12.836,0,0,1,1.949-4,23.558,23.558,0,0,0,2.023-3.455,5.977,5.977,0,0,0-.168-5.672,3.208,3.208,0,0,0-1.156-1.091,1.413,1.413,0,0,0-.514-.2,4.226,4.226,0,0,1,1.475,1.414,5.811,5.811,0,0,1-.019,5.38,24.206,24.206,0,0,1-2.05,3.355A13.126,13.126,0,0,0,473,203.625a6.523,6.523,0,0,0-.165,2.555A4.641,4.641,0,0,0,474,208.61a12.919,12.919,0,0,1,1.679,1.979,2.422,2.422,0,0,1-.021,2.353c-.818,1.545-2.421,2.649-3.187,4.363a4.05,4.05,0,0,0-.214,2.7,8.7,8.7,0,0,0,1.025,2.323,25.145,25.145,0,0,1,2.225,3.924,12.722,12.722,0,0,1,.826,3.795,12.9,12.9,0,0,1-.89,5.559C474.932,236.85,474.5,237.474,474.553,237.506Z" transform="translate(-423.057 -135.527)" fill="#263238"/>
        <path id="Path_664" data-name="Path 664" d="M423.425,224.567c-.068.166.2.555,1.019.785a4.365,4.365,0,0,0,3.514-.825,6.186,6.186,0,0,0,1.824-1.99,6.078,6.078,0,0,0,.627-1.506,7.98,7.98,0,0,0,.251-1.661,14,14,0,0,0-1.906-6.945c-1.125-2.172-2.438-4.287-2.71-6.293-.3-2.01.394-4.3,1.713-6.862,1.275-2.554,3.208-5.368,4.535-8.905a42.058,42.058,0,0,0,2.459-10.9c.741-7.483.217-14.337.459-20.329a46.435,46.435,0,0,1,2.887-15.252,25.126,25.126,0,0,1,5.547-8.672c.9-.844,1.623-1.539,2.147-1.984.505-.477.745-.826.662-1.012s-.488-.2-1.212-.045a11.01,11.01,0,0,0-2.982,1.2,21.611,21.611,0,0,0-7.946,8.735,43.43,43.43,0,0,0-4.539,16.7c-.549,6.405-.211,13.25-.9,20.05a39.976,39.976,0,0,1-2.005,9.479c-.963,2.843-2.648,5.525-4.024,8.581a22.444,22.444,0,0,0-1.628,4.868,12.784,12.784,0,0,0,.017,5.272,14.762,14.762,0,0,0,1.841,4.336c.724,1.2,1.454,2.208,2.075,3.14a11.981,11.981,0,0,1,2.208,4.9,5.5,5.5,0,0,1,.041,1.026,3.484,3.484,0,0,1-.158.859,4.355,4.355,0,0,1-.8,1.47C425.085,224.481,423.554,224.152,423.425,224.567Z" transform="translate(-412.73 -123.967)" fill="#263238"/>
        <path id="Path_665" data-name="Path 665" d="M519.773,229.026c0,.058-.294.122-.831.231a12.989,12.989,0,0,1-2.343.286,3.067,3.067,0,0,1-.832-.11,3.8,3.8,0,0,1-.851-.32,2.662,2.662,0,0,1-.794-.638,7.638,7.638,0,0,1-1.295-2.919,2.748,2.748,0,0,1,.05-.627l.123-.546a10.569,10.569,0,0,1,.33-1.1,5.452,5.452,0,0,1,1.21-2,5.045,5.045,0,0,1,1.849-1.164,7.365,7.365,0,0,1,3.555-.309,8.2,8.2,0,0,1,3.081.893,23.977,23.977,0,0,1-3.139-.308,7.362,7.362,0,0,0-3.222.439,4.439,4.439,0,0,0-1.541,1.018,4.821,4.821,0,0,0-1.013,1.717,10.541,10.541,0,0,0-.308,1.017l-.121.51a1.97,1.97,0,0,0-.041.432,4.285,4.285,0,0,0,.616,1.729,2.508,2.508,0,0,0,1,1.258,3.319,3.319,0,0,0,1.371.443c.93.06,1.735-.022,2.283-.02S519.772,228.969,519.773,229.026Z" transform="translate(-431.275 -141.658)" fill="#263238"/>
        <path id="Path_666" data-name="Path 666" d="M539.387,263.308l-17.615,6.21s2.028,17.141,2.115,16.077S539.387,263.308,539.387,263.308Z" transform="translate(-433.081 -150.457)" fill="#ffbe9d"/>
        <path id="Path_667" data-name="Path 667" d="M519.773,229.026c0,.058-.294.122-.831.231a12.989,12.989,0,0,1-2.343.286,3.067,3.067,0,0,1-.832-.11,3.8,3.8,0,0,1-.851-.32,2.662,2.662,0,0,1-.794-.638,7.638,7.638,0,0,1-1.295-2.919,2.748,2.748,0,0,1,.05-.627l.123-.546a10.569,10.569,0,0,1,.33-1.1,5.452,5.452,0,0,1,1.21-2,5.045,5.045,0,0,1,1.849-1.164,7.365,7.365,0,0,1,3.555-.309,8.2,8.2,0,0,1,3.081.893,23.977,23.977,0,0,1-3.139-.308,7.362,7.362,0,0,0-3.222.439,4.439,4.439,0,0,0-1.541,1.018,4.821,4.821,0,0,0-1.013,1.717,10.541,10.541,0,0,0-.308,1.017l-.121.51a1.97,1.97,0,0,0-.041.432,4.285,4.285,0,0,0,.616,1.729,2.508,2.508,0,0,0,1,1.258,3.319,3.319,0,0,0,1.371.443c.93.06,1.735-.022,2.283-.02S519.772,228.969,519.773,229.026Z" transform="translate(-431.275 -141.658)" fill="#263238"/>
        <path id="Path_668" data-name="Path 668" d="M499.035,127.909l-7.721,14.368,43.677,27.632,12.931-22.929Z" transform="translate(-383.745 -101.047)" fill="#ffbe9d"/>
        <path id="Path_669" data-name="Path 669" d="M432.842,213.428s9-56.843,11.108-62.673,16.049-20.774,24.508-18.9,14.452,9.966,14.95,22.514S467.32,257.077,467.32,257.077s-24.262,18.646-33.6,7.247S427.171,241.385,432.842,213.428Z" transform="translate(-414.078 -123.89)" fill="#455a64"/>
        <path id="Path_670" data-name="Path 670" d="M446.132,273.077S487.955,285.1,491,284.466c12.812-2.658,25.955-21.744,25.955-21.744l8.221-2.317s14.185,45.019,9.657,68.578-9.82,37.557-9.82,37.557l7.462,65.975H410.651l24.848-71.38L428.96,288.55Z" transform="translate(-410.651 -149.872)" fill="#455a64"/>
        <path id="Path_671" data-name="Path 671" d="M587.442,203.317l6.152,5.588-41.215,35.035,9.118,52.587s35.384-33.5,49.4-47.273c22.221-21.834,30.251-37.4,28.115-43.253-3.576-9.794-35.3-29.13-35.3-29.13Z" transform="translate(-439.259 -133.011)" fill="#455a64"/>
        <path id="Path_672" data-name="Path 672" d="M474.516,315.8a14.13,14.13,0,0,1-1.441-3.846,36.735,36.735,0,0,1-.92-4.371,39.038,39.038,0,0,1-.072-10.925,36.751,36.751,0,0,1,.863-4.384,14.137,14.137,0,0,1,1.39-3.865c.272.066-1.861,6.033-1.77,13.709C472.576,309.787,474.788,315.728,474.516,315.8Z" transform="translate(-422.98 -155.523)" fill="#263238"/>
        <path id="Path_673" data-name="Path 673" d="M521.171,341.168a6.507,6.507,0,0,1,.206,1.77,28.751,28.751,0,0,1-.213,4.856,32.905,32.905,0,0,1-17.822,25.323,28.747,28.747,0,0,1-4.5,1.84,6.5,6.5,0,0,1-1.736.4c-.051-.15,2.408-.813,5.96-2.763a34.275,34.275,0,0,0,17.515-24.887C521.218,343.709,521.012,341.17,521.171,341.168Z" transform="translate(-428.102 -166.173)" fill="#263238"/>
        <path id="Path_674" data-name="Path 674" d="M578.455,293.448a43.656,43.656,0,0,1-2.888,3.809,72.516,72.516,0,0,0-10.873,20.115,43.85,43.85,0,0,1-1.6,4.5,19.959,19.959,0,0,1,1.046-4.686,57.968,57.968,0,0,1,10.972-20.3A19.968,19.968,0,0,1,578.455,293.448Z" transform="translate(-441.417 -156.541)" fill="#263238"/>
        <path id="Path_675" data-name="Path 675" d="M540.384,341.352a4.961,4.961,0,0,1-1.028.205c-.679.094-1.678.279-2.977.4a94.139,94.139,0,0,1-11.034.565A144.025,144.025,0,0,1,509,341.407c-6.125-.7-12.818-1.84-19.833-2.806a137.681,137.681,0,0,0-36.185.276c-4.6.648-8.293,1.386-10.836,1.932l-2.926.646a4.988,4.988,0,0,1-1.034.176,4.955,4.955,0,0,1,.992-.338c.66-.188,1.629-.485,2.894-.8,2.526-.644,6.213-1.473,10.824-2.2a129.73,129.73,0,0,1,16.322-1.493c3.087-.086,6.329-.054,9.688.085,3.357.17,6.827.454,10.365.889,7.061.973,13.715,2.132,19.822,2.871a155.894,155.894,0,0,0,16.263,1.288c4.644.081,8.406-.088,11-.3,1.3-.071,2.3-.2,2.986-.244a4.992,4.992,0,0,1,1.049-.039Z" transform="translate(-416.208 -165.282)" fill="#fff"/>
        <path id="Path_676" data-name="Path 676" d="M600.04,277.731c-.171,0-.116-2.657-.886-6.833l-.326-1.632c-.117-.567-.3-1.142-.456-1.745-.287-1.214-.753-2.463-1.2-3.789a44.618,44.618,0,0,0-9.595-15.338c-1-.985-1.915-1.95-2.881-2.74-.475-.4-.911-.82-1.37-1.173L582,243.473c-3.419-2.519-5.835-3.634-5.756-3.786a7.981,7.981,0,0,1,1.718.724l.9.435c.323.17.66.381,1.029.6A27.2,27.2,0,0,1,582.341,243l1.378.979c.476.345.93.756,1.423,1.155a40.4,40.4,0,0,1,2.983,2.731,42.506,42.506,0,0,1,9.764,15.609,40.344,40.344,0,0,1,1.151,3.877c.143.617.314,1.205.416,1.784l.278,1.667a27.186,27.186,0,0,1,.325,2.884c.031.426.074.821.086,1.186s0,.695,0,1A7.989,7.989,0,0,1,600.04,277.731Z" transform="translate(-444.075 -145.69)" fill="#fff"/>
        <path id="Path_677" data-name="Path 677" d="M482.375,198.6a6.544,6.544,0,0,1-1.489.789,17.653,17.653,0,0,1-1.822.764c-.724.263-1.538.6-2.476.857-.929.285-1.95.588-3.071.82-1.109.284-2.319.462-3.589.67a44.542,44.542,0,0,1-16.635-.793c-1.245-.325-2.432-.619-3.51-1.005-1.094-.335-2.081-.735-2.98-1.1-.91-.341-1.687-.757-2.385-1.085a17.894,17.894,0,0,1-1.743-.93,6.544,6.544,0,0,1-1.41-.923c.074-.137,2.16,1.042,5.753,2.39.9.329,1.885.693,2.972.994,1.071.352,2.246.617,3.475.916a47.75,47.75,0,0,0,16.363.78c1.251-.185,2.447-.333,3.545-.585,1.11-.2,2.125-.465,3.052-.71C480.128,199.44,482.314,198.456,482.375,198.6Z" transform="translate(-416.83 -137.003)" fill="#fff"/>
        <path id="Path_678" data-name="Path 678" d="M447.073,149.388a5.181,5.181,0,0,1,.657-1.393,24.042,24.042,0,0,1,2.463-3.4,47.577,47.577,0,0,1,10.74-8.639c1.137-.72,2.252-1.4,3.338-2.061a22.274,22.274,0,0,1,3.292-1.7,9.011,9.011,0,0,1,3.341-.69,8.92,8.92,0,0,1,2.921.507,16.9,16.9,0,0,1,3.749,1.915,5.114,5.114,0,0,1,1.223.931,5.911,5.911,0,0,1-1.387-.653,21.071,21.071,0,0,0-3.762-1.633,8.654,8.654,0,0,0-2.732-.378,8.533,8.533,0,0,0-3.067.711,22.829,22.829,0,0,0-3.155,1.687l-3.316,2.067a54.467,54.467,0,0,0-10.749,8.331C448.241,147.534,447.2,149.465,447.073,149.388Z" transform="translate(-418.003 -123.853)" fill="#263238"/>
      </g>
      <g id="Character_1" data-name="Character 1" transform="translate(30.477 76.974)">
        <path id="Path_679" data-name="Path 679" d="M168.58,176.86,157.539,196l-2.463,13.626-21.067,33.741-2.849,4.564,21.806,15.24s13.722-31.123,15.241-34.09,7.733-4.865,7.733-4.865l9.856-17.363Z" transform="translate(-100.138 -134.753)" fill="#ffbe9d"/>
        <path id="Path_680" data-name="Path 680" d="M179.223,225.456a20.658,20.658,0,0,1,.259-3.927,44.234,44.234,0,0,0,.116-9.372,19.494,19.494,0,0,0-3.113-8.667c-1.356-1.966-2.6-2.852-2.5-2.968.03-.041.37.134.921.548a11.463,11.463,0,0,1,2.057,2.072,18.089,18.089,0,0,1,3.464,8.914,35.332,35.332,0,0,1-.358,9.545A16.859,16.859,0,0,1,179.223,225.456Z" transform="translate(-108.781 -139.528)" fill="#eb996e"/>
        <path id="Path_681" data-name="Path 681" d="M210.3,271.03l92.094,15.964s-77.74,8.164-77.771,7.1S210.3,271.03,210.3,271.03Z" transform="translate(-116.112 -153.761)" fill="#ffbe9d"/>
        <path id="Path_682" data-name="Path 682" d="M293.207,202.312c-.221-5.586-3.554-10.48-6.034-15.489-3.617-7.307-5.537-15.312-7.553-23.212s-4.2-15.87-8.257-22.939S261.1,127.426,253.3,125.046s-17.219-.242-22.04,6.333l8.962,19.155a387.213,387.213,0,0,0,26.29,84.523,113.977,113.977,0,0,0,25.93-6.408c1.713-.644,3.644-1.6,4-3.395.428-2.184-1.708-3.9-2.929-5.763-1.6-2.445-1.684-5.583-1.317-8.483S293.323,205.233,293.207,202.312Z" transform="translate(-120.344 -124.104)" fill="#263238"/>
        <path id="Path_683" data-name="Path 683" d="M243.473,134.751a22.38,22.38,0,0,0-10.467-2.838,7.528,7.528,0,0,0-4.3.932,3.313,3.313,0,0,0-1.461,3.844l11.682,9.434c2.076,1.071,4.676.07,6.407-1.5a6.127,6.127,0,0,0,2.3-4.709C247.488,137.613,245.488,135.879,243.473,134.751Z" transform="translate(-119.494 -125.675)" fill="#455a64"/>
        <path id="Path_684" data-name="Path 684" d="M229.613,294.259Z" transform="translate(-120.011 -158.45)" fill="#ffbe9d"/>
        <path id="Path_685" data-name="Path 685" d="M181.107,189.983c-3.363-17.5,7.323-35.327,24.9-39.8,18.65-4.743,37.192,6.627,41.186,24.875l14.229,73.93c.276,1.431,3.058,7.625,2.4,8.924-3.535,6.969-13.81,8.3-20.757,10.208a32.145,32.145,0,0,1-20.169-1.491,6.413,6.413,0,0,1-3.941-5.03l-2.5-16.64a.107.107,0,0,0-.128-.094,22.894,22.894,0,0,1-4.693.484c-4.554-.5-16.366-3.341-22.305-19.349C187.366,220.693,184.055,205.325,181.107,189.983Z" transform="translate(-110.096 -129.151)" fill="#ffbe9d"/>
        <path id="Path_686" data-name="Path 686" d="M214.28,220.7c-.019-.165-1.891-.106-4.9.121-.759.075-1.492.073-1.715-.4a3.753,3.753,0,0,1,.068-2.27q.524-2.869,1.1-6.019c1.489-8.555,2.412-15.527,2.063-15.579s-1.84,6.839-3.328,15.394q-.523,3.158-1,6.033a4.261,4.261,0,0,0,.181,2.951,1.882,1.882,0,0,0,1.435.822,5.227,5.227,0,0,0,1.3-.083C212.465,221.226,214.3,220.867,214.28,220.7Z" transform="translate(-115.323 -138.728)" fill="#263238"/>
        <path id="Path_687" data-name="Path 687" d="M199.634,211.775c-.357-.416-2.383,1.582-5.353,1.748-2.964.217-5.208-1.505-5.515-1.046-.152.2.224.97,1.2,1.752a6.57,6.57,0,0,0,4.434,1.376,6.654,6.654,0,0,0,4.242-1.935C199.527,212.768,199.809,211.96,199.634,211.775Z" transform="translate(-111.76 -141.789)" fill="#263238"/>
        <path id="Path_688" data-name="Path 688" d="M234.755,202.748c-.519-.232-1.751,2.468-4.637,3.876-2.862,1.454-5.768.817-5.893,1.371-.07.252.6.8,1.883,1.1a7.462,7.462,0,0,0,8.405-4.186C235.035,203.709,235,202.846,234.755,202.748Z" transform="translate(-118.922 -139.976)" fill="#263238"/>
        <path id="Path_689" data-name="Path 689" d="M225.841,265.882s11.428-1.374,23.856-12.548c0,0-1.551,15.529-23.064,17.872Z" transform="translate(-119.25 -150.189)" fill="#eb996e"/>
        <path id="Path_690" data-name="Path 690" d="M233.041,192.828c-.247-.808-3.233-.588-6.692-1.184-3.472-.527-6.223-1.676-6.726-.99-.226.33.221,1.1,1.312,1.929a11.383,11.383,0,0,0,4.913,1.987,11.51,11.51,0,0,0,5.309-.331C232.466,193.8,233.146,193.212,233.041,192.828Z" transform="translate(-117.983 -137.495)" fill="#263238"/>
        <path id="Path_691" data-name="Path 691" d="M195,195.528c-.865-.275-2.653,1.52-5.191,2.983-2.494,1.537-4.93,2.261-5.092,3.147-.054.417.609.807,1.858.825a9.575,9.575,0,0,0,4.77-1.434,9.479,9.479,0,0,0,3.514-3.506C195.43,196.44,195.395,195.676,195,195.528Z" transform="translate(-110.948 -138.515)" fill="#263238"/>
        <path id="Path_692" data-name="Path 692" d="M208.476,144.6c1.2-2.82,3.9-4.392,7.035-5.3,12.791-3.69,28.394,2.255,37.149,12.284s11.3,26.371,7.53,39.139l-4.781,1.5c-10.277.729-31.16-25.426-47.518-39.24C205.86,151.269,207.438,147.05,208.476,144.6Z" transform="translate(-115.428 -126.95)" fill="#263238"/>
        <path id="Path_693" data-name="Path 693" d="M177.7,157.672c4.644-6.926,12.519-15.667,24.419-12.839,2.087,2.955-.736,7.515-3.227,10.29-3.648,4.064-6.928,6.917-9.294,9.793-4.784,5.816-10.432,15.141-9.738,24.566.043.592-.393.735-1,.722-.779-.017-3.037-3.606-4.6-8.569C170.915,171.054,173.052,164.6,177.7,157.672Z" transform="translate(-108.509 -128.178)" fill="#263238"/>
        <path id="Path_694" data-name="Path 694" d="M262.631,198.516c.281-.2,11.711-6.558,14.143,6.023s-10.7,12.427-10.792,12.07S262.631,198.516,262.631,198.516Z" transform="translate(-126.676 -138.764)" fill="#ffbe9d"/>
        <path id="Path_695" data-name="Path 695" d="M270.276,212.094c.047-.051.249.111.652.209a2.232,2.232,0,0,0,1.644-.283c1.235-.745,1.946-3.071,1.569-5.35a7.378,7.378,0,0,0-1.22-3.019,2.579,2.579,0,0,0-1.974-1.364,1.136,1.136,0,0,0-1.177.851c-.1.384.028.62-.035.655-.029.038-.311-.159-.309-.7a1.424,1.424,0,0,1,.342-.884,1.684,1.684,0,0,1,1.15-.554,3.136,3.136,0,0,1,2.666,1.508,7.577,7.577,0,0,1,1.438,3.359c.409,2.551-.43,5.174-2.147,6.051a2.392,2.392,0,0,1-2.069.055C270.357,212.393,270.236,212.125,270.276,212.094Z" transform="translate(-128.047 -139.758)" fill="#eb996e"/>
        <path id="Path_696" data-name="Path 696" d="M176.193,163.012a14.132,14.132,0,0,0,3.762-.069,52.483,52.483,0,0,0,17.445-4.819,14.146,14.146,0,0,0,3.264-1.872,23.547,23.547,0,0,0-3.491,1.358,73.7,73.7,0,0,1-17.286,4.775A23.664,23.664,0,0,0,176.193,163.012Z" transform="translate(-109.228 -130.591)" fill="#455a64"/>
        <path id="Path_697" data-name="Path 697" d="M172.559,175.205a7.405,7.405,0,0,0,2.854.238,21.523,21.523,0,0,0,12.761-4.868,7.4,7.4,0,0,0,1.97-2.078c-.163-.2-3.266,2.952-8.238,4.81C176.962,175.232,172.548,174.948,172.559,175.205Z" transform="translate(-108.495 -133.063)" fill="#455a64"/>
        <path id="Path_698" data-name="Path 698" d="M255.019,158.108c-.046-.157-2.695.74-7.132,1.283a54.774,54.774,0,0,1-7.827.37,71.158,71.158,0,0,1-9.544-1,76.853,76.853,0,0,1-9.314-2.347,70.058,70.058,0,0,1-7.311-2.857c-4.069-1.864-6.41-3.376-6.489-3.249a9.214,9.214,0,0,0,1.592,1.142,22.76,22.76,0,0,0,1.967,1.187c.78.442,1.666.95,2.69,1.427a60.958,60.958,0,0,0,7.321,3.044,70.142,70.142,0,0,0,9.405,2.434,65.465,65.465,0,0,0,9.67.947,49.245,49.245,0,0,0,7.917-.545,27.713,27.713,0,0,0,2.995-.572,17.358,17.358,0,0,0,2.222-.592,9.227,9.227,0,0,0,1.839-.675Z" transform="translate(-115.528 -129.393)" fill="#455a64"/>
        <path id="Path_699" data-name="Path 699" d="M209.293,155.711a10.121,10.121,0,0,0,1.275,1.609,23.227,23.227,0,0,0,1.632,1.769c.67.657,1.393,1.452,2.3,2.214a53.088,53.088,0,0,0,6.584,5.074A56.763,56.763,0,0,0,230.1,171.1a55.528,55.528,0,0,0,9.773,2.881,49.722,49.722,0,0,0,8.27.86c1.183.069,2.254-.024,3.192-.047a21.345,21.345,0,0,0,2.4-.19,10.125,10.125,0,0,0,2.027-.32c-.014-.164-2.918.208-7.6,0a54.738,54.738,0,0,1-8.148-1.017,58.9,58.9,0,0,1-9.616-2.9,60.316,60.316,0,0,1-8.925-4.608,58.933,58.933,0,0,1-6.609-4.881C211.309,157.829,209.41,155.6,209.293,155.711Z" transform="translate(-115.909 -130.483)" fill="#455a64"/>
        <path id="Path_700" data-name="Path 700" d="M245.425,186.66a36.517,36.517,0,0,1-7.825-.192,32.657,32.657,0,0,1-16.638-8.3,51.257,51.257,0,0,1-10.943-15.313c-1.063-2.186-1.839-4-2.366-5.255a11.758,11.758,0,0,0-.88-1.932,10.177,10.177,0,0,0,.591,2.043c.44,1.3,1.14,3.15,2.147,5.384a48.363,48.363,0,0,0,10.913,15.658,31.875,31.875,0,0,0,17.095,8.269,23.113,23.113,0,0,0,5.817.056,13.658,13.658,0,0,0,1.558-.264C245.248,186.74,245.43,186.687,245.425,186.66Z" transform="translate(-115.401 -130.476)" fill="#263238"/>
        <path id="Path_701" data-name="Path 701" d="M178.819,216.57a2.078,2.078,0,0,0,1.457-.454,2.814,2.814,0,0,0,.9-1.544,2.9,2.9,0,0,0-.5-2.262,8.194,8.194,0,0,0-2.142-2.054,18.2,18.2,0,0,1-2.8-2.2,5,5,0,0,1-1.078-1.688,4.355,4.355,0,0,1-.207-2.093,9.817,9.817,0,0,1,1.691-3.922,13.944,13.944,0,0,0,1.908-3.6,6.148,6.148,0,0,0-.2-3.66c-.785-2.3-2.161-4.136-2.749-5.97a7.017,7.017,0,0,1-.285-4.458,3.7,3.7,0,0,1,.563-1.093c.181-.216.282-.321.3-.308a7.38,7.38,0,0,0-.64,1.466,7.089,7.089,0,0,0,.457,4.25c.606,1.743,2.009,3.535,2.872,5.937a6.648,6.648,0,0,1,.242,3.99,14.148,14.148,0,0,1-1.969,3.766,9.4,9.4,0,0,0-1.614,3.68,3.906,3.906,0,0,0,1.11,3.333,18.558,18.558,0,0,0,2.7,2.179,8.417,8.417,0,0,1,2.206,2.227,3.235,3.235,0,0,1,.465,2.562,2.987,2.987,0,0,1-1.077,1.648,1.774,1.774,0,0,1-1.181.379.792.792,0,0,1-.418-.107Z" transform="translate(-108.866 -135.641)" fill="#263238"/>
        <path id="Path_702" data-name="Path 702" d="M266.531,185.308a2.915,2.915,0,0,1,0-.677c.011-.442.077-1.09.094-1.928a58.127,58.127,0,0,0-.139-7.082,48.812,48.812,0,0,0-1.918-10.293A41.206,41.206,0,0,0,259.09,153.8a31.847,31.847,0,0,0-4.33-4.992,34.561,34.561,0,0,0-4.9-3.743,42.824,42.824,0,0,0-9.488-4.4,59.952,59.952,0,0,0-6.85-1.8c-.818-.183-1.462-.278-1.894-.374a2.925,2.925,0,0,1-.657-.164,2.9,2.9,0,0,1,.674.046c.438.058,1.09.116,1.918.265a50.694,50.694,0,0,1,6.935,1.633,41.62,41.62,0,0,1,9.65,4.331,34.392,34.392,0,0,1,5,3.779,31.892,31.892,0,0,1,4.423,5.081,40.813,40.813,0,0,1,5.513,11.713,47.1,47.1,0,0,1,1.813,10.418,49.37,49.37,0,0,1-.048,7.126c-.052.84-.156,1.486-.205,1.926A2.91,2.91,0,0,1,266.531,185.308Z" transform="translate(-120.285 -126.974)" fill="#455a64"/>
        <path id="Path_703" data-name="Path 703" d="M269.491,237.862a1.916,1.916,0,0,1-.445-.322,8.784,8.784,0,0,1-1.122-1.105,12.457,12.457,0,0,1-2.66-5.126,12.883,12.883,0,0,1-.367-4.011,24.741,24.741,0,0,1,.98-4.486c.382-1.5.565-3.285-.559-4.537-1.075-1.276-2.882-1.855-4.283-3.249a3.019,3.019,0,0,1-.832-2.78,12.857,12.857,0,0,1,1.1-2.491,4.692,4.692,0,0,0-.4-4.545,12.836,12.836,0,0,0-3-3.279,23.545,23.545,0,0,1-2.92-2.74,5.977,5.977,0,0,1-1.449-5.486,3.208,3.208,0,0,1,.8-1.374,1.412,1.412,0,0,1,.436-.338,4.225,4.225,0,0,0-1.014,1.774,5.81,5.81,0,0,0,1.544,5.153,24.2,24.2,0,0,0,2.917,2.635,13.125,13.125,0,0,1,3.157,3.379,6.519,6.519,0,0,1,.883,2.4,4.64,4.64,0,0,1-.423,2.66,12.919,12.919,0,0,0-1.048,2.374,2.422,2.422,0,0,0,.687,2.251c1.222,1.25,3.073,1.853,4.294,3.28a4.051,4.051,0,0,1,.97,2.525,8.7,8.7,0,0,1-.324,2.518,25.153,25.153,0,0,0-1.02,4.394,12.718,12.718,0,0,0,.284,3.873,12.9,12.9,0,0,0,2.431,5.078C268.94,237.341,269.531,237.817,269.491,237.862Z" transform="translate(-124.804 -137.807)" fill="#263238"/>
        <path id="Path_704" data-name="Path 704" d="M309.887,212.46c.112.14-.035.589-.755,1.042a4.365,4.365,0,0,1-3.6.206,6.188,6.188,0,0,1-2.313-1.391,6.079,6.079,0,0,1-1.029-1.267,7.978,7.978,0,0,1-.711-1.521,14,14,0,0,1-.142-7.2c.463-2.4,1.122-4.8.813-6.8-.282-2.013-1.6-4.011-3.59-6.094-1.947-2.087-4.6-4.238-6.876-7.253a42.063,42.063,0,0,1-5.45-9.752c-2.833-6.966-4.276-13.686-6.207-19.364a46.438,46.438,0,0,0-7.1-13.806,25.126,25.126,0,0,0-7.78-6.742c-1.105-.553-1.993-1.015-2.622-1.293-.62-.314-.949-.581-.922-.783s.411-.332,1.149-.386a11.013,11.013,0,0,1,3.2.308,21.61,21.61,0,0,1,10.1,6.122,43.43,43.43,0,0,1,9.09,14.726c2.344,5.986,3.962,12.646,6.553,18.97a39.979,39.979,0,0,0,4.612,8.521c1.73,2.453,4.107,4.547,6.294,7.087a22.445,22.445,0,0,1,2.942,4.206,12.782,12.782,0,0,1,1.48,5.06,14.76,14.76,0,0,1-.535,4.68c-.354,1.355-.768,2.53-1.1,3.6a11.982,11.982,0,0,0-.726,5.326,5.5,5.5,0,0,0,.252,1,3.49,3.49,0,0,0,.4.779,4.356,4.356,0,0,0,1.18,1.184C308.271,212.849,309.645,212.1,309.887,212.46Z" transform="translate(-126.468 -125.302)" fill="#263238"/>
        <path id="Path_705" data-name="Path 705" d="M230.617,234.618c-.058.115-.685-.155-1.726-.312a7.17,7.17,0,0,0-7.088,2.96c-.62.852-.869,1.487-.992,1.447-.1-.023-.048-.745.494-1.76a6.69,6.69,0,0,1,7.713-3.221C230.121,234.061,230.668,234.534,230.617,234.618Z" transform="translate(-118.226 -146.18)" fill="#263238"/>
        <path id="Path_706" data-name="Path 706" d="M237.418,207.768c.094.046,0,.5-.382,1.117a5.944,5.944,0,0,1-4.806,2.663c-.731,0-1.16-.164-1.149-.269.015-.242,1.727-.205,3.476-1.2C236.329,209.124,237.205,207.653,237.418,207.768Z" transform="translate(-120.307 -140.991)" fill="#eb996e"/>
        <path id="Path_707" data-name="Path 707" d="M197.375,218.163c.076.072-.131.463-.672.913a5.285,5.285,0,0,1-5.2.749c-.646-.279-.955-.6-.9-.686.111-.213,1.595.479,3.483.181C195.979,219.072,197.208,217.99,197.375,218.163Z" transform="translate(-112.135 -143.086)" fill="#eb996e"/>
        <path id="Path_708" data-name="Path 708" d="M187.853,232.146a25.025,25.025,0,0,1-.958-4.236c-.512-2.626-1.228-6.25-2.114-10.231s-1.777-7.567-2.428-10.163a24.924,24.924,0,0,1-.93-4.242,20.5,20.5,0,0,1,1.5,4.083c.8,2.563,1.782,6.141,2.674,10.141s1.517,7.656,1.882,10.315A20.52,20.52,0,0,1,187.853,232.146Z" transform="translate(-110.28 -140.085)" fill="#eb996e"/>
        <path id="Path_709" data-name="Path 709" d="M246.894,208.366a3.134,3.134,0,0,0-1.309-.86,7.173,7.173,0,0,0-4.437-.255l.492.295,1.781,1.743a4.667,4.667,0,0,0,1.833,1.287,1.6,1.6,0,0,0,1.931-.73A1.5,1.5,0,0,0,246.894,208.366Z" transform="translate(-122.339 -140.84)" fill="#455a64"/>
        <path id="Path_710" data-name="Path 710" d="M246.56,215.419a2.653,2.653,0,0,0-.381-1.27,6.075,6.075,0,0,0-2.739-2.581l.159.459q.1,1.05.207,2.1a3.953,3.953,0,0,0,.489,1.833,1.357,1.357,0,0,0,1.651.578A1.269,1.269,0,0,0,246.56,215.419Z" transform="translate(-122.802 -141.759)" fill="#455a64"/>
        <path id="Path_711" data-name="Path 711" d="M228.472,286.971c-.227.032-.9-3.417-1.5-7.7s-.909-7.788-.681-7.82.9,3.417,1.5,7.7S228.7,286.939,228.472,286.971Z" transform="translate(-119.324 -153.845)" fill="#eb996e"/>
        <path id="Path_712" data-name="Path 712" d="M273.971,432.239l-3.508-57.877,16.31-63.02-8.2-26.768s-63.777,5.816-66.958,6.143c-10.173,1.048-25.136-22.107-25.136-22.107h-8.29s-8.15-1.1-16.109,5.97-21.793,18.95-21.793,18.95l10.4-20.3L119.9,259.042S101.44,291.768,96.367,303.28c-3.348,7.6-8.587,20.991,3.379,33.818,7.322,7.849,28.924,10.588,35.9,8.295,4.757-1.563,19.979-9.919,29.194-15.085.072,1.219.184,2.4.343,3.547,3.3,23.762,7.859,38.016,7.859,38.016l-8.3,60.369Z" transform="translate(-92.293 -151.341)" fill="#455a64"/>
        <path id="Path_713" data-name="Path 713" d="M134.532,327.072c-.206-.1,5.107-11.411,11.865-25.258s12.407-25,12.614-24.9-5.106,11.408-11.867,25.261S134.737,327.173,134.532,327.072Z" transform="translate(-100.818 -154.949)" fill="#263238"/>
        <path id="Path_714" data-name="Path 714" d="M191.822,384.453a18.256,18.256,0,0,1-1-2.639c-.6-1.714-1.392-4.217-2.315-7.328-1.849-6.22-4.1-14.911-5.981-24.638s-3.011-18.639-3.607-25.1c-.3-3.231-.492-5.85-.575-7.663a18.244,18.244,0,0,1-.056-2.82,18.3,18.3,0,0,1,.378,2.794c.182,1.8.463,4.41.837,7.627.744,6.434,1.973,15.3,3.838,25s4.03,18.386,5.731,24.636c.848,3.125,1.556,5.65,2.058,7.392A18.307,18.307,0,0,1,191.822,384.453Z" transform="translate(-109.646 -162.488)" fill="#263238"/>
        <path id="Path_715" data-name="Path 715" d="M321.563,291.031s15.421,10.916,19.183,25.3,23.3,122.37,23.3,122.37H329.764l-24.482-88.624Z" transform="translate(-135.285 -157.798)" fill="#455a64"/>
        <path id="Path_716" data-name="Path 716" d="M294.212,365.813a6.144,6.144,0,0,1-1.13.3c-.749.158-1.846.44-3.281.682a107.974,107.974,0,0,1-12.233,1.523,135.263,135.263,0,0,1-18.287.009,179.339,179.339,0,0,1-22.2-2.9,323.153,323.153,0,0,1-39.218-10.647c-4.937-1.631-8.913-3-11.654-3.971l-3.149-1.135a6.174,6.174,0,0,1-1.08-.449,6.151,6.151,0,0,1,1.133.291l3.2.987,11.732,3.719a361.9,361.9,0,0,0,39.2,10.39,187.657,187.657,0,0,0,22.095,2.954,143.2,143.2,0,0,0,18.2.169c5.177-.3,9.349-.808,12.216-1.256,1.439-.192,2.544-.422,3.3-.527a6.193,6.193,0,0,1,1.162-.139Z" transform="translate(-110.396 -169.545)" fill="#fff"/>
        <path id="Path_717" data-name="Path 717" d="M350.238,376.155c0,.145-2.266.206-5.875.714-.9.131-1.889.276-2.937.495-1.056.18-2.166.458-3.337.729a60.308,60.308,0,0,0-14.532,5.691c-1.044.6-2.048,1.147-2.945,1.732-.918.552-1.741,1.115-2.492,1.632-3,2.078-4.7,3.574-4.8,3.466a5.918,5.918,0,0,1,1.1-1.158c.371-.358.836-.782,1.4-1.24s1.2-1.011,1.945-1.545c.737-.553,1.55-1.15,2.463-1.735.892-.617,1.9-1.2,2.943-1.82a54.245,54.245,0,0,1,14.726-5.767c1.193-.254,2.323-.51,3.4-.662,1.067-.191,2.07-.3,2.986-.4.913-.118,1.748-.142,2.477-.187s1.359-.055,1.874-.044A5.925,5.925,0,0,1,350.238,376.155Z" transform="translate(-136.907 -174.957)" fill="#fff"/>
        <path id="Path_718" data-name="Path 718" d="M164.811,345.911c-.142.017-.4-2.043-1.2-5.28a56.834,56.834,0,0,0-1.695-5.594,54.225,54.225,0,0,0-6.56-12.668,56.847,56.847,0,0,0-3.591-4.612c-2.185-2.517-3.715-3.921-3.619-4.027a4.979,4.979,0,0,1,1.175.875c.365.3.8.677,1.275,1.148s1.043.982,1.605,1.61a46.22,46.22,0,0,1,3.779,4.562,48.445,48.445,0,0,1,6.658,12.857,46.217,46.217,0,0,1,1.545,5.718c.189.822.284,1.58.389,2.241s.168,1.233.2,1.7A4.979,4.979,0,0,1,164.811,345.911Z" transform="translate(-103.566 -162.38)" fill="#fff"/>
      </g>
      <g id="Character_2" data-name="Character 2" transform="translate(174.259 75.467)">
        <path id="Path_719" data-name="Path 719" d="M433.4,208.538c.9-5.518-1.392-10.978-2.823-16.382-2.087-7.881-2.372-16.109-2.772-24.252s-.946-16.388-3.516-24.125-7.414-15.026-14.58-18.914-16.825-3.672-22.86,1.809l4.961,20.558a387.208,387.208,0,0,0,8.9,88.068,113.985,113.985,0,0,0,26.687-1.108c1.807-.29,3.89-.839,4.593-2.529.855-2.055-.9-4.164-1.72-6.231-1.083-2.716-.536-5.807.4-8.576S432.928,211.423,433.4,208.538Z" transform="translate(-295.531 -122.216)" fill="#263238"/>
        <path id="Path_720" data-name="Path 720" d="M398.3,131.969a22.381,22.381,0,0,0-9.691-4.869,7.529,7.529,0,0,0-4.4.056,3.313,3.313,0,0,0-2.2,3.476l9.565,11.575c1.82,1.464,4.568,1,6.577-.19a6.125,6.125,0,0,0,3.2-4.155C401.662,135.575,400.048,133.477,398.3,131.969Z" transform="translate(-294.545 -123.141)" fill="#ff725e"/>
        <path id="Path_721" data-name="Path 721" d="M353.108,285.277Z" transform="translate(-288.721 -155.129)" fill="#ffbe9d"/>
        <path id="Path_722" data-name="Path 722" d="M324.752,175.027c.195-17.821,14.222-33.156,32.34-34.03,19.221-.927,35.123,13.912,35.4,32.59l-.8,75.282a6.556,6.556,0,0,1-1.433,4c-4.854,6.124-13.183,10.6-20.372,11.084a32.146,32.146,0,0,1-19.467-5.484,6.413,6.413,0,0,1-2.858-5.715l.874-16.8a.107.107,0,0,0-.106-.118,22.9,22.9,0,0,1-4.695-.462c-4.364-1.394-15.371-6.539-18-23.409C324.76,206.368,324.581,190.648,324.752,175.027Z" transform="translate(-282.985 -125.998)" fill="#ffbe9d"/>
        <path id="Path_723" data-name="Path 723" d="M351.58,210.366c.015-.166-1.831-.481-4.824-.859-.758-.078-1.477-.226-1.6-.736a3.753,3.753,0,0,1,.52-2.211q1.085-2.707,2.278-5.679c3.165-8.085,5.461-14.734,5.129-14.855s-3.167,6.335-6.332,14.421q-1.142,2.99-2.184,5.712a4.26,4.26,0,0,0-.411,2.927,1.882,1.882,0,0,0,1.242,1.092,5.224,5.224,0,0,0,1.288.177C349.7,210.518,351.567,210.532,351.58,210.366Z" transform="translate(-286.886 -135.096)" fill="#263238"/>
        <path id="Path_724" data-name="Path 724" d="M335.958,199.171a2.719,2.719,0,0,0,2.648,2.741,2.644,2.644,0,0,0,2.862-2.446,2.72,2.72,0,0,0-2.645-2.743,2.645,2.645,0,0,0-2.865,2.447Z" transform="translate(-285.259 -137.253)" fill="#263238"/>
        <path id="Path_725" data-name="Path 725" d="M331.426,187.227c.3.459,2.571-1.254,5.537-1.025,2.967.177,4.963,2.181,5.328,1.766.177-.183-.094-.991-.96-1.9a6.57,6.57,0,0,0-4.213-1.95,6.654,6.654,0,0,0-4.46,1.357C331.663,186.258,331.278,187.021,331.426,187.227Z" transform="translate(-284.338 -134.709)" fill="#263238"/>
        <path id="Path_726" data-name="Path 726" d="M371.316,200.543a2.719,2.719,0,0,0,2.648,2.741,2.643,2.643,0,0,0,2.862-2.446,2.72,2.72,0,0,0-2.645-2.742,2.645,2.645,0,0,0-2.865,2.448Z" transform="translate(-292.396 -137.53)" fill="#263238"/>
        <path id="Path_727" data-name="Path 727" d="M366.566,187.446c.39.414,2.565-1.6,5.771-1.8,3.2-.242,5.639,1.464,5.967,1,.161-.205-.247-.97-1.313-1.744a7.462,7.462,0,0,0-9.368.632C366.677,186.452,366.376,187.262,366.566,187.446Z" transform="translate(-291.426 -134.596)" fill="#263238"/>
        <path id="Path_728" data-name="Path 728" d="M354.368,257.921s11.473.934,25.88-7.537c0,0-4.617,14.908-26.165,12.912Z" transform="translate(-288.917 -148.086)" fill="#eb996e"/>
        <path id="Path_729" data-name="Path 729" d="M354.938,224.842a5.429,5.429,0,0,1,4.814-1.952,4.887,4.887,0,0,1,3.367,1.782,3,3,0,0,1,.215,3.483,3.65,3.65,0,0,1-3.9.966,11.209,11.209,0,0,1-3.786-2.232,3.238,3.238,0,0,1-.844-.864.964.964,0,0,1,.011-1.088" transform="translate(-289.03 -142.53)" fill="#eb996e"/>
        <path id="Path_730" data-name="Path 730" d="M362,173.864c.275.8,3.251.477,6.728.954,3.488.408,6.276,1.462,6.756.758.214-.337-.258-1.093-1.377-1.883a11.385,11.385,0,0,0-4.979-1.818,11.51,11.51,0,0,0-5.294.513C362.541,172.873,361.882,173.485,362,173.864Z" transform="translate(-290.513 -132.218)" fill="#263238"/>
        <path id="Path_731" data-name="Path 731" d="M330.868,178.827c.638.646,3.055-.113,5.982-.23,2.923-.2,5.416.289,5.971-.421.241-.344-.164-1-1.262-1.594a9.575,9.575,0,0,0-4.89-.946,9.478,9.478,0,0,0-4.741,1.472C330.91,177.818,330.587,178.511,330.868,178.827Z" transform="translate(-284.212 -132.993)" fill="#263238"/>
        <path id="Path_732" data-name="Path 732" d="M361.605,135.1c1.734-2.524,4.7-3.526,7.951-3.787,13.27-1.065,27.374,7.873,33.953,19.446s5.812,28.095-.428,39.854l-4.984.516c-10.216-1.335-25.463-31.13-38.736-47.929C357.711,141.109,360.1,137.289,361.605,135.1Z" transform="translate(-289.87 -124.034)" fill="#263238"/>
        <path id="Path_733" data-name="Path 733" d="M327.94,142.249c5.932-5.861,15.392-12.855,26.49-7.71,1.455,3.312-2.221,7.217-5.215,9.439-4.386,3.255-8.168,5.4-11.061,7.743-5.848,4.745-13.243,12.756-14.443,22.13-.075.588-.532.642-1.119.509-.76-.172-2.257-4.14-2.8-9.315C318.627,154.009,322.008,148.11,327.94,142.249Z" transform="translate(-281.949 -124.342)" fill="#263238"/>
        <path id="Path_734" data-name="Path 734" d="M404.388,198.313c.316-.145,12.784-4.09,12.658,8.723s-12.964,10.043-12.983,9.675S404.388,198.313,404.388,198.313Z" transform="translate(-299.006 -137.438)" fill="#ffbe9d"/>
        <path id="Path_735" data-name="Path 735" d="M409.024,212.945c.057-.041.222.158.6.335a2.232,2.232,0,0,0,1.668.051c1.358-.484,2.519-2.621,2.6-4.93a7.378,7.378,0,0,0-.593-3.2,2.579,2.579,0,0,0-1.662-1.73,1.136,1.136,0,0,0-1.323.6c-.176.356-.1.613-.165.635-.036.032-.273-.218-.164-.746a1.424,1.424,0,0,1,.512-.8,1.684,1.684,0,0,1,1.238-.314,3.136,3.136,0,0,1,2.312,2.009,7.578,7.578,0,0,1,.739,3.579c-.108,2.581-1.453,4.984-3.311,5.5a2.391,2.391,0,0,1-2.038-.359C409.044,213.254,408.979,212.968,409.024,212.945Z" transform="translate(-300.005 -138.487)" fill="#eb996e"/>
        <path id="Path_736" data-name="Path 736" d="M326.6,147.244a14.133,14.133,0,0,0,3.7.682,52.483,52.483,0,0,0,18.055-1.242,14.132,14.132,0,0,0,3.572-1.183,23.55,23.55,0,0,0-3.692.635,73.7,73.7,0,0,1-17.891,1.231A23.425,23.425,0,0,0,326.6,147.244Z" transform="translate(-283.37 -126.911)" fill="#455a64"/>
        <path id="Path_737" data-name="Path 737" d="M320.609,158.121a7.4,7.4,0,0,0,2.749.8,21.524,21.524,0,0,0,13.476-2.224,7.4,7.4,0,0,0,2.345-1.643c-.12-.228-3.789,2.241-9.031,3.07C324.918,159.025,320.649,157.866,320.609,158.121Z" transform="translate(-282.161 -128.841)" fill="#455a64"/>
        <path id="Path_738" data-name="Path 738" d="M405.161,156.931c-.013-.163-2.788.187-7.245-.166a54.766,54.766,0,0,1-7.743-1.2,71.158,71.158,0,0,1-9.154-2.881,76.845,76.845,0,0,1-8.659-4.157,70.068,70.068,0,0,1-6.595-4.258c-3.616-2.638-5.608-4.587-5.711-4.478a9.217,9.217,0,0,0,1.332,1.437,22.769,22.769,0,0,0,1.691,1.555c.676.589,1.443,1.263,2.351,1.935A60.943,60.943,0,0,0,372,149.163a70.144,70.144,0,0,0,8.731,4.261,65.477,65.477,0,0,0,9.287,2.857,49.254,49.254,0,0,0,7.866,1.046,27.729,27.729,0,0,0,3.048.037,17.366,17.366,0,0,0,2.3-.137,9.226,9.226,0,0,0,1.937-.3Z" transform="translate(-290.123 -125.763)" fill="#455a64"/>
        <path id="Path_739" data-name="Path 739" d="M360.831,145.461a10.128,10.128,0,0,0,.928,1.83,23.231,23.231,0,0,0,1.247,2.059c.526.777,1.075,1.7,1.812,2.628a53.076,53.076,0,0,0,5.439,6.285,56.765,56.765,0,0,0,7.9,6.433,55.534,55.534,0,0,0,9,4.772,49.731,49.731,0,0,0,7.933,2.493c1.145.3,2.213.426,3.137.591a21.328,21.328,0,0,0,2.39.293,10.121,10.121,0,0,0,2.05.09c.018-.163-2.9-.378-7.446-1.52a54.74,54.74,0,0,1-7.782-2.622,58.891,58.891,0,0,1-8.845-4.759,60.327,60.327,0,0,1-7.826-6.3,58.946,58.946,0,0,1-5.5-6.1C362.385,147.938,360.968,145.379,360.831,145.461Z" transform="translate(-290.28 -126.907)" fill="#455a64"/>
        <path id="Path_740" data-name="Path 740" d="M369.526,131.3a4.768,4.768,0,0,0-2.574.043,11.037,11.037,0,0,0-5.424,3.039,9.4,9.4,0,0,0-1.143,1.411,7.622,7.622,0,0,0-.71,1.534,17.055,17.055,0,0,0-.861,2.651,3.883,3.883,0,0,0,.057,2.577c.131-.01.031-.985.487-2.437a24.276,24.276,0,0,1,.994-2.513,7.557,7.557,0,0,1,.685-1.386,9.6,9.6,0,0,1,1.058-1.28,12.216,12.216,0,0,1,5-3.052C368.553,131.451,369.528,131.432,369.526,131.3Z" transform="translate(-289.841 -124.022)" fill="#455a64"/>
        <path id="Path_741" data-name="Path 741" d="M390.064,182.995a36.5,36.5,0,0,1-7.63-1.749A32.656,32.656,0,0,1,367.786,169.8a51.255,51.255,0,0,1-7.668-17.188c-.606-2.354-1-4.285-1.27-5.622a11.754,11.754,0,0,0-.477-2.069,10.166,10.166,0,0,0,.172,2.12c.173,1.357.489,3.314,1.03,5.7a48.366,48.366,0,0,0,7.571,17.52,31.872,31.872,0,0,0,15.1,11.512,23.111,23.111,0,0,0,5.689,1.215,13.675,13.675,0,0,0,1.58.052C389.875,183.037,390.063,183.022,390.064,182.995Z" transform="translate(-289.782 -126.798)" fill="#263238"/>
        <path id="Path_742" data-name="Path 742" d="M317.616,199.081a2.078,2.078,0,0,0,1.518-.155,2.814,2.814,0,0,0,1.188-1.334,2.9,2.9,0,0,0-.037-2.316,8.2,8.2,0,0,0-1.69-2.44,18.2,18.2,0,0,1-2.308-2.718,5,5,0,0,1-.72-1.869,4.355,4.355,0,0,1,.215-2.092,9.815,9.815,0,0,1,2.439-3.505,13.948,13.948,0,0,0,2.588-3.149,6.147,6.147,0,0,0,.535-3.627c-.311-2.406-1.293-4.484-1.5-6.4a7.018,7.018,0,0,1,.61-4.425,3.694,3.694,0,0,1,.77-.959c.22-.176.34-.258.353-.242a7.385,7.385,0,0,0-.92,1.309,7.089,7.089,0,0,0-.4,4.256c.246,1.829,1.264,3.864,1.63,6.391a6.648,6.648,0,0,1-.559,3.958,14.144,14.144,0,0,1-2.681,3.3,9.4,9.4,0,0,0-2.316,3.283,3.906,3.906,0,0,0,.423,3.487,18.563,18.563,0,0,0,2.206,2.672,8.414,8.414,0,0,1,1.718,2.622,3.235,3.235,0,0,1-.055,2.6,2.986,2.986,0,0,1-1.384,1.4,1.773,1.773,0,0,1-1.233.136A.793.793,0,0,1,317.616,199.081Z" transform="translate(-281.134 -130.62)" fill="#263238"/>
        <path id="Path_743" data-name="Path 743" d="M411.015,185.88a2.917,2.917,0,0,1,.135-.664c.1-.431.293-1.053.477-1.871a58.1,58.1,0,0,0,1.277-6.967,48.816,48.816,0,0,0,.174-10.469,41.205,41.205,0,0,0-3.067-12.393,31.849,31.849,0,0,0-3.247-5.755,34.563,34.563,0,0,0-4.055-4.645,42.827,42.827,0,0,0-8.421-6.2,59.954,59.954,0,0,0-6.352-3.134c-.765-.343-1.378-.564-1.781-.744a2.93,2.93,0,0,1-.611-.292,2.9,2.9,0,0,1,.652.18c.418.144,1.045.332,1.826.643a50.691,50.691,0,0,1,6.47,2.983,41.62,41.62,0,0,1,8.592,6.169,34.383,34.383,0,0,1,4.149,4.7,31.886,31.886,0,0,1,3.321,5.861,40.809,40.809,0,0,1,3.066,12.577,47.105,47.105,0,0,1-.3,10.57,49.381,49.381,0,0,1-1.469,6.973c-.219.812-.449,1.425-.585,1.846A2.9,2.9,0,0,1,411.015,185.88Z" transform="translate(-295.267 -124.342)" fill="#455a64"/>
        <path id="Path_744" data-name="Path 744" d="M403.246,238.038c-.016.013-.143-.126-.372-.4a8.789,8.789,0,0,1-.879-1.307,12.457,12.457,0,0,1-1.584-5.554,12.885,12.885,0,0,1,.44-4,24.745,24.745,0,0,1,1.855-4.2c.673-1.393,1.209-3.107.358-4.557-.8-1.465-2.455-2.392-3.549-4.038a3.018,3.018,0,0,1-.261-2.891,12.841,12.841,0,0,1,1.571-2.222,4.692,4.692,0,0,0,.512-4.534,12.838,12.838,0,0,0-2.289-3.812,23.54,23.54,0,0,1-2.315-3.267,5.978,5.978,0,0,1-.325-5.665,3.207,3.207,0,0,1,1.057-1.187,1.415,1.415,0,0,1,.495-.245,4.226,4.226,0,0,0-1.347,1.536,5.81,5.81,0,0,0,.485,5.358,24.2,24.2,0,0,0,2.333,3.164,13.124,13.124,0,0,1,2.42,3.94,6.518,6.518,0,0,1,.386,2.531,4.641,4.641,0,0,1-.945,2.522,12.922,12.922,0,0,0-1.5,2.117,2.423,2.423,0,0,0,.225,2.342c.948,1.469,2.641,2.429,3.554,4.071a4.05,4.05,0,0,1,.447,2.667,8.7,8.7,0,0,1-.82,2.4,25.16,25.16,0,0,0-1.876,4.1,12.72,12.72,0,0,0-.494,3.852,12.9,12.9,0,0,0,1.369,5.461C402.811,237.417,403.294,238,403.246,238.038Z" transform="translate(-297.348 -135.928)" fill="#263238"/>
        <path id="Path_745" data-name="Path 745" d="M448.063,221.183c.082.16-.152.57-.947.87a4.366,4.366,0,0,1-3.573-.518,6.19,6.19,0,0,1-1.989-1.824,6.09,6.09,0,0,1-.756-1.446,8,8,0,0,1-.394-1.633,14,14,0,0,1,1.3-7.084c.932-2.261,2.057-4.482,2.154-6.5.125-2.028-.765-4.249-2.3-6.687-1.492-2.434-3.661-5.07-5.291-8.478a42.062,42.062,0,0,1-3.4-10.643c-1.387-7.391-1.46-14.264-2.22-20.213a46.439,46.439,0,0,0-4.2-14.944,25.126,25.126,0,0,0-6.279-8.158c-.973-.763-1.75-1.392-2.311-1.79-.545-.432-.814-.758-.747-.951s.469-.243,1.2-.149a11.01,11.01,0,0,1,3.076.94,21.61,21.61,0,0,1,8.674,8.013,43.429,43.429,0,0,1,5.97,16.243c1.1,6.333,1.36,13.182,2.637,19.9a39.98,39.98,0,0,0,2.82,9.27c1.206,2.749,3.117,5.275,4.753,8.2a22.451,22.451,0,0,1,2.044,4.709,12.786,12.786,0,0,1,.44,5.254,14.761,14.761,0,0,1-1.458,4.479c-.618,1.257-1.257,2.326-1.8,3.308a11.979,11.979,0,0,0-1.774,5.074,5.5,5.5,0,0,0,.048,1.026,3.486,3.486,0,0,0,.232.842,4.355,4.355,0,0,0,.92,1.4C446.4,221.243,447.9,220.781,448.063,221.183Z" transform="translate(-301.637 -123.986)" fill="#263238"/>
        <path id="Path_746" data-name="Path 746" d="M364.364,225.23c0,.258-2.629.314-5.727,1.049-3.109.71-5.407,1.965-5.53,1.762-.137-.176,2.083-1.823,5.338-2.57C361.683,224.705,364.38,225.03,364.364,225.23Z" transform="translate(-288.719 -142.96)" fill="#263238"/>
        <path id="Path_747" data-name="Path 747" d="M278.015,248.622l25.169-2.1,35.892,1.574,23.987,4.383-38.116,22.193L296.6,271.029Z" transform="translate(-230.375 -125.227)" fill="#ffbe9d"/>
        <path id="Path_748" data-name="Path 748" d="M320.066,276.818s-19.951,4.613-26.687,11.349S279.653,319,278.235,326.093s-6.026,67-3.19,75.508,13.825,15.6,26.942,18.434,35.1,4.963,35.1,4.963l10.99-34.741-36.966-9.926Z" transform="translate(-272.781 -153.422)" fill="#ff725e"/>
        <path id="Path_749" data-name="Path 749" d="M386.189,384.8,417,386.044s8.686-9.652,10.858-22.2a85.213,85.213,0,0,0,1.206-21.475l8.687-57.427s12.306-.483,17.373,14.478.5,58.921,0,70.457c-.406,9.375-5.388,31.4-12.6,44.3-3.084,5.515-8.444,8.226-11.768,8.41-11.1.617-42.95-4.451-42.95-4.451L386.189,385.8" transform="translate(-295.398 -155.062)" fill="#ff725e"/>
        <path id="Path_750" data-name="Path 750" d="M322.458,276.818s20.5,9.9,49.4,8.54,29.629-6.121,29.629-6.121l17.667,4.221-4.448,88.615-8.644,37.869,7.294,26.271s-128.039-.385-127.359-.385L302.487,388.4Z" transform="translate(-275.174 -153.422)" fill="#ff725e"/>
        <path id="Path_751" data-name="Path 751" d="M392.483,386.4a8.751,8.751,0,0,1,1.511-.311c.994-.16,2.461-.369,4.344-.571,3.762-.446,9.2-.666,15.711-1.634l-.287.315c.425-8.527.437-19.149.851-30.641.274-7.236.776-14.133,1.631-20.36a120.727,120.727,0,0,1,3.3-16.356,86.366,86.366,0,0,1,3.717-10.616c.516-1.224.966-2.152,1.28-2.777a5.125,5.125,0,0,1,.512-.936,5.161,5.161,0,0,1-.36,1.006c-.264.646-.664,1.592-1.133,2.83A101.559,101.559,0,0,0,420.113,317,128.41,128.41,0,0,0,417,333.3c-.809,6.2-1.287,13.07-1.56,20.291-.414,11.467-.484,22.1-1.01,30.644l-.017.278-.27.037c-6.57.9-12.013,1.018-15.774,1.35-1.884.144-3.353.293-4.354.388A9.078,9.078,0,0,1,392.483,386.4Z" transform="translate(-296.668 -158.609)" fill="#263238"/>
        <path id="Path_752" data-name="Path 752" d="M310.344,359.287a7.025,7.025,0,0,1-.293-1.717c-.139-1.11-.287-2.722-.429-4.717-.285-3.989-.479-9.519-.326-15.623s.632-11.62,1.12-15.589c.242-1.985.473-3.587.668-4.689a7.017,7.017,0,0,1,.38-1.7,7.049,7.049,0,0,1-.059,1.74c-.1,1.17-.237,2.764-.4,4.708-.337,3.974-.716,9.469-.873,15.55s-.052,11.586.082,15.572c.068,1.95.124,3.549.164,4.723A7.05,7.05,0,0,1,310.344,359.287Z" transform="translate(-279.867 -161.18)" fill="#263238"/>
        <path id="Path_753" data-name="Path 753" d="M366.416,448.475a2.959,2.959,0,0,1-.768.247c-.51.134-1.264.319-2.238.548-1.952.44-4.782,1.054-8.3,1.694a259.263,259.263,0,0,1-27.733,3.529c-5.453.381-10.643.652-15.394.644a46.371,46.371,0,0,1-12.515-1.54,26.234,26.234,0,0,1-4.532-1.775,21.179,21.179,0,0,1-3.089-1.988l-1.024-.862c-.278-.27-.5-.512-.683-.7a2.928,2.928,0,0,1-.521-.616,3.009,3.009,0,0,1,.638.495l.729.637,1.056.79a23.229,23.229,0,0,0,3.1,1.831,27.155,27.155,0,0,0,4.482,1.624,47.781,47.781,0,0,0,12.359,1.341c4.7-.034,9.9-.327,15.33-.707,10.866-.783,20.646-2.133,27.694-3.279,3.526-.565,6.369-1.091,8.339-1.432.983-.18,1.748-.314,2.268-.4a2.968,2.968,0,0,1,.8-.083Z" transform="translate(-275.905 -187.905)" fill="#263238"/>
        <path id="Path_754" data-name="Path 754" d="M427.022,413.915c-.241.082-1.068-2.745-3.442-5.335-2.332-2.629-5.058-3.743-4.952-3.975.036-.1.77.05,1.852.576a12.769,12.769,0,0,1,6.16,6.833C427.051,413.145,427.121,413.89,427.022,413.915Z" transform="translate(-301.945 -179.21)" fill="#263238"/>
        <g id="Group_538" data-name="Group 538" transform="translate(4.184 233.213)" opacity="0.3">
          <path id="Path_755" data-name="Path 755" d="M277.679,416.211c6.8,4.932,14.025,10.031,22.379,10.93,5.895.634,11.819-.9,17.746-.734,7.872.225,15.366,3.452,22.165,7.425s13.124,8.737,20.046,12.493a61.671,61.671,0,0,0,24.247,7.621,42.644,42.644,0,0,0,24.679-5.161c-10.369,1.241-24.155.853-34.99-2.659-12.065-3.911-14.132-7.068-21.071-10.952-8.984-5.028-16.9-12.013-26.46-15.839a44.906,44.906,0,0,0-25.524-2.287c-4.266.874-8.828,2.348-12.816.6-1.775-.778-3.254-2.141-5.056-2.855s-4.259-.5-5.161,1.217" transform="translate(-277.679 -414.407)"/>
        </g>
        <path id="Path_756" data-name="Path 756" d="M390.132,381.83a4.386,4.386,0,0,1-1.356.235,12.326,12.326,0,0,1-1.609.1,20.77,20.77,0,0,1-2.139-.024,23.692,23.692,0,0,1-2.584-.245c-.931-.1-1.9-.323-2.933-.537a32.811,32.811,0,0,1-12.3-5.779c-.822-.656-1.615-1.263-2.285-1.916a23.678,23.678,0,0,1-1.837-1.833,20.785,20.785,0,0,1-1.383-1.631,12.344,12.344,0,0,1-.949-1.3,4.379,4.379,0,0,1-.684-1.194c.125-.089,1.237,1.517,3.44,3.721.554.548,1.163,1.144,1.871,1.725.675.618,1.469,1.191,2.283,1.816a35.3,35.3,0,0,0,12.024,5.651c1,.229,1.948.474,2.855.6.9.175,1.747.263,2.522.34C388.175,381.846,390.121,381.677,390.132,381.83Z" transform="translate(-290.127 -171.766)" fill="#263238"/>
        <path id="Path_757" data-name="Path 757" d="M450.312,424.83a14.265,14.265,0,0,1-.757,2.917c-.581,1.85-1.467,4.511-2.707,7.752a52.868,52.868,0,0,1-2.262,5.231,21.353,21.353,0,0,1-17.6,11.179,89.435,89.435,0,0,1-14.933-.6c-4.56-.544-8.631-1.281-12.019-2.028s-6.093-1.513-7.941-2.1c-.927-.284-1.635-.544-2.114-.721a2.772,2.772,0,0,1-.716-.313,25.834,25.834,0,0,1,2.92.724c1.869.493,4.583,1.167,7.972,1.839s7.448,1.343,11.984,1.842a93.793,93.793,0,0,0,14.8.529,20.739,20.739,0,0,0,13.133-5.66,21.084,21.084,0,0,0,3.907-5.019,56.106,56.106,0,0,0,2.321-5.117c1.3-3.2,2.273-5.827,2.947-7.639l.768-2.091A3.283,3.283,0,0,1,450.312,424.83Z" transform="translate(-296.019 -183.298)" fill="#263238"/>
        <path id="Path_758" data-name="Path 758" d="M286.533,353.737s18,13.952,18.6,15.569,6.673,11.121,11.728,15.165,51.388,13.507,51.388,13.507l-2.659,33.132s-38.013-22.982-49.336-22.375-20.22,2.831-25.073,1.213-17.033-9.3-17.033-9.3-2.1-4.25.187-6.27c0,0-1.391-4.446-1.068-6.468,0,0-1.84-4.639-.049-6.47,0,0-.437-6.875,3.4-6.875s11.121,1.213,14.558,1.011a5.5,5.5,0,0,0,4.651-2.629s0-1.82-2.831-3.842S279.457,358.792,286.533,353.737Z" transform="translate(-272.438 -168.948)" fill="#ffbe9d"/>
        <path id="Path_759" data-name="Path 759" d="M283.439,395.057c-.084.2-2.731-.752-5.62-2.641s-4.84-3.913-4.689-4.071c.161-.179,2.31,1.539,5.143,3.375S283.538,394.838,283.439,395.057Z" transform="translate(-272.576 -175.931)" fill="#eb996e"/>
        <path id="Path_760" data-name="Path 760" d="M284.141,403.707c-.051.2-3.233-.662-6.485-3.012-3.27-2.328-5.109-5.063-4.934-5.176.193-.16,2.261,2.257,5.418,4.5C281.278,402.29,284.232,403.473,284.141,403.707Z" transform="translate(-272.493 -177.38)" fill="#eb996e"/>
        <path id="Path_761" data-name="Path 761" d="M285.279,411.106c-.026.208-3.085-.273-6.258-2.28-3.189-1.983-4.953-4.527-4.778-4.641.189-.166,2.165,2.042,5.22,3.936C282.5,410.047,285.346,410.864,285.279,411.106Z" transform="translate(-272.8 -179.129)" fill="#eb996e"/>
        <path id="Path_762" data-name="Path 762" d="M303.377,337.031c-.039.268-5.155-.89-11.458-.108-6.313.715-11.015,3.038-11.116,2.786a10.333,10.333,0,0,1,3.025-1.583,31.7,31.7,0,0,1,16.238-1.926A10.31,10.31,0,0,1,303.377,337.031Z" transform="translate(-274.126 -165.343)" fill="#fff"/>
        <path id="Path_763" data-name="Path 763" d="M397.225,345.032a3.556,3.556,0,0,1-.841.28l-2.454.645c-1.066.278-2.376.6-3.908.918s-3.268.73-5.21,1.066c-1.937.365-4.061.754-6.355,1.085-2.287.38-4.748.668-7.334.992-5.181.573-10.9,1.024-16.914,1.206-6.018.153-11.754.022-16.959-.262-2.6-.18-5.074-.33-7.379-.582-2.309-.2-4.452-.473-6.406-.729-1.958-.228-3.715-.535-5.261-.775s-2.873-.48-3.953-.7l-2.485-.508a3.554,3.554,0,0,1-.856-.233,3.6,3.6,0,0,1,.886.068l2.509.353c1.087.169,2.417.37,3.967.559s3.308.461,5.264.651c1.953.219,4.092.454,6.4.626,2.3.222,4.766.345,7.358.5,5.189.241,10.9.349,16.895.2,5.991-.181,11.687-.607,16.854-1.136,2.579-.3,5.034-.563,7.318-.913,2.291-.3,4.414-.655,6.351-.982,1.943-.3,3.684-.662,5.22-.943s2.855-.549,3.93-.779l2.486-.493a3.589,3.589,0,0,1,.88-.117Z" transform="translate(-280.203 -167.191)" fill="#fff"/>
        <path id="Path_764" data-name="Path 764" d="M461.64,340.517a54.512,54.512,0,0,0-5.263-2.6,34.013,34.013,0,0,0-13.87-1.993,75.987,75.987,0,0,0-13.981,2.351,47.882,47.882,0,0,1-5.77,1.314,5.889,5.889,0,0,1,1.481-.594c.969-.329,2.379-.779,4.138-1.288a63.566,63.566,0,0,1,14.09-2.614,31.834,31.834,0,0,1,14.135,2.279,20.83,20.83,0,0,1,3.818,2.113,5.135,5.135,0,0,1,1.223,1.032Z" transform="translate(-302.779 -165.17)" fill="#fff"/>
        <g id="Group_539" data-name="Group 539" transform="translate(70.554 196.688)" opacity="0.3">
          <path id="Path_765" data-name="Path 765" d="M360.834,368.645l.249.72a21.164,21.164,0,0,0,12.32,16.1c6.519,2.709,14.651,1.37,19.637-3.626a31.489,31.489,0,0,1-32.205-13.191Z" transform="translate(-360.834 -368.645)"/>
        </g>
        <g id="Group_540" data-name="Group 540" transform="translate(116.621 224.529)" opacity="0.3">
          <path id="Path_766" data-name="Path 766" d="M436.13,414.209c-1.064-2.88-3.831-4.739-6.542-6.182a58.535,58.535,0,0,0-11.036-4.5l.095,1.083a37.607,37.607,0,0,1,10.52,11.453c1.03,1.742,2.35,3.831,4.372,3.746a3.184,3.184,0,0,0,2.691-2.081,5.023,5.023,0,0,0-.1-3.52Z" transform="translate(-418.552 -403.527)"/>
        </g>
      </g>
      <g id="Desk" transform="translate(24.561 357.842)">
        <path id="Path_767" data-name="Path 767" d="M548,476.418c0,.23-103.681.416-231.547.416-127.911,0-231.569-.186-231.569-.416S188.54,476,316.451,476C444.318,476,548,476.189,548,476.418Z" transform="translate(-84.882 -476.002)" fill="#263238"/>
      </g>
    </g>
  </g>
</svg>
